<?xml version="1.0" encoding="utf-8" standalone="no"?>
<!DOCTYPE svg PUBLIC "-//W3C//DTD SVG 1.1//EN"
  "http://www.w3.org/Graphics/SVG/1.1/DTD/svg11.dtd">
<!-- Created with matplotlib (https://matplotlib.org/) -->
<svg height="342.72pt" version="1.1" viewBox="0 0 460.8 342.72" width="460.8pt" xmlns="http://www.w3.org/2000/svg" xmlns:xlink="http://www.w3.org/1999/xlink">
 <defs>
  <style type="text/css">
*{stroke-linecap:butt;stroke-linejoin:round;}
  </style>
 </defs>
 <g id="figure_1">
  <g id="patch_1">
   <path d="M 0 342.72 
L 460.8 342.72 
L 460.8 0 
L 0 0 
z
" style="fill:#ffffff;"/>
  </g>
  <g id="patch_2">
   <path d="M 57.6 305.0208 
L 414.72 305.0208 
L 414.72 41.1264 
L 57.6 41.1264 
z
" style="fill:#ffffff;"/>
  </g>
  <g id="pane3d_1">
   <g id="patch_3">
    <path d="M 104.941774 246.709438 
L 207.151387 182.00851 
L 205.449705 58.375657 
L 97.541237 116.50811 
" style="fill:#f2f2f2;opacity:0.5;stroke:#f2f2f2;stroke-linejoin:miter;"/>
   </g>
  </g>
  <g id="pane3d_2">
   <g id="patch_4">
    <path d="M 207.151387 182.00851 
L 372.72135 218.180504 
L 379.648599 90.819553 
L 205.449705 58.375657 
" style="fill:#e6e6e6;opacity:0.5;stroke:#e6e6e6;stroke-linejoin:miter;"/>
   </g>
  </g>
  <g id="pane3d_3">
   <g id="patch_5">
    <path d="M 104.941774 246.709438 
L 279.143747 288.837618 
L 372.72135 218.180504 
L 207.151387 182.00851 
" style="fill:#ececec;opacity:0.5;stroke:#ececec;stroke-linejoin:miter;"/>
   </g>
  </g>
  <g id="axis3d_1">
   <g id="line2d_1">
    <path d="M 104.941774 246.709438 
L 279.143747 288.837618 
" style="fill:none;stroke:#000000;stroke-linecap:square;stroke-width:0.8;"/>
   </g>
   <g id="Line3DCollection_1">
    <path d="M 115.562252 249.277844 
L 217.277438 184.220744 
L 216.081723 60.355831 
" style="fill:none;stroke:#b0b0b0;stroke-width:0.8;"/>
    <path d="M 133.910384 253.715069 
L 234.761622 188.040506 
L 234.446201 63.776147 
" style="fill:none;stroke:#b0b0b0;stroke-width:0.8;"/>
    <path d="M 152.43966 258.196102 
L 252.405875 191.895238 
L 252.987369 67.22937 
" style="fill:none;stroke:#b0b0b0;stroke-width:0.8;"/>
    <path d="M 171.152775 262.721593 
L 270.212405 195.785422 
L 271.707787 70.715978 
" style="fill:none;stroke:#b0b0b0;stroke-width:0.8;"/>
    <path d="M 190.052479 267.292208 
L 288.183461 199.71155 
L 290.610069 74.236458 
" style="fill:none;stroke:#b0b0b0;stroke-width:0.8;"/>
    <path d="M 209.141577 271.908625 
L 306.321335 203.674123 
L 309.696877 77.791305 
" style="fill:none;stroke:#b0b0b0;stroke-width:0.8;"/>
    <path d="M 228.42293 276.571536 
L 324.628359 207.67365 
L 328.970927 81.381025 
" style="fill:none;stroke:#b0b0b0;stroke-width:0.8;"/>
    <path d="M 247.899457 281.281647 
L 343.106911 211.710651 
L 348.434987 85.006134 
" style="fill:none;stroke:#b0b0b0;stroke-width:0.8;"/>
    <path d="M 267.574137 286.039678 
L 361.759413 215.785655 
L 368.091882 88.667157 
" style="fill:none;stroke:#b0b0b0;stroke-width:0.8;"/>
   </g>
   <g id="xtick_1">
    <g id="line2d_2">
     <path d="M 116.438581 248.717343 
L 113.806326 250.400935 
" style="fill:none;stroke:#000000;stroke-linecap:square;stroke-width:0.8;"/>
    </g>
    <g id="text_1">
     <!-- −1.00 -->
     <defs>
      <path d="M 10.59375 35.5 
L 73.1875 35.5 
L 73.1875 27.203125 
L 10.59375 27.203125 
z
" id="DejaVuSans-8722"/>
      <path d="M 12.40625 8.296875 
L 28.515625 8.296875 
L 28.515625 63.921875 
L 10.984375 60.40625 
L 10.984375 69.390625 
L 28.421875 72.90625 
L 38.28125 72.90625 
L 38.28125 8.296875 
L 54.390625 8.296875 
L 54.390625 0 
L 12.40625 0 
z
" id="DejaVuSans-49"/>
      <path d="M 10.6875 12.40625 
L 21 12.40625 
L 21 0 
L 10.6875 0 
z
" id="DejaVuSans-46"/>
      <path d="M 31.78125 66.40625 
Q 24.171875 66.40625 20.328125 58.90625 
Q 16.5 51.421875 16.5 36.375 
Q 16.5 21.390625 20.328125 13.890625 
Q 24.171875 6.390625 31.78125 6.390625 
Q 39.453125 6.390625 43.28125 13.890625 
Q 47.125 21.390625 47.125 36.375 
Q 47.125 51.421875 43.28125 58.90625 
Q 39.453125 66.40625 31.78125 66.40625 
z
M 31.78125 74.21875 
Q 44.046875 74.21875 50.515625 64.515625 
Q 56.984375 54.828125 56.984375 36.375 
Q 56.984375 17.96875 50.515625 8.265625 
Q 44.046875 -1.421875 31.78125 -1.421875 
Q 19.53125 -1.421875 13.0625 8.265625 
Q 6.59375 17.96875 6.59375 36.375 
Q 6.59375 54.828125 13.0625 64.515625 
Q 19.53125 74.21875 31.78125 74.21875 
z
" id="DejaVuSans-48"/>
     </defs>
     <g transform="translate(92.893285 270.683355)scale(0.1 -0.1)">
      <use xlink:href="#DejaVuSans-8722"/>
      <use x="83.789062" xlink:href="#DejaVuSans-49"/>
      <use x="147.412109" xlink:href="#DejaVuSans-46"/>
      <use x="179.199219" xlink:href="#DejaVuSans-48"/>
      <use x="242.822266" xlink:href="#DejaVuSans-48"/>
     </g>
    </g>
   </g>
   <g id="xtick_2">
    <g id="line2d_3">
     <path d="M 134.779574 253.149051 
L 132.168746 254.849228 
" style="fill:none;stroke:#000000;stroke-linecap:square;stroke-width:0.8;"/>
    </g>
    <g id="text_2">
     <!-- −0.75 -->
     <defs>
      <path d="M 8.203125 72.90625 
L 55.078125 72.90625 
L 55.078125 68.703125 
L 28.609375 0 
L 18.3125 0 
L 43.21875 64.59375 
L 8.203125 64.59375 
z
" id="DejaVuSans-55"/>
      <path d="M 10.796875 72.90625 
L 49.515625 72.90625 
L 49.515625 64.59375 
L 19.828125 64.59375 
L 19.828125 46.734375 
Q 21.96875 47.46875 24.109375 47.828125 
Q 26.265625 48.1875 28.421875 48.1875 
Q 40.625 48.1875 47.75 41.5 
Q 54.890625 34.8125 54.890625 23.390625 
Q 54.890625 11.625 47.5625 5.09375 
Q 40.234375 -1.421875 26.90625 -1.421875 
Q 22.3125 -1.421875 17.546875 -0.640625 
Q 12.796875 0.140625 7.71875 1.703125 
L 7.71875 11.625 
Q 12.109375 9.234375 16.796875 8.0625 
Q 21.484375 6.890625 26.703125 6.890625 
Q 35.15625 6.890625 40.078125 11.328125 
Q 45.015625 15.765625 45.015625 23.390625 
Q 45.015625 31 40.078125 35.4375 
Q 35.15625 39.890625 26.703125 39.890625 
Q 22.75 39.890625 18.8125 39.015625 
Q 14.890625 38.140625 10.796875 36.28125 
z
" id="DejaVuSans-53"/>
     </defs>
     <g transform="translate(111.239246 275.196745)scale(0.1 -0.1)">
      <use xlink:href="#DejaVuSans-8722"/>
      <use x="83.789062" xlink:href="#DejaVuSans-48"/>
      <use x="147.412109" xlink:href="#DejaVuSans-46"/>
      <use x="179.199219" xlink:href="#DejaVuSans-55"/>
      <use x="242.822266" xlink:href="#DejaVuSans-53"/>
     </g>
    </g>
   </g>
   <g id="xtick_3">
    <g id="line2d_4">
     <path d="M 153.301527 257.624483 
L 150.712679 259.341492 
" style="fill:none;stroke:#000000;stroke-linecap:square;stroke-width:0.8;"/>
    </g>
    <g id="text_3">
     <!-- −0.50 -->
     <g transform="translate(129.766666 279.754777)scale(0.1 -0.1)">
      <use xlink:href="#DejaVuSans-8722"/>
      <use x="83.789062" xlink:href="#DejaVuSans-48"/>
      <use x="147.412109" xlink:href="#DejaVuSans-46"/>
      <use x="179.199219" xlink:href="#DejaVuSans-53"/>
      <use x="242.822266" xlink:href="#DejaVuSans-48"/>
     </g>
    </g>
   </g>
   <g id="xtick_4">
    <g id="line2d_5">
     <path d="M 172.007132 262.14429 
L 169.440828 263.878383 
" style="fill:none;stroke:#000000;stroke-linecap:square;stroke-width:0.8;"/>
    </g>
    <g id="text_4">
     <!-- −0.25 -->
     <defs>
      <path d="M 19.1875 8.296875 
L 53.609375 8.296875 
L 53.609375 0 
L 7.328125 0 
L 7.328125 8.296875 
Q 12.9375 14.109375 22.625 23.890625 
Q 32.328125 33.6875 34.8125 36.53125 
Q 39.546875 41.84375 41.421875 45.53125 
Q 43.3125 49.21875 43.3125 52.78125 
Q 43.3125 58.59375 39.234375 62.25 
Q 35.15625 65.921875 28.609375 65.921875 
Q 23.96875 65.921875 18.8125 64.3125 
Q 13.671875 62.703125 7.8125 59.421875 
L 7.8125 69.390625 
Q 13.765625 71.78125 18.9375 73 
Q 24.125 74.21875 28.421875 74.21875 
Q 39.75 74.21875 46.484375 68.546875 
Q 53.21875 62.890625 53.21875 53.421875 
Q 53.21875 48.921875 51.53125 44.890625 
Q 49.859375 40.875 45.40625 35.40625 
Q 44.1875 33.984375 37.640625 27.21875 
Q 31.109375 20.453125 19.1875 8.296875 
z
" id="DejaVuSans-50"/>
     </defs>
     <g transform="translate(148.478251 284.358116)scale(0.1 -0.1)">
      <use xlink:href="#DejaVuSans-8722"/>
      <use x="83.789062" xlink:href="#DejaVuSans-48"/>
      <use x="147.412109" xlink:href="#DejaVuSans-46"/>
      <use x="179.199219" xlink:href="#DejaVuSans-50"/>
      <use x="242.822266" xlink:href="#DejaVuSans-53"/>
     </g>
    </g>
   </g>
   <g id="xtick_5">
    <g id="line2d_6">
     <path d="M 190.899132 266.709137 
L 188.355953 268.460568 
" style="fill:none;stroke:#000000;stroke-linecap:square;stroke-width:0.8;"/>
    </g>
    <g id="text_5">
     <!-- 0.00 -->
     <g transform="translate(171.566605 289.007441)scale(0.1 -0.1)">
      <use xlink:href="#DejaVuSans-48"/>
      <use x="63.623047" xlink:href="#DejaVuSans-46"/>
      <use x="95.410156" xlink:href="#DejaVuSans-48"/>
      <use x="159.033203" xlink:href="#DejaVuSans-48"/>
     </g>
    </g>
   </g>
   <g id="xtick_6">
    <g id="line2d_7">
     <path d="M 209.980329 271.319698 
L 207.460868 273.08873 
" style="fill:none;stroke:#000000;stroke-linecap:square;stroke-width:0.8;"/>
    </g>
    <g id="text_6">
     <!-- 0.25 -->
     <g transform="translate(190.654854 293.703445)scale(0.1 -0.1)">
      <use xlink:href="#DejaVuSans-48"/>
      <use x="63.623047" xlink:href="#DejaVuSans-46"/>
      <use x="95.410156" xlink:href="#DejaVuSans-50"/>
      <use x="159.033203" xlink:href="#DejaVuSans-53"/>
     </g>
    </g>
   </g>
   <g id="xtick_7">
    <g id="line2d_8">
     <path d="M 229.253578 275.976665 
L 226.758444 277.763564 
" style="fill:none;stroke:#000000;stroke-linecap:square;stroke-width:0.8;"/>
    </g>
    <g id="text_7">
     <!-- 0.50 -->
     <g transform="translate(209.935714 298.446835)scale(0.1 -0.1)">
      <use xlink:href="#DejaVuSans-48"/>
      <use x="63.623047" xlink:href="#DejaVuSans-46"/>
      <use x="95.410156" xlink:href="#DejaVuSans-53"/>
      <use x="159.033203" xlink:href="#DejaVuSans-48"/>
     </g>
    </g>
   </g>
   <g id="xtick_8">
    <g id="line2d_9">
     <path d="M 248.721793 280.680741 
L 246.251609 282.48578 
" style="fill:none;stroke:#000000;stroke-linecap:square;stroke-width:0.8;"/>
    </g>
    <g id="text_8">
     <!-- 0.75 -->
     <g transform="translate(229.412116 303.238331)scale(0.1 -0.1)">
      <use xlink:href="#DejaVuSans-48"/>
      <use x="63.623047" xlink:href="#DejaVuSans-46"/>
      <use x="95.410156" xlink:href="#DejaVuSans-55"/>
      <use x="159.033203" xlink:href="#DejaVuSans-53"/>
     </g>
    </g>
   </g>
   <g id="xtick_9">
    <g id="line2d_10">
     <path d="M 268.387949 285.432645 
L 265.943353 287.256101 
" style="fill:none;stroke:#000000;stroke-linecap:square;stroke-width:0.8;"/>
    </g>
    <g id="text_9">
     <!-- 1.00 -->
     <g transform="translate(249.08705 308.078668)scale(0.1 -0.1)">
      <use xlink:href="#DejaVuSans-49"/>
      <use x="63.623047" xlink:href="#DejaVuSans-46"/>
      <use x="95.410156" xlink:href="#DejaVuSans-48"/>
      <use x="159.033203" xlink:href="#DejaVuSans-48"/>
     </g>
    </g>
   </g>
  </g>
  <g id="axis3d_2">
   <g id="line2d_11">
    <path d="M 372.72135 218.180504 
L 279.143747 288.837618 
" style="fill:none;stroke:#000000;stroke-linecap:square;stroke-width:0.8;"/>
   </g>
   <g id="Line3DCollection_2">
    <path d="M 104.904708 112.541261 
L 111.891066 242.310384 
L 285.52606 284.018562 
" style="fill:none;stroke:#b0b0b0;stroke-width:0.8;"/>
    <path d="M 117.398835 105.810424 
L 123.690876 234.840845 
L 296.356472 275.840903 
" style="fill:none;stroke:#b0b0b0;stroke-width:0.8;"/>
    <path d="M 129.675471 99.196754 
L 135.295653 227.494766 
L 306.999688 267.80459 
" style="fill:none;stroke:#b0b0b0;stroke-width:0.8;"/>
    <path d="M 141.740247 92.697218 
L 146.710193 220.269112 
L 317.46052 259.905988 
" style="fill:none;stroke:#b0b0b0;stroke-width:0.8;"/>
    <path d="M 153.598599 86.308886 
L 157.939135 213.160946 
L 327.743615 252.141589 
" style="fill:none;stroke:#b0b0b0;stroke-width:0.8;"/>
    <path d="M 165.255781 80.028929 
L 168.98697 206.167424 
L 337.853467 244.508 
" style="fill:none;stroke:#b0b0b0;stroke-width:0.8;"/>
    <path d="M 176.716868 73.854612 
L 179.858043 199.285796 
L 347.794416 237.001944 
" style="fill:none;stroke:#b0b0b0;stroke-width:0.8;"/>
    <path d="M 187.986768 67.783291 
L 190.556564 192.513397 
L 357.570659 229.620251 
" style="fill:none;stroke:#b0b0b0;stroke-width:0.8;"/>
    <path d="M 199.070224 61.812412 
L 201.086609 185.847648 
L 367.186258 222.359855 
" style="fill:none;stroke:#b0b0b0;stroke-width:0.8;"/>
   </g>
   <g id="xtick_10">
    <g id="line2d_12">
     <path d="M 284.072886 283.669501 
L 288.435654 284.717464 
" style="fill:none;stroke:#000000;stroke-linecap:square;stroke-width:0.8;"/>
    </g>
    <g id="text_10">
     <!-- −2.0 -->
     <g transform="translate(286.129563 303.716692)scale(0.1 -0.1)">
      <use xlink:href="#DejaVuSans-8722"/>
      <use x="83.789062" xlink:href="#DejaVuSans-50"/>
      <use x="147.412109" xlink:href="#DejaVuSans-46"/>
      <use x="179.199219" xlink:href="#DejaVuSans-48"/>
     </g>
    </g>
   </g>
   <g id="xtick_11">
    <g id="line2d_13">
     <path d="M 294.911967 275.497901 
L 299.248682 276.527669 
" style="fill:none;stroke:#000000;stroke-linecap:square;stroke-width:0.8;"/>
    </g>
    <g id="text_11">
     <!-- −1.5 -->
     <g transform="translate(296.843436 295.437755)scale(0.1 -0.1)">
      <use xlink:href="#DejaVuSans-8722"/>
      <use x="83.789062" xlink:href="#DejaVuSans-49"/>
      <use x="147.412109" xlink:href="#DejaVuSans-46"/>
      <use x="179.199219" xlink:href="#DejaVuSans-53"/>
     </g>
    </g>
   </g>
   <g id="xtick_12">
    <g id="line2d_14">
     <path d="M 305.56377 267.467489 
L 309.874677 268.479532 
" style="fill:none;stroke:#000000;stroke-linecap:square;stroke-width:0.8;"/>
    </g>
    <g id="text_12">
     <!-- −1.0 -->
     <g transform="translate(307.372219 287.301842)scale(0.1 -0.1)">
      <use xlink:href="#DejaVuSans-8722"/>
      <use x="83.789062" xlink:href="#DejaVuSans-49"/>
      <use x="147.412109" xlink:href="#DejaVuSans-46"/>
      <use x="179.199219" xlink:href="#DejaVuSans-48"/>
     </g>
    </g>
   </g>
   <g id="xtick_13">
    <g id="line2d_15">
     <path d="M 316.033108 259.574638 
L 320.318451 260.56941 
" style="fill:none;stroke:#000000;stroke-linecap:square;stroke-width:0.8;"/>
    </g>
    <g id="text_13">
     <!-- −0.5 -->
     <g transform="translate(317.72067 279.305278)scale(0.1 -0.1)">
      <use xlink:href="#DejaVuSans-8722"/>
      <use x="83.789062" xlink:href="#DejaVuSans-48"/>
      <use x="147.412109" xlink:href="#DejaVuSans-46"/>
      <use x="179.199219" xlink:href="#DejaVuSans-53"/>
     </g>
    </g>
   </g>
   <g id="xtick_14">
    <g id="line2d_16">
     <path d="M 326.324629 251.815844 
L 330.584651 252.793783 
" style="fill:none;stroke:#000000;stroke-linecap:square;stroke-width:0.8;"/>
    </g>
    <g id="text_14">
     <!-- 0.0 -->
     <g transform="translate(332.083224 271.444514)scale(0.1 -0.1)">
      <use xlink:href="#DejaVuSans-48"/>
      <use x="63.623047" xlink:href="#DejaVuSans-46"/>
      <use x="95.410156" xlink:href="#DejaVuSans-48"/>
     </g>
    </g>
   </g>
   <g id="xtick_15">
    <g id="line2d_17">
     <path d="M 336.442826 244.187719 
L 340.677768 245.149248 
" style="fill:none;stroke:#000000;stroke-linecap:square;stroke-width:0.8;"/>
    </g>
    <g id="text_15">
     <!-- 0.5 -->
     <g transform="translate(342.084635 263.716119)scale(0.1 -0.1)">
      <use xlink:href="#DejaVuSans-48"/>
      <use x="63.623047" xlink:href="#DejaVuSans-46"/>
      <use x="95.410156" xlink:href="#DejaVuSans-53"/>
     </g>
    </g>
   </g>
   <g id="xtick_16">
    <g id="line2d_18">
     <path d="M 346.392041 236.68699 
L 350.602143 237.63252 
" style="fill:none;stroke:#000000;stroke-linecap:square;stroke-width:0.8;"/>
    </g>
    <g id="text_16">
     <!-- 1.0 -->
     <g transform="translate(351.919035 256.116777)scale(0.1 -0.1)">
      <use xlink:href="#DejaVuSans-49"/>
      <use x="63.623047" xlink:href="#DejaVuSans-46"/>
      <use x="95.410156" xlink:href="#DejaVuSans-48"/>
     </g>
    </g>
   </g>
   <g id="xtick_17">
    <g id="line2d_19">
     <path d="M 356.176471 229.310493 
L 360.361971 230.240419 
" style="fill:none;stroke:#000000;stroke-linecap:square;stroke-width:0.8;"/>
    </g>
    <g id="text_17">
     <!-- 1.5 -->
     <g transform="translate(361.590574 248.643284)scale(0.1 -0.1)">
      <use xlink:href="#DejaVuSans-49"/>
      <use x="63.623047" xlink:href="#DejaVuSans-46"/>
      <use x="95.410156" xlink:href="#DejaVuSans-53"/>
     </g>
    </g>
   </g>
   <g id="xtick_18">
    <g id="line2d_20">
     <path d="M 365.800177 222.055165 
L 369.961313 222.96987 
" style="fill:none;stroke:#000000;stroke-linecap:square;stroke-width:0.8;"/>
    </g>
    <g id="text_18">
     <!-- 2.0 -->
     <g transform="translate(371.103264 241.292538)scale(0.1 -0.1)">
      <use xlink:href="#DejaVuSans-50"/>
      <use x="63.623047" xlink:href="#DejaVuSans-46"/>
      <use x="95.410156" xlink:href="#DejaVuSans-48"/>
     </g>
    </g>
   </g>
  </g>
  <g id="axis3d_3">
   <g id="line2d_21">
    <path d="M 372.72135 218.180504 
L 379.648599 90.819553 
" style="fill:none;stroke:#000000;stroke-linecap:square;stroke-width:0.8;"/>
   </g>
   <g id="Line3DCollection_3">
    <path d="M 373.648902 201.12699 
L 206.923103 165.422928 
L 103.952326 229.301576 
" style="fill:none;stroke:#b0b0b0;stroke-width:0.8;"/>
    <path d="M 374.45477 186.310692 
L 206.724876 151.021034 
L 103.092311 214.170904 
" style="fill:none;stroke:#b0b0b0;stroke-width:0.8;"/>
    <path d="M 375.270489 171.313289 
L 206.524327 136.450535 
L 102.221433 198.849115 
" style="fill:none;stroke:#b0b0b0;stroke-width:0.8;"/>
    <path d="M 376.096241 156.13144 
L 206.321417 121.708455 
L 101.339485 183.332563 
" style="fill:none;stroke:#b0b0b0;stroke-width:0.8;"/>
    <path d="M 376.93221 140.761721 
L 206.116104 106.791744 
L 100.446254 167.617512 
" style="fill:none;stroke:#b0b0b0;stroke-width:0.8;"/>
    <path d="M 377.778589 125.200624 
L 205.908344 91.69728 
L 99.541523 151.700129 
" style="fill:none;stroke:#b0b0b0;stroke-width:0.8;"/>
    <path d="M 378.635572 109.444551 
L 205.698093 76.421868 
L 98.625068 135.576479 
" style="fill:none;stroke:#b0b0b0;stroke-width:0.8;"/>
   </g>
   <g id="xtick_19">
    <g id="line2d_22">
     <path d="M 372.257468 200.829016 
L 376.434682 201.72356 
" style="fill:none;stroke:#000000;stroke-linecap:square;stroke-width:0.8;"/>
    </g>
    <g id="text_19">
     <!-- −1.5 -->
     <g transform="translate(380.031782 206.790237)scale(0.1 -0.1)">
      <use xlink:href="#DejaVuSans-8722"/>
      <use x="83.789062" xlink:href="#DejaVuSans-49"/>
      <use x="147.412109" xlink:href="#DejaVuSans-46"/>
      <use x="179.199219" xlink:href="#DejaVuSans-53"/>
     </g>
    </g>
   </g>
   <g id="xtick_20">
    <g id="line2d_23">
     <path d="M 373.054604 186.016103 
L 377.258051 186.90049 
" style="fill:none;stroke:#000000;stroke-linecap:square;stroke-width:0.8;"/>
    </g>
    <g id="text_20">
     <!-- −1.0 -->
     <g transform="translate(380.948087 191.995942)scale(0.1 -0.1)">
      <use xlink:href="#DejaVuSans-8722"/>
      <use x="83.789062" xlink:href="#DejaVuSans-49"/>
      <use x="147.412109" xlink:href="#DejaVuSans-46"/>
      <use x="179.199219" xlink:href="#DejaVuSans-48"/>
     </g>
    </g>
   </g>
   <g id="xtick_21">
    <g id="line2d_24">
     <path d="M 373.861481 171.022189 
L 378.091491 171.896104 
" style="fill:none;stroke:#000000;stroke-linecap:square;stroke-width:0.8;"/>
    </g>
    <g id="text_21">
     <!-- −0.5 -->
     <g transform="translate(381.875566 177.021224)scale(0.1 -0.1)">
      <use xlink:href="#DejaVuSans-8722"/>
      <use x="83.789062" xlink:href="#DejaVuSans-48"/>
      <use x="147.412109" xlink:href="#DejaVuSans-46"/>
      <use x="179.199219" xlink:href="#DejaVuSans-53"/>
     </g>
    </g>
   </g>
   <g id="xtick_22">
    <g id="line2d_25">
     <path d="M 374.678278 155.843938 
L 378.935188 156.707055 
" style="fill:none;stroke:#000000;stroke-linecap:square;stroke-width:0.8;"/>
    </g>
    <g id="text_22">
     <!-- 0.0 -->
     <g transform="translate(387.004269 161.862764)scale(0.1 -0.1)">
      <use xlink:href="#DejaVuSans-48"/>
      <use x="63.623047" xlink:href="#DejaVuSans-46"/>
      <use x="95.410156" xlink:href="#DejaVuSans-48"/>
     </g>
    </g>
   </g>
   <g id="xtick_23">
    <g id="line2d_26">
     <path d="M 375.505179 140.477929 
L 379.789333 141.329913 
" style="fill:none;stroke:#000000;stroke-linecap:square;stroke-width:0.8;"/>
    </g>
    <g id="text_23">
     <!-- 0.5 -->
     <g transform="translate(387.95472 146.517158)scale(0.1 -0.1)">
      <use xlink:href="#DejaVuSans-48"/>
      <use x="63.623047" xlink:href="#DejaVuSans-46"/>
      <use x="95.410156" xlink:href="#DejaVuSans-53"/>
     </g>
    </g>
   </g>
   <g id="xtick_24">
    <g id="line2d_27">
     <path d="M 376.342372 124.920657 
L 380.654121 125.761163 
" style="fill:none;stroke:#000000;stroke-linecap:square;stroke-width:0.8;"/>
    </g>
    <g id="text_24">
     <!-- 1.0 -->
     <g transform="translate(388.916978 130.98092)scale(0.1 -0.1)">
      <use xlink:href="#DejaVuSans-49"/>
      <use x="63.623047" xlink:href="#DejaVuSans-46"/>
      <use x="95.410156" xlink:href="#DejaVuSans-48"/>
     </g>
    </g>
   </g>
   <g id="xtick_25">
    <g id="line2d_28">
     <path d="M 377.190051 109.168527 
L 381.529753 109.9972 
" style="fill:none;stroke:#000000;stroke-linecap:square;stroke-width:0.8;"/>
    </g>
    <g id="text_25">
     <!-- 1.5 -->
     <g transform="translate(389.891264 115.250475)scale(0.1 -0.1)">
      <use xlink:href="#DejaVuSans-49"/>
      <use x="63.623047" xlink:href="#DejaVuSans-46"/>
      <use x="95.410156" xlink:href="#DejaVuSans-53"/>
     </g>
    </g>
   </g>
  </g>
  <g id="axes_1">
   <g id="line2d_29">
    <path clip-path="url(#pd37c871568)" d="M 188.842492 140.334559 
L 190.048939 136.921214 
L 190.909181 133.76333 
L 191.431207 130.916437 
L 191.628092 128.432112 
L 191.517943 126.357139 
L 191.12378 124.732678 
L 190.473332 123.593466 
L 189.598752 122.967067 
L 188.536242 122.873188 
L 187.325582 123.3231 
L 186.009567 124.319172 
L 184.633348 125.854551 
L 183.24369 127.913024 
L 181.888164 130.46905 
L 180.614275 133.48802 
L 179.46856 136.926715 
L 178.49567 140.733982 
L 177.737477 144.851621 
L 177.232213 149.215454 
L 177.013683 153.756561 
L 177.11058 158.402643 
L 177.545911 163.079476 
L 178.33656 167.712405 
L 179.493001 172.227848 
L 181.019168 176.554739 
L 182.912471 180.625901 
L 185.163968 184.37928 
L 187.758667 187.759035 
L 190.675952 190.716447 
L 193.890104 193.210638 
L 197.370908 195.209102 
L 201.08431 196.688031 
L 204.993113 197.632473 
L 209.057688 198.036307 
L 213.236683 197.902075 
L 217.487714 197.240679 
L 221.768027 196.07097 
L 226.035122 194.419251 
L 230.247343 192.318701 
L 234.364407 189.808758 
L 238.347901 186.934453 
L 242.161726 183.745723 
L 245.772503 180.296702 
L 249.149938 176.645 
L 252.267152 172.850968 
L 255.100974 168.97695 
L 257.632209 165.086533 
L 259.845877 161.24377 
L 261.731412 157.512396 
L 263.282842 153.955025 
L 264.498932 150.632322 
L 265.383278 147.602173 
L 265.944371 144.918828 
L 266.195595 142.632049 
L 266.155171 140.78626 
L 265.846033 139.41972 
L 265.295619 138.563733 
L 264.535586 138.241917 
L 263.601427 138.469565 
L 262.532004 139.253104 
L 261.368979 140.589705 
L 260.15616 142.467044 
L 258.938774 144.863256 
L 257.762658 147.747088 
L 256.673414 151.078272 
L 255.71553 154.808116 
L 254.931494 158.880312 
L 254.360931 163.231944 
L 254.039797 167.794686 
L 253.999633 172.496138 
L 254.266935 177.261279 
L 254.862629 182.013986 
L 255.801692 186.678573 
L 257.092912 191.181303 
L 258.7388 195.451831 
L 260.735649 199.424532 
L 263.073729 203.039679 
L 265.737611 206.244463 
L 268.7066 208.9938 
L 271.955254 211.250963 
L 275.453979 212.987991 
L 279.169663 214.185923 
L 283.066341 214.83484 
L 287.105875 214.933747 
L 291.248616 214.490315 
L 295.454055 213.520494 
L 299.681439 212.048038 
L 303.890354 210.103941 
L 308.041263 207.725819 
L 312.096004 204.957248 
L 316.018243 201.847067 
L 319.773892 198.44867 
L 323.331479 194.819269 
L 326.662493 191.019157 
L 329.74169 187.110959 
L 332.547377 183.158871 
L 335.061662 179.227885 
L 337.270679 175.383007 
L 339.164795 171.688447 
" style="fill:none;stroke:#1f77b4;stroke-linecap:square;stroke-width:4;"/>
   </g>
   <g id="line2d_30">
    <path clip-path="url(#pd37c871568)" d="M 210.508133 127.481528 
L 211.522606 120.406693 
L 211.861235 113.802454 
L 211.534142 107.777577 
L 210.560787 102.43549 
L 208.970241 97.872651 
L 206.801363 94.176796 
L 204.102847 91.425086 
L 200.933087 89.682195 
L 197.35984 88.998402 
L 193.459626 89.407754 
L 189.316861 90.9264 
L 185.022681 93.55118 
L 180.673469 97.258579 
L 176.369097 102.004151 
L 172.210908 107.72248 
L 168.299508 114.327767 
L 164.732427 121.715065 
L 161.601744 129.762172 
L 158.991783 138.332151 
L 156.976966 147.276386 
L 155.619941 156.438079 
L 154.970058 165.656038 
L 155.062262 174.768598 
L 155.916454 183.617499 
L 157.537321 192.05158 
L 159.914639 199.930116 
L 163.023994 207.1257 
L 166.827878 213.526583 
L 171.277073 219.038422 
L 176.312252 223.585423 
L 181.865701 227.110913 
L 187.863099 229.577384 
L 194.225265 230.966078 
L 200.86984 231.276203 
L 207.71283 230.523857 
L 214.670013 228.740757 
L 221.658159 225.972844 
L 228.596099 222.278834 
L 235.405614 217.728772 
L 242.012176 212.402629 
L 248.345567 206.388971 
L 254.340379 199.783714 
L 259.936438 192.688969 
L 265.079169 185.211969 
L 269.719923 177.464066 
L 273.81629 169.559766 
L 277.332412 161.615793 
L 280.23931 153.750133 
L 282.515232 146.081038 
L 284.146017 138.725961 
L 285.125481 131.800382 
L 285.455809 125.416521 
L 285.14793 119.681903 
L 284.221857 114.697777 
L 282.706962 110.5574 
L 280.64215 107.344198 
L 278.075887 105.129833 
L 275.066049 103.97225 
L 271.67955 103.913748 
L 267.991713 104.979173 
L 264.085359 107.174332 
L 260.049596 110.484727 
L 255.978317 114.874707 
L 251.968416 120.287155 
L 248.117768 126.643771 
L 244.523038 133.84602 
L 241.277383 141.776754 
L 238.468152 150.302505 
L 236.174677 159.276383 
L 234.466257 168.541477 
L 233.400434 177.934633 
L 233.021624 187.290443 
L 233.360182 196.445277 
L 234.431918 205.241188 
L 236.238078 213.52952 
L 238.765756 221.174087 
L 241.988711 228.053828 
L 245.868508 234.064863 
L 250.355919 239.121919 
L 255.392497 243.159157 
L 260.912244 246.130416 
L 266.843304 248.008963 
L 273.109609 248.786808 
L 279.632438 248.4737 
L 286.331837 247.095871 
L 293.127894 244.69463 
L 299.941851 241.324875 
L 306.697046 237.05359 
L 313.31971 231.958373 
L 319.739624 226.126039 
L 325.890663 219.6513 
L 331.711242 212.635554 
L 337.144699 205.185763 
L 342.139632 197.413406 
L 346.650207 189.433504 
L 350.636464 181.363671 
L 354.064636 173.323175 
L 356.907479 165.431969 
L 359.144632 157.809662 
" style="fill:none;stroke:#ff7f0e;stroke-linecap:square;stroke-width:4;"/>
   </g>
   <g id="Poly3DCollection_1">
    <defs>
     <path d="M 188.842492 -202.385441 
L 190.048939 -205.798786 
L 211.522606 -222.313307 
L 210.508133 -215.238472 
z
" id="mb7dd69dba9"/>
    </defs>
    <g clip-path="url(#pd37c871568)">
     <use style="fill:#4682b4;fill-opacity:0.6;" x="0" xlink:href="#mb7dd69dba9" y="342.72"/>
    </g>
   </g>
   <g id="Poly3DCollection_2">
    <defs>
     <path d="M 190.048939 -205.798786 
L 190.909181 -208.95667 
L 211.861235 -228.917546 
L 211.522606 -222.313307 
z
" id="m1c8cd0582a"/>
    </defs>
    <g clip-path="url(#pd37c871568)">
     <use style="fill:#4682b4;fill-opacity:0.6;" x="0" xlink:href="#m1c8cd0582a" y="342.72"/>
    </g>
   </g>
   <g id="Poly3DCollection_3">
    <defs>
     <path d="M 190.909181 -208.95667 
L 191.431207 -211.803563 
L 211.534142 -234.942423 
L 211.861235 -228.917546 
z
" id="m623b295614"/>
    </defs>
    <g clip-path="url(#pd37c871568)">
     <use style="fill:#4682b4;fill-opacity:0.6;" x="0" xlink:href="#m623b295614" y="342.72"/>
    </g>
   </g>
   <g id="Poly3DCollection_4">
    <defs>
     <path d="M 191.431207 -211.803563 
L 191.628092 -214.287888 
L 210.560787 -240.28451 
L 211.534142 -234.942423 
z
" id="m314ce17213"/>
    </defs>
    <g clip-path="url(#pd37c871568)">
     <use style="fill:#4682b4;fill-opacity:0.6;" x="0" xlink:href="#m314ce17213" y="342.72"/>
    </g>
   </g>
   <g id="Poly3DCollection_5">
    <defs>
     <path d="M 191.628092 -214.287888 
L 191.517943 -216.362861 
L 208.970241 -244.847349 
L 210.560787 -240.28451 
z
" id="m4fa7f79394"/>
    </defs>
    <g clip-path="url(#pd37c871568)">
     <use style="fill:#4682b4;fill-opacity:0.6;" x="0" xlink:href="#m4fa7f79394" y="342.72"/>
    </g>
   </g>
   <g id="Poly3DCollection_6">
    <defs>
     <path d="M 245.772503 -162.423298 
L 249.149938 -166.075 
L 265.079169 -157.508031 
L 259.936438 -150.031031 
z
" id="mff66834288"/>
    </defs>
    <g clip-path="url(#pd37c871568)">
     <use style="fill:#4682b4;fill-opacity:0.6;" x="0" xlink:href="#mff66834288" y="342.72"/>
    </g>
   </g>
   <g id="Poly3DCollection_7">
    <defs>
     <path d="M 242.161726 -158.974277 
L 245.772503 -162.423298 
L 259.936438 -150.031031 
L 254.340379 -142.936286 
z
" id="m60c85eee20"/>
    </defs>
    <g clip-path="url(#pd37c871568)">
     <use style="fill:#4682b4;fill-opacity:0.6;" x="0" xlink:href="#m60c85eee20" y="342.72"/>
    </g>
   </g>
   <g id="Poly3DCollection_8">
    <defs>
     <path d="M 249.149938 -166.075 
L 252.267152 -169.869032 
L 269.719923 -165.255934 
L 265.079169 -157.508031 
z
" id="m11bfcf3010"/>
    </defs>
    <g clip-path="url(#pd37c871568)">
     <use style="fill:#4682b4;fill-opacity:0.6;" x="0" xlink:href="#m11bfcf3010" y="342.72"/>
    </g>
   </g>
   <g id="Poly3DCollection_9">
    <defs>
     <path d="M 238.347901 -155.785547 
L 242.161726 -158.974277 
L 254.340379 -142.936286 
L 248.345567 -136.331029 
z
" id="m2c182e22f4"/>
    </defs>
    <g clip-path="url(#pd37c871568)">
     <use style="fill:#4682b4;fill-opacity:0.6;" x="0" xlink:href="#m2c182e22f4" y="342.72"/>
    </g>
   </g>
   <g id="Poly3DCollection_10">
    <defs>
     <path d="M 252.267152 -169.869032 
L 255.100974 -173.74305 
L 273.81629 -173.160234 
L 269.719923 -165.255934 
z
" id="mdcd1e387a4"/>
    </defs>
    <g clip-path="url(#pd37c871568)">
     <use style="fill:#4682b4;fill-opacity:0.6;" x="0" xlink:href="#mdcd1e387a4" y="342.72"/>
    </g>
   </g>
   <g id="Poly3DCollection_11">
    <defs>
     <path d="M 234.364407 -152.911242 
L 238.347901 -155.785547 
L 248.345567 -136.331029 
L 242.012176 -130.317371 
z
" id="m6a941ee3d3"/>
    </defs>
    <g clip-path="url(#pd37c871568)">
     <use style="fill:#4682b4;fill-opacity:0.6;" x="0" xlink:href="#m6a941ee3d3" y="342.72"/>
    </g>
   </g>
   <g id="Poly3DCollection_12">
    <defs>
     <path d="M 255.100974 -173.74305 
L 257.632209 -177.633467 
L 277.332412 -181.104207 
L 273.81629 -173.160234 
z
" id="m597942ef27"/>
    </defs>
    <g clip-path="url(#pd37c871568)">
     <use style="fill:#4682b4;fill-opacity:0.6;" x="0" xlink:href="#m597942ef27" y="342.72"/>
    </g>
   </g>
   <g id="Poly3DCollection_13">
    <defs>
     <path d="M 191.517943 -216.362861 
L 191.12378 -217.987322 
L 206.801363 -248.543204 
L 208.970241 -244.847349 
z
" id="mc098982215"/>
    </defs>
    <g clip-path="url(#pd37c871568)">
     <use style="fill:#4682b4;fill-opacity:0.6;" x="0" xlink:href="#mc098982215" y="342.72"/>
    </g>
   </g>
   <g id="Poly3DCollection_14">
    <defs>
     <path d="M 230.247343 -150.401299 
L 234.364407 -152.911242 
L 242.012176 -130.317371 
L 235.405614 -124.991228 
z
" id="maad3a8702c"/>
    </defs>
    <g clip-path="url(#pd37c871568)">
     <use style="fill:#4682b4;fill-opacity:0.6;" x="0" xlink:href="#maad3a8702c" y="342.72"/>
    </g>
   </g>
   <g id="Poly3DCollection_15">
    <defs>
     <path d="M 257.632209 -177.633467 
L 259.845877 -181.47623 
L 280.23931 -188.969867 
L 277.332412 -181.104207 
z
" id="ma325f919b4"/>
    </defs>
    <g clip-path="url(#pd37c871568)">
     <use style="fill:#4682b4;fill-opacity:0.6;" x="0" xlink:href="#ma325f919b4" y="342.72"/>
    </g>
   </g>
   <g id="Poly3DCollection_16">
    <defs>
     <path d="M 226.035122 -148.300749 
L 230.247343 -150.401299 
L 235.405614 -124.991228 
L 228.596099 -120.441166 
z
" id="m24cc21e5f4"/>
    </defs>
    <g clip-path="url(#pd37c871568)">
     <use style="fill:#4682b4;fill-opacity:0.6;" x="0" xlink:href="#m24cc21e5f4" y="342.72"/>
    </g>
   </g>
   <g id="Poly3DCollection_17">
    <defs>
     <path d="M 259.845877 -181.47623 
L 261.731412 -185.207604 
L 282.515232 -196.638962 
L 280.23931 -188.969867 
z
" id="mae5f884e7a"/>
    </defs>
    <g clip-path="url(#pd37c871568)">
     <use style="fill:#4682b4;fill-opacity:0.6;" x="0" xlink:href="#mae5f884e7a" y="342.72"/>
    </g>
   </g>
   <g id="Poly3DCollection_18">
    <defs>
     <path d="M 191.12378 -217.987322 
L 190.473332 -219.126534 
L 204.102847 -251.294914 
L 206.801363 -248.543204 
z
" id="ma083417709"/>
    </defs>
    <g clip-path="url(#pd37c871568)">
     <use style="fill:#4682b4;fill-opacity:0.6;" x="0" xlink:href="#ma083417709" y="342.72"/>
    </g>
   </g>
   <g id="Poly3DCollection_19">
    <defs>
     <path d="M 221.768027 -146.64903 
L 226.035122 -148.300749 
L 228.596099 -120.441166 
L 221.658159 -116.747156 
z
" id="m3693ea6a46"/>
    </defs>
    <g clip-path="url(#pd37c871568)">
     <use style="fill:#4682b4;fill-opacity:0.6;" x="0" xlink:href="#m3693ea6a46" y="342.72"/>
    </g>
   </g>
   <g id="Poly3DCollection_20">
    <defs>
     <path d="M 261.731412 -185.207604 
L 263.282842 -188.764975 
L 284.146017 -203.994039 
L 282.515232 -196.638962 
z
" id="me988c5884d"/>
    </defs>
    <g clip-path="url(#pd37c871568)">
     <use style="fill:#4682b4;fill-opacity:0.6;" x="0" xlink:href="#me988c5884d" y="342.72"/>
    </g>
   </g>
   <g id="Poly3DCollection_21">
    <defs>
     <path d="M 217.487714 -145.479321 
L 221.768027 -146.64903 
L 221.658159 -116.747156 
L 214.670013 -113.979243 
z
" id="m9f153e2c17"/>
    </defs>
    <g clip-path="url(#pd37c871568)">
     <use style="fill:#4682b4;fill-opacity:0.6;" x="0" xlink:href="#m9f153e2c17" y="342.72"/>
    </g>
   </g>
   <g id="Poly3DCollection_22">
    <defs>
     <path d="M 263.282842 -188.764975 
L 264.498932 -192.087678 
L 285.125481 -210.919618 
L 284.146017 -203.994039 
z
" id="m2f21a846bd"/>
    </defs>
    <g clip-path="url(#pd37c871568)">
     <use style="fill:#4682b4;fill-opacity:0.6;" x="0" xlink:href="#m2f21a846bd" y="342.72"/>
    </g>
   </g>
   <g id="Poly3DCollection_23">
    <defs>
     <path d="M 213.236683 -144.817925 
L 217.487714 -145.479321 
L 214.670013 -113.979243 
L 207.71283 -112.196143 
z
" id="mf6bdf0f58e"/>
    </defs>
    <g clip-path="url(#pd37c871568)">
     <use style="fill:#4682b4;fill-opacity:0.6;" x="0" xlink:href="#mf6bdf0f58e" y="342.72"/>
    </g>
   </g>
   <g id="Poly3DCollection_24">
    <defs>
     <path d="M 190.473332 -219.126534 
L 189.598752 -219.752933 
L 200.933087 -253.037805 
L 204.102847 -251.294914 
z
" id="m81cd9620b6"/>
    </defs>
    <g clip-path="url(#pd37c871568)">
     <use style="fill:#4682b4;fill-opacity:0.6;" x="0" xlink:href="#m81cd9620b6" y="342.72"/>
    </g>
   </g>
   <g id="Poly3DCollection_25">
    <defs>
     <path d="M 264.498932 -192.087678 
L 265.383278 -195.117827 
L 285.455809 -217.303479 
L 285.125481 -210.919618 
z
" id="m74d8ef4d92"/>
    </defs>
    <g clip-path="url(#pd37c871568)">
     <use style="fill:#4682b4;fill-opacity:0.6;" x="0" xlink:href="#m74d8ef4d92" y="342.72"/>
    </g>
   </g>
   <g id="Poly3DCollection_26">
    <defs>
     <path d="M 209.057688 -144.683693 
L 213.236683 -144.817925 
L 207.71283 -112.196143 
L 200.86984 -111.443797 
z
" id="m6d9d1a23b3"/>
    </defs>
    <g clip-path="url(#pd37c871568)">
     <use style="fill:#4682b4;fill-opacity:0.6;" x="0" xlink:href="#m6d9d1a23b3" y="342.72"/>
    </g>
   </g>
   <g id="Poly3DCollection_27">
    <defs>
     <path d="M 204.993113 -145.087527 
L 209.057688 -144.683693 
L 200.86984 -111.443797 
L 194.225265 -111.753922 
z
" id="m0e37927edd"/>
    </defs>
    <g clip-path="url(#pd37c871568)">
     <use style="fill:#4682b4;fill-opacity:0.6;" x="0" xlink:href="#m0e37927edd" y="342.72"/>
    </g>
   </g>
   <g id="Poly3DCollection_28">
    <defs>
     <path d="M 265.383278 -195.117827 
L 265.944371 -197.801172 
L 285.14793 -223.038097 
L 285.455809 -217.303479 
z
" id="m9838387c4b"/>
    </defs>
    <g clip-path="url(#pd37c871568)">
     <use style="fill:#4682b4;fill-opacity:0.6;" x="0" xlink:href="#m9838387c4b" y="342.72"/>
    </g>
   </g>
   <g id="Poly3DCollection_29">
    <defs>
     <path d="M 189.598752 -219.752933 
L 188.536242 -219.846812 
L 197.35984 -253.721598 
L 200.933087 -253.037805 
z
" id="m91c3daac14"/>
    </defs>
    <g clip-path="url(#pd37c871568)">
     <use style="fill:#4682b4;fill-opacity:0.6;" x="0" xlink:href="#m91c3daac14" y="342.72"/>
    </g>
   </g>
   <g id="Poly3DCollection_30">
    <defs>
     <path d="M 201.08431 -146.031969 
L 204.993113 -145.087527 
L 194.225265 -111.753922 
L 187.863099 -113.142616 
z
" id="mad5592f7bb"/>
    </defs>
    <g clip-path="url(#pd37c871568)">
     <use style="fill:#4682b4;fill-opacity:0.6;" x="0" xlink:href="#mad5592f7bb" y="342.72"/>
    </g>
   </g>
   <g id="Poly3DCollection_31">
    <defs>
     <path d="M 265.944371 -197.801172 
L 266.195595 -200.087951 
L 284.221857 -228.022223 
L 285.14793 -223.038097 
z
" id="m2756a7cd06"/>
    </defs>
    <g clip-path="url(#pd37c871568)">
     <use style="fill:#4682b4;fill-opacity:0.6;" x="0" xlink:href="#m2756a7cd06" y="342.72"/>
    </g>
   </g>
   <g id="Poly3DCollection_32">
    <defs>
     <path d="M 319.773892 -144.27133 
L 323.331479 -147.900731 
L 337.144699 -137.534237 
L 331.711242 -130.084446 
z
" id="m87e599c018"/>
    </defs>
    <g clip-path="url(#pd37c871568)">
     <use style="fill:#4682b4;fill-opacity:0.6;" x="0" xlink:href="#m87e599c018" y="342.72"/>
    </g>
   </g>
   <g id="Poly3DCollection_33">
    <defs>
     <path d="M 323.331479 -147.900731 
L 326.662493 -151.700843 
L 342.139632 -145.306594 
L 337.144699 -137.534237 
z
" id="m2c1021fde4"/>
    </defs>
    <g clip-path="url(#pd37c871568)">
     <use style="fill:#4682b4;fill-opacity:0.6;" x="0" xlink:href="#m2c1021fde4" y="342.72"/>
    </g>
   </g>
   <g id="Poly3DCollection_34">
    <defs>
     <path d="M 316.018243 -140.872933 
L 319.773892 -144.27133 
L 331.711242 -130.084446 
L 325.890663 -123.0687 
z
" id="mf5d71199fe"/>
    </defs>
    <g clip-path="url(#pd37c871568)">
     <use style="fill:#4682b4;fill-opacity:0.6;" x="0" xlink:href="#mf5d71199fe" y="342.72"/>
    </g>
   </g>
   <g id="Poly3DCollection_35">
    <defs>
     <path d="M 326.662493 -151.700843 
L 329.74169 -155.609041 
L 346.650207 -153.286496 
L 342.139632 -145.306594 
z
" id="m08bb6fa632"/>
    </defs>
    <g clip-path="url(#pd37c871568)">
     <use style="fill:#4682b4;fill-opacity:0.6;" x="0" xlink:href="#m08bb6fa632" y="342.72"/>
    </g>
   </g>
   <g id="Poly3DCollection_36">
    <defs>
     <path d="M 266.195595 -200.087951 
L 266.155171 -201.93374 
L 282.706962 -232.1626 
L 284.221857 -228.022223 
z
" id="mc4db16f042"/>
    </defs>
    <g clip-path="url(#pd37c871568)">
     <use style="fill:#4682b4;fill-opacity:0.6;" x="0" xlink:href="#mc4db16f042" y="342.72"/>
    </g>
   </g>
   <g id="Poly3DCollection_37">
    <defs>
     <path d="M 312.096004 -137.762752 
L 316.018243 -140.872933 
L 325.890663 -123.0687 
L 319.739624 -116.593961 
z
" id="m77e899f529"/>
    </defs>
    <g clip-path="url(#pd37c871568)">
     <use style="fill:#4682b4;fill-opacity:0.6;" x="0" xlink:href="#m77e899f529" y="342.72"/>
    </g>
   </g>
   <g id="Poly3DCollection_38">
    <defs>
     <path d="M 329.74169 -155.609041 
L 332.547377 -159.561129 
L 350.636464 -161.356329 
L 346.650207 -153.286496 
z
" id="mdb310a50be"/>
    </defs>
    <g clip-path="url(#pd37c871568)">
     <use style="fill:#4682b4;fill-opacity:0.6;" x="0" xlink:href="#mdb310a50be" y="342.72"/>
    </g>
   </g>
   <g id="Poly3DCollection_39">
    <defs>
     <path d="M 188.536242 -219.846812 
L 187.325582 -219.3969 
L 193.459626 -253.312246 
L 197.35984 -253.721598 
z
" id="mdde4ac7592"/>
    </defs>
    <g clip-path="url(#pd37c871568)">
     <use style="fill:#4682b4;fill-opacity:0.6;" x="0" xlink:href="#mdde4ac7592" y="342.72"/>
    </g>
   </g>
   <g id="Poly3DCollection_40">
    <defs>
     <path d="M 308.041263 -134.994181 
L 312.096004 -137.762752 
L 319.739624 -116.593961 
L 313.31971 -110.761627 
z
" id="m9b065ccba1"/>
    </defs>
    <g clip-path="url(#pd37c871568)">
     <use style="fill:#4682b4;fill-opacity:0.6;" x="0" xlink:href="#m9b065ccba1" y="342.72"/>
    </g>
   </g>
   <g id="Poly3DCollection_41">
    <defs>
     <path d="M 197.370908 -147.510898 
L 201.08431 -146.031969 
L 187.863099 -113.142616 
L 181.865701 -115.609087 
z
" id="m4217cbeb34"/>
    </defs>
    <g clip-path="url(#pd37c871568)">
     <use style="fill:#4682b4;fill-opacity:0.6;" x="0" xlink:href="#m4217cbeb34" y="342.72"/>
    </g>
   </g>
   <g id="Poly3DCollection_42">
    <defs>
     <path d="M 332.547377 -159.561129 
L 335.061662 -163.492115 
L 354.064636 -169.396825 
L 350.636464 -161.356329 
z
" id="ma5bb176f41"/>
    </defs>
    <g clip-path="url(#pd37c871568)">
     <use style="fill:#4682b4;fill-opacity:0.6;" x="0" xlink:href="#ma5bb176f41" y="342.72"/>
    </g>
   </g>
   <g id="Poly3DCollection_43">
    <defs>
     <path d="M 303.890354 -132.616059 
L 308.041263 -134.994181 
L 313.31971 -110.761627 
L 306.697046 -105.66641 
z
" id="mf7a10997f7"/>
    </defs>
    <g clip-path="url(#pd37c871568)">
     <use style="fill:#4682b4;fill-opacity:0.6;" x="0" xlink:href="#mf7a10997f7" y="342.72"/>
    </g>
   </g>
   <g id="Poly3DCollection_44">
    <defs>
     <path d="M 266.155171 -201.93374 
L 265.846033 -203.30028 
L 280.64215 -235.375802 
L 282.706962 -232.1626 
z
" id="md80098c3ee"/>
    </defs>
    <g clip-path="url(#pd37c871568)">
     <use style="fill:#4682b4;fill-opacity:0.6;" x="0" xlink:href="#md80098c3ee" y="342.72"/>
    </g>
   </g>
   <g id="Poly3DCollection_45">
    <defs>
     <path d="M 335.061662 -163.492115 
L 337.270679 -167.336993 
L 356.907479 -177.288031 
L 354.064636 -169.396825 
z
" id="mcceff7ea84"/>
    </defs>
    <g clip-path="url(#pd37c871568)">
     <use style="fill:#4682b4;fill-opacity:0.6;" x="0" xlink:href="#mcceff7ea84" y="342.72"/>
    </g>
   </g>
   <g id="Poly3DCollection_46">
    <defs>
     <path d="M 299.681439 -130.671962 
L 303.890354 -132.616059 
L 306.697046 -105.66641 
L 299.941851 -101.395125 
z
" id="ma8bee2a46e"/>
    </defs>
    <g clip-path="url(#pd37c871568)">
     <use style="fill:#4682b4;fill-opacity:0.6;" x="0" xlink:href="#ma8bee2a46e" y="342.72"/>
    </g>
   </g>
   <g id="Poly3DCollection_47">
    <defs>
     <path d="M 337.270679 -167.336993 
L 339.164795 -171.031553 
L 359.144632 -184.910338 
L 356.907479 -177.288031 
z
" id="m0299e35f0d"/>
    </defs>
    <g clip-path="url(#pd37c871568)">
     <use style="fill:#4682b4;fill-opacity:0.6;" x="0" xlink:href="#m0299e35f0d" y="342.72"/>
    </g>
   </g>
   <g id="Poly3DCollection_48">
    <defs>
     <path d="M 187.325582 -219.3969 
L 186.009567 -218.400828 
L 189.316861 -251.7936 
L 193.459626 -253.312246 
z
" id="m6e1369683c"/>
    </defs>
    <g clip-path="url(#pd37c871568)">
     <use style="fill:#4682b4;fill-opacity:0.6;" x="0" xlink:href="#m6e1369683c" y="342.72"/>
    </g>
   </g>
   <g id="Poly3DCollection_49">
    <defs>
     <path d="M 295.454055 -129.199506 
L 299.681439 -130.671962 
L 299.941851 -101.395125 
L 293.127894 -98.02537 
z
" id="mf6b22aaa92"/>
    </defs>
    <g clip-path="url(#pd37c871568)">
     <use style="fill:#4682b4;fill-opacity:0.6;" x="0" xlink:href="#mf6b22aaa92" y="342.72"/>
    </g>
   </g>
   <g id="Poly3DCollection_50">
    <defs>
     <path d="M 265.846033 -203.30028 
L 265.295619 -204.156267 
L 278.075887 -237.590167 
L 280.64215 -235.375802 
z
" id="m31e9928394"/>
    </defs>
    <g clip-path="url(#pd37c871568)">
     <use style="fill:#4682b4;fill-opacity:0.6;" x="0" xlink:href="#m31e9928394" y="342.72"/>
    </g>
   </g>
   <g id="Poly3DCollection_51">
    <defs>
     <path d="M 193.890104 -149.509362 
L 197.370908 -147.510898 
L 181.865701 -115.609087 
L 176.312252 -119.134577 
z
" id="mbceb101c0a"/>
    </defs>
    <g clip-path="url(#pd37c871568)">
     <use style="fill:#4682b4;fill-opacity:0.6;" x="0" xlink:href="#mbceb101c0a" y="342.72"/>
    </g>
   </g>
   <g id="Poly3DCollection_52">
    <defs>
     <path d="M 291.248616 -128.229685 
L 295.454055 -129.199506 
L 293.127894 -98.02537 
L 286.331837 -95.624129 
z
" id="mffd272b0c2"/>
    </defs>
    <g clip-path="url(#pd37c871568)">
     <use style="fill:#4682b4;fill-opacity:0.6;" x="0" xlink:href="#mffd272b0c2" y="342.72"/>
    </g>
   </g>
   <g id="Poly3DCollection_53">
    <defs>
     <path d="M 287.105875 -127.786253 
L 291.248616 -128.229685 
L 286.331837 -95.624129 
L 279.632438 -94.2463 
z
" id="m85a46b5a2f"/>
    </defs>
    <g clip-path="url(#pd37c871568)">
     <use style="fill:#4682b4;fill-opacity:0.6;" x="0" xlink:href="#m85a46b5a2f" y="342.72"/>
    </g>
   </g>
   <g id="Poly3DCollection_54">
    <defs>
     <path d="M 190.675952 -152.003553 
L 193.890104 -149.509362 
L 176.312252 -119.134577 
L 171.277073 -123.681578 
z
" id="ma4c32bcdc9"/>
    </defs>
    <g clip-path="url(#pd37c871568)">
     <use style="fill:#4682b4;fill-opacity:0.6;" x="0" xlink:href="#ma4c32bcdc9" y="342.72"/>
    </g>
   </g>
   <g id="Poly3DCollection_55">
    <defs>
     <path d="M 186.009567 -218.400828 
L 184.633348 -216.865449 
L 185.022681 -249.16882 
L 189.316861 -251.7936 
z
" id="m3908a51612"/>
    </defs>
    <g clip-path="url(#pd37c871568)">
     <use style="fill:#4682b4;fill-opacity:0.6;" x="0" xlink:href="#m3908a51612" y="342.72"/>
    </g>
   </g>
   <g id="Poly3DCollection_56">
    <defs>
     <path d="M 265.295619 -204.156267 
L 264.535586 -204.478083 
L 275.066049 -238.74775 
L 278.075887 -237.590167 
z
" id="m26c0345b91"/>
    </defs>
    <g clip-path="url(#pd37c871568)">
     <use style="fill:#4682b4;fill-opacity:0.6;" x="0" xlink:href="#m26c0345b91" y="342.72"/>
    </g>
   </g>
   <g id="Poly3DCollection_57">
    <defs>
     <path d="M 283.066341 -127.88516 
L 287.105875 -127.786253 
L 279.632438 -94.2463 
L 273.109609 -93.933192 
z
" id="m2012792801"/>
    </defs>
    <g clip-path="url(#pd37c871568)">
     <use style="fill:#4682b4;fill-opacity:0.6;" x="0" xlink:href="#m2012792801" y="342.72"/>
    </g>
   </g>
   <g id="Poly3DCollection_58">
    <defs>
     <path d="M 279.169663 -128.534077 
L 283.066341 -127.88516 
L 273.109609 -93.933192 
L 266.843304 -94.711037 
z
" id="m1afbafc449"/>
    </defs>
    <g clip-path="url(#pd37c871568)">
     <use style="fill:#4682b4;fill-opacity:0.6;" x="0" xlink:href="#m1afbafc449" y="342.72"/>
    </g>
   </g>
   <g id="Poly3DCollection_59">
    <defs>
     <path d="M 187.758667 -154.960965 
L 190.675952 -152.003553 
L 171.277073 -123.681578 
L 166.827878 -129.193417 
z
" id="mfc596cc569"/>
    </defs>
    <g clip-path="url(#pd37c871568)">
     <use style="fill:#4682b4;fill-opacity:0.6;" x="0" xlink:href="#mfc596cc569" y="342.72"/>
    </g>
   </g>
   <g id="Poly3DCollection_60">
    <defs>
     <path d="M 184.633348 -216.865449 
L 183.24369 -214.806976 
L 180.673469 -245.461421 
L 185.022681 -249.16882 
z
" id="m97c5e0069e"/>
    </defs>
    <g clip-path="url(#pd37c871568)">
     <use style="fill:#4682b4;fill-opacity:0.6;" x="0" xlink:href="#m97c5e0069e" y="342.72"/>
    </g>
   </g>
   <g id="Poly3DCollection_61">
    <defs>
     <path d="M 264.535586 -204.478083 
L 263.601427 -204.250435 
L 271.67955 -238.806252 
L 275.066049 -238.74775 
z
" id="maa70571a71"/>
    </defs>
    <g clip-path="url(#pd37c871568)">
     <use style="fill:#4682b4;fill-opacity:0.6;" x="0" xlink:href="#maa70571a71" y="342.72"/>
    </g>
   </g>
   <g id="Poly3DCollection_62">
    <defs>
     <path d="M 275.453979 -129.732009 
L 279.169663 -128.534077 
L 266.843304 -94.711037 
L 260.912244 -96.589584 
z
" id="mdccd29edbb"/>
    </defs>
    <g clip-path="url(#pd37c871568)">
     <use style="fill:#4682b4;fill-opacity:0.6;" x="0" xlink:href="#mdccd29edbb" y="342.72"/>
    </g>
   </g>
   <g id="Poly3DCollection_63">
    <defs>
     <path d="M 185.163968 -158.34072 
L 187.758667 -154.960965 
L 166.827878 -129.193417 
L 163.023994 -135.5943 
z
" id="m73a2f5a0e6"/>
    </defs>
    <g clip-path="url(#pd37c871568)">
     <use style="fill:#4682b4;fill-opacity:0.6;" x="0" xlink:href="#m73a2f5a0e6" y="342.72"/>
    </g>
   </g>
   <g id="Poly3DCollection_64">
    <defs>
     <path d="M 183.24369 -214.806976 
L 181.888164 -212.25095 
L 176.369097 -240.715849 
L 180.673469 -245.461421 
z
" id="m598ffecc8e"/>
    </defs>
    <g clip-path="url(#pd37c871568)">
     <use style="fill:#4682b4;fill-opacity:0.6;" x="0" xlink:href="#m598ffecc8e" y="342.72"/>
    </g>
   </g>
   <g id="Poly3DCollection_65">
    <defs>
     <path d="M 182.912471 -162.094099 
L 185.163968 -158.34072 
L 163.023994 -135.5943 
L 159.914639 -142.789884 
z
" id="mb7c187a685"/>
    </defs>
    <g clip-path="url(#pd37c871568)">
     <use style="fill:#4682b4;fill-opacity:0.6;" x="0" xlink:href="#mb7c187a685" y="342.72"/>
    </g>
   </g>
   <g id="Poly3DCollection_66">
    <defs>
     <path d="M 263.601427 -204.250435 
L 262.532004 -203.466896 
L 267.991713 -237.740827 
L 271.67955 -238.806252 
z
" id="mb2707ed760"/>
    </defs>
    <g clip-path="url(#pd37c871568)">
     <use style="fill:#4682b4;fill-opacity:0.6;" x="0" xlink:href="#mb2707ed760" y="342.72"/>
    </g>
   </g>
   <g id="Poly3DCollection_67">
    <defs>
     <path d="M 271.955254 -131.469037 
L 275.453979 -129.732009 
L 260.912244 -96.589584 
L 255.392497 -99.560843 
z
" id="m0e429db4e8"/>
    </defs>
    <g clip-path="url(#pd37c871568)">
     <use style="fill:#4682b4;fill-opacity:0.6;" x="0" xlink:href="#m0e429db4e8" y="342.72"/>
    </g>
   </g>
   <g id="Poly3DCollection_68">
    <defs>
     <path d="M 181.888164 -212.25095 
L 180.614275 -209.23198 
L 172.210908 -234.99752 
L 176.369097 -240.715849 
z
" id="m0d027d2070"/>
    </defs>
    <g clip-path="url(#pd37c871568)">
     <use style="fill:#4682b4;fill-opacity:0.6;" x="0" xlink:href="#m0d027d2070" y="342.72"/>
    </g>
   </g>
   <g id="Poly3DCollection_69">
    <defs>
     <path d="M 181.019168 -166.165261 
L 182.912471 -162.094099 
L 159.914639 -142.789884 
L 157.537321 -150.66842 
z
" id="m3a150587b8"/>
    </defs>
    <g clip-path="url(#pd37c871568)">
     <use style="fill:#4682b4;fill-opacity:0.6;" x="0" xlink:href="#m3a150587b8" y="342.72"/>
    </g>
   </g>
   <g id="Poly3DCollection_70">
    <defs>
     <path d="M 180.614275 -209.23198 
L 179.46856 -205.793285 
L 168.299508 -228.392233 
L 172.210908 -234.99752 
z
" id="mb730c34003"/>
    </defs>
    <g clip-path="url(#pd37c871568)">
     <use style="fill:#4682b4;fill-opacity:0.6;" x="0" xlink:href="#mb730c34003" y="342.72"/>
    </g>
   </g>
   <g id="Poly3DCollection_71">
    <defs>
     <path d="M 268.7066 -133.7262 
L 271.955254 -131.469037 
L 255.392497 -99.560843 
L 250.355919 -103.598081 
z
" id="m8cd46d42f5"/>
    </defs>
    <g clip-path="url(#pd37c871568)">
     <use style="fill:#4682b4;fill-opacity:0.6;" x="0" xlink:href="#m8cd46d42f5" y="342.72"/>
    </g>
   </g>
   <g id="Poly3DCollection_72">
    <defs>
     <path d="M 262.532004 -203.466896 
L 261.368979 -202.130295 
L 264.085359 -235.545668 
L 267.991713 -237.740827 
z
" id="m833dcb6b15"/>
    </defs>
    <g clip-path="url(#pd37c871568)">
     <use style="fill:#4682b4;fill-opacity:0.6;" x="0" xlink:href="#m833dcb6b15" y="342.72"/>
    </g>
   </g>
   <g id="Poly3DCollection_73">
    <defs>
     <path d="M 179.493001 -170.492152 
L 181.019168 -166.165261 
L 157.537321 -150.66842 
L 155.916454 -159.102501 
z
" id="mf246f10442"/>
    </defs>
    <g clip-path="url(#pd37c871568)">
     <use style="fill:#4682b4;fill-opacity:0.6;" x="0" xlink:href="#mf246f10442" y="342.72"/>
    </g>
   </g>
   <g id="Poly3DCollection_74">
    <defs>
     <path d="M 179.46856 -205.793285 
L 178.49567 -201.986018 
L 164.732427 -221.004935 
L 168.299508 -228.392233 
z
" id="md87f9d35ca"/>
    </defs>
    <g clip-path="url(#pd37c871568)">
     <use style="fill:#4682b4;fill-opacity:0.6;" x="0" xlink:href="#md87f9d35ca" y="342.72"/>
    </g>
   </g>
   <g id="Poly3DCollection_75">
    <defs>
     <path d="M 178.33656 -175.007595 
L 179.493001 -170.492152 
L 155.916454 -159.102501 
L 155.062262 -167.951402 
z
" id="m8de1bfff80"/>
    </defs>
    <g clip-path="url(#pd37c871568)">
     <use style="fill:#4682b4;fill-opacity:0.6;" x="0" xlink:href="#m8de1bfff80" y="342.72"/>
    </g>
   </g>
   <g id="Poly3DCollection_76">
    <defs>
     <path d="M 178.49567 -201.986018 
L 177.737477 -197.868379 
L 161.601744 -212.957828 
L 164.732427 -221.004935 
z
" id="m9ba3b3efb1"/>
    </defs>
    <g clip-path="url(#pd37c871568)">
     <use style="fill:#4682b4;fill-opacity:0.6;" x="0" xlink:href="#m9ba3b3efb1" y="342.72"/>
    </g>
   </g>
   <g id="Poly3DCollection_77">
    <defs>
     <path d="M 177.545911 -179.640524 
L 178.33656 -175.007595 
L 155.062262 -167.951402 
L 154.970058 -177.063962 
z
" id="me473e9b864"/>
    </defs>
    <g clip-path="url(#pd37c871568)">
     <use style="fill:#4682b4;fill-opacity:0.6;" x="0" xlink:href="#me473e9b864" y="342.72"/>
    </g>
   </g>
   <g id="Poly3DCollection_78">
    <defs>
     <path d="M 177.737477 -197.868379 
L 177.232213 -193.504546 
L 158.991783 -204.387849 
L 161.601744 -212.957828 
z
" id="m96a5e48494"/>
    </defs>
    <g clip-path="url(#pd37c871568)">
     <use style="fill:#4682b4;fill-opacity:0.6;" x="0" xlink:href="#m96a5e48494" y="342.72"/>
    </g>
   </g>
   <g id="Poly3DCollection_79">
    <defs>
     <path d="M 265.737611 -136.475537 
L 268.7066 -133.7262 
L 250.355919 -103.598081 
L 245.868508 -108.655137 
z
" id="m262d6d4ec9"/>
    </defs>
    <g clip-path="url(#pd37c871568)">
     <use style="fill:#4682b4;fill-opacity:0.6;" x="0" xlink:href="#m262d6d4ec9" y="342.72"/>
    </g>
   </g>
   <g id="Poly3DCollection_80">
    <defs>
     <path d="M 177.11058 -184.317357 
L 177.545911 -179.640524 
L 154.970058 -177.063962 
L 155.619941 -186.281921 
z
" id="mfd773bcc7c"/>
    </defs>
    <g clip-path="url(#pd37c871568)">
     <use style="fill:#4682b4;fill-opacity:0.6;" x="0" xlink:href="#mfd773bcc7c" y="342.72"/>
    </g>
   </g>
   <g id="Poly3DCollection_81">
    <defs>
     <path d="M 261.368979 -202.130295 
L 260.15616 -200.252956 
L 260.049596 -232.235273 
L 264.085359 -235.545668 
z
" id="mc77dac968b"/>
    </defs>
    <g clip-path="url(#pd37c871568)">
     <use style="fill:#4682b4;fill-opacity:0.6;" x="0" xlink:href="#mc77dac968b" y="342.72"/>
    </g>
   </g>
   <g id="Poly3DCollection_82">
    <defs>
     <path d="M 177.232213 -193.504546 
L 177.013683 -188.963439 
L 156.976966 -195.443614 
L 158.991783 -204.387849 
z
" id="m17c0db1304"/>
    </defs>
    <g clip-path="url(#pd37c871568)">
     <use style="fill:#4682b4;fill-opacity:0.6;" x="0" xlink:href="#m17c0db1304" y="342.72"/>
    </g>
   </g>
   <g id="Poly3DCollection_83">
    <defs>
     <path d="M 177.013683 -188.963439 
L 177.11058 -184.317357 
L 155.619941 -186.281921 
L 156.976966 -195.443614 
z
" id="ma5091fa3ef"/>
    </defs>
    <g clip-path="url(#pd37c871568)">
     <use style="fill:#4682b4;fill-opacity:0.6;" x="0" xlink:href="#ma5091fa3ef" y="342.72"/>
    </g>
   </g>
   <g id="Poly3DCollection_84">
    <defs>
     <path d="M 263.073729 -139.680321 
L 265.737611 -136.475537 
L 245.868508 -108.655137 
L 241.988711 -114.666172 
z
" id="ma8ff141e16"/>
    </defs>
    <g clip-path="url(#pd37c871568)">
     <use style="fill:#4682b4;fill-opacity:0.6;" x="0" xlink:href="#ma8ff141e16" y="342.72"/>
    </g>
   </g>
   <g id="Poly3DCollection_85">
    <defs>
     <path d="M 260.15616 -200.252956 
L 258.938774 -197.856744 
L 255.978317 -227.845293 
L 260.049596 -232.235273 
z
" id="m0dddcdd064"/>
    </defs>
    <g clip-path="url(#pd37c871568)">
     <use style="fill:#4682b4;fill-opacity:0.6;" x="0" xlink:href="#m0dddcdd064" y="342.72"/>
    </g>
   </g>
   <g id="Poly3DCollection_86">
    <defs>
     <path d="M 260.735649 -143.295468 
L 263.073729 -139.680321 
L 241.988711 -114.666172 
L 238.765756 -121.545913 
z
" id="mc861da7c36"/>
    </defs>
    <g clip-path="url(#pd37c871568)">
     <use style="fill:#4682b4;fill-opacity:0.6;" x="0" xlink:href="#mc861da7c36" y="342.72"/>
    </g>
   </g>
   <g id="Poly3DCollection_87">
    <defs>
     <path d="M 258.938774 -197.856744 
L 257.762658 -194.972912 
L 251.968416 -222.432845 
L 255.978317 -227.845293 
z
" id="m12ee930a86"/>
    </defs>
    <g clip-path="url(#pd37c871568)">
     <use style="fill:#4682b4;fill-opacity:0.6;" x="0" xlink:href="#m12ee930a86" y="342.72"/>
    </g>
   </g>
   <g id="Poly3DCollection_88">
    <defs>
     <path d="M 258.7388 -147.268169 
L 260.735649 -143.295468 
L 238.765756 -121.545913 
L 236.238078 -129.19048 
z
" id="m29ba9ab37f"/>
    </defs>
    <g clip-path="url(#pd37c871568)">
     <use style="fill:#4682b4;fill-opacity:0.6;" x="0" xlink:href="#m29ba9ab37f" y="342.72"/>
    </g>
   </g>
   <g id="Poly3DCollection_89">
    <defs>
     <path d="M 257.762658 -194.972912 
L 256.673414 -191.641728 
L 248.117768 -216.076229 
L 251.968416 -222.432845 
z
" id="m8aa3524525"/>
    </defs>
    <g clip-path="url(#pd37c871568)">
     <use style="fill:#4682b4;fill-opacity:0.6;" x="0" xlink:href="#m8aa3524525" y="342.72"/>
    </g>
   </g>
   <g id="Poly3DCollection_90">
    <defs>
     <path d="M 257.092912 -151.538697 
L 258.7388 -147.268169 
L 236.238078 -129.19048 
L 234.431918 -137.478812 
z
" id="mcb2d51d7b1"/>
    </defs>
    <g clip-path="url(#pd37c871568)">
     <use style="fill:#4682b4;fill-opacity:0.6;" x="0" xlink:href="#mcb2d51d7b1" y="342.72"/>
    </g>
   </g>
   <g id="Poly3DCollection_91">
    <defs>
     <path d="M 256.673414 -191.641728 
L 255.71553 -187.911884 
L 244.523038 -208.87398 
L 248.117768 -216.076229 
z
" id="md041cbb3dc"/>
    </defs>
    <g clip-path="url(#pd37c871568)">
     <use style="fill:#4682b4;fill-opacity:0.6;" x="0" xlink:href="#md041cbb3dc" y="342.72"/>
    </g>
   </g>
   <g id="Poly3DCollection_92">
    <defs>
     <path d="M 255.801692 -156.041427 
L 257.092912 -151.538697 
L 234.431918 -137.478812 
L 233.360182 -146.274723 
z
" id="mc336a4430a"/>
    </defs>
    <g clip-path="url(#pd37c871568)">
     <use style="fill:#4682b4;fill-opacity:0.6;" x="0" xlink:href="#mc336a4430a" y="342.72"/>
    </g>
   </g>
   <g id="Poly3DCollection_93">
    <defs>
     <path d="M 255.71553 -187.911884 
L 254.931494 -183.839688 
L 241.277383 -200.943246 
L 244.523038 -208.87398 
z
" id="mabab60ec0d"/>
    </defs>
    <g clip-path="url(#pd37c871568)">
     <use style="fill:#4682b4;fill-opacity:0.6;" x="0" xlink:href="#mabab60ec0d" y="342.72"/>
    </g>
   </g>
   <g id="Poly3DCollection_94">
    <defs>
     <path d="M 254.862629 -160.706014 
L 255.801692 -156.041427 
L 233.360182 -146.274723 
L 233.021624 -155.429557 
z
" id="m8ba5ea9d0d"/>
    </defs>
    <g clip-path="url(#pd37c871568)">
     <use style="fill:#4682b4;fill-opacity:0.6;" x="0" xlink:href="#m8ba5ea9d0d" y="342.72"/>
    </g>
   </g>
   <g id="Poly3DCollection_95">
    <defs>
     <path d="M 254.931494 -183.839688 
L 254.360931 -179.488056 
L 238.468152 -192.417495 
L 241.277383 -200.943246 
z
" id="m18f94b9af9"/>
    </defs>
    <g clip-path="url(#pd37c871568)">
     <use style="fill:#4682b4;fill-opacity:0.6;" x="0" xlink:href="#m18f94b9af9" y="342.72"/>
    </g>
   </g>
   <g id="Poly3DCollection_96">
    <defs>
     <path d="M 254.266935 -165.458721 
L 254.862629 -160.706014 
L 233.021624 -155.429557 
L 233.400434 -164.785367 
z
" id="m5d7a01e80d"/>
    </defs>
    <g clip-path="url(#pd37c871568)">
     <use style="fill:#4682b4;fill-opacity:0.6;" x="0" xlink:href="#m5d7a01e80d" y="342.72"/>
    </g>
   </g>
   <g id="Poly3DCollection_97">
    <defs>
     <path d="M 254.360931 -179.488056 
L 254.039797 -174.925314 
L 236.174677 -183.443617 
L 238.468152 -192.417495 
z
" id="m127c03d94e"/>
    </defs>
    <g clip-path="url(#pd37c871568)">
     <use style="fill:#4682b4;fill-opacity:0.6;" x="0" xlink:href="#m127c03d94e" y="342.72"/>
    </g>
   </g>
   <g id="Poly3DCollection_98">
    <defs>
     <path d="M 254.039797 -174.925314 
L 253.999633 -170.223862 
L 234.466257 -174.178523 
L 236.174677 -183.443617 
z
" id="m8e853fbb95"/>
    </defs>
    <g clip-path="url(#pd37c871568)">
     <use style="fill:#4682b4;fill-opacity:0.6;" x="0" xlink:href="#m8e853fbb95" y="342.72"/>
    </g>
   </g>
   <g id="Poly3DCollection_99">
    <defs>
     <path d="M 253.999633 -170.223862 
L 254.266935 -165.458721 
L 233.400434 -164.785367 
L 234.466257 -174.178523 
z
" id="m7745300de2"/>
    </defs>
    <g clip-path="url(#pd37c871568)">
     <use style="fill:#4682b4;fill-opacity:0.6;" x="0" xlink:href="#m7745300de2" y="342.72"/>
    </g>
   </g>
  </g>
 </g>
 <defs>
  <clipPath id="pd37c871568">
   <rect height="263.8944" width="357.12" x="57.6" y="41.1264"/>
  </clipPath>
 </defs>
</svg>
