<?xml version="1.0" encoding="utf-8" standalone="no"?>
<!DOCTYPE svg PUBLIC "-//W3C//DTD SVG 1.1//EN"
  "http://www.w3.org/Graphics/SVG/1.1/DTD/svg11.dtd">
<!-- Created with matplotlib (https://matplotlib.org/) -->
<svg height="345.6pt" version="1.1" viewBox="0 0 460.8 345.6" width="460.8pt" xmlns="http://www.w3.org/2000/svg" xmlns:xlink="http://www.w3.org/1999/xlink">
 <metadata>
  <rdf:RDF xmlns:cc="http://creativecommons.org/ns#" xmlns:dc="http://purl.org/dc/elements/1.1/" xmlns:rdf="http://www.w3.org/1999/02/22-rdf-syntax-ns#">
   <cc:Work>
    <dc:type rdf:resource="http://purl.org/dc/dcmitype/StillImage"/>
    <dc:date>2020-10-25T10:50:41.425470</dc:date>
    <dc:format>image/svg+xml</dc:format>
    <dc:creator>
     <cc:Agent>
      <dc:title>Matplotlib v3.3.1, https://matplotlib.org/</dc:title>
     </cc:Agent>
    </dc:creator>
   </cc:Work>
  </rdf:RDF>
 </metadata>
 <defs>
  <style type="text/css">*{stroke-linecap:butt;stroke-linejoin:round;}</style>
 </defs>
 <g id="figure_1">
  <g id="patch_1">
   <path d="M 0 345.6 
L 460.8 345.6 
L 460.8 0 
L 0 0 
z
" style="fill:#ffffff;"/>
  </g>
  <g id="patch_2">
   <path d="M 72.862723 325.874553 
L 387.937277 325.874553 
L 387.937277 10.8 
L 72.862723 10.8 
z
" style="fill:#ffffff;"/>
  </g>
  <g id="pane3d_1">
   <g id="patch_3">
    <path d="M 95.075431 247.513884 
L 203.428463 182.465878 
L 202.470171 49.415391 
L 90.371522 103.58611 
" style="fill:#f2f2f2;opacity:0.5;stroke:#f2f2f2;stroke-linejoin:miter;"/>
   </g>
  </g>
  <g id="pane3d_2">
   <g id="patch_4">
    <path d="M 203.428463 182.465878 
L 369.20801 220.491004 
L 373.573568 81.043554 
L 202.470171 49.415391 
" style="fill:#e6e6e6;opacity:0.5;stroke:#e6e6e6;stroke-linejoin:miter;"/>
   </g>
  </g>
  <g id="pane3d_3">
   <g id="patch_5">
    <path d="M 95.075431 247.513884 
L 270.945856 293.351128 
L 369.20801 220.491004 
L 203.428463 182.465878 
" style="fill:#ececec;opacity:0.5;stroke:#ececec;stroke-linejoin:miter;"/>
   </g>
  </g>
  <g id="axis3d_1">
   <g id="line2d_1">
    <path d="M 95.075431 247.513884 
L 270.945856 293.351128 
" style="fill:none;stroke:#000000;stroke-linecap:square;stroke-width:0.8;"/>
   </g>
   <g id="Line3DCollection_1">
    <path d="M 98.393966 248.378797 
L 206.572877 183.187117 
L 205.710137 50.014293 
" style="fill:none;stroke:#b0b0b0;stroke-width:0.8;"/>
    <path d="M 118.467122 253.610479 
L 225.57939 187.546672 
L 225.298683 53.635201 
" style="fill:none;stroke:#b0b0b0;stroke-width:0.8;"/>
    <path d="M 138.822123 258.915618 
L 244.829292 191.962054 
L 245.145877 57.30392 
" style="fill:none;stroke:#b0b0b0;stroke-width:0.8;"/>
    <path d="M 159.464947 264.295773 
L 264.327288 196.434341 
L 265.256878 61.021403 
" style="fill:none;stroke:#b0b0b0;stroke-width:0.8;"/>
    <path d="M 180.401743 269.752546 
L 284.078204 200.964641 
L 285.636979 64.788629 
" style="fill:none;stroke:#b0b0b0;stroke-width:0.8;"/>
    <path d="M 201.638835 275.287586 
L 304.086995 205.55409 
L 306.291618 68.606603 
" style="fill:none;stroke:#b0b0b0;stroke-width:0.8;"/>
    <path d="M 223.18273 280.902588 
L 324.358743 210.203855 
L 327.22638 72.476357 
" style="fill:none;stroke:#b0b0b0;stroke-width:0.8;"/>
    <path d="M 245.040125 286.599297 
L 344.898667 214.915131 
L 348.447004 76.398952 
" style="fill:none;stroke:#b0b0b0;stroke-width:0.8;"/>
    <path d="M 267.217913 292.379511 
L 365.712123 219.689147 
L 369.959383 80.375478 
" style="fill:none;stroke:#b0b0b0;stroke-width:0.8;"/>
   </g>
   <g id="xtick_1">
    <g id="line2d_2">
     <path d="M 99.341011 247.808081 
L 96.495546 249.522838 
" style="fill:none;stroke:#000000;stroke-linecap:square;stroke-width:0.8;"/>
    </g>
    <g id="text_1">
     <!-- −10.0 -->
     <g transform="translate(75.045571 270.812106)scale(0.1 -0.1)">
      <defs>
       <path d="M 10.59375 35.5 
L 73.1875 35.5 
L 73.1875 27.203125 
L 10.59375 27.203125 
z
" id="DejaVuSans-8722"/>
       <path d="M 12.40625 8.296875 
L 28.515625 8.296875 
L 28.515625 63.921875 
L 10.984375 60.40625 
L 10.984375 69.390625 
L 28.421875 72.90625 
L 38.28125 72.90625 
L 38.28125 8.296875 
L 54.390625 8.296875 
L 54.390625 0 
L 12.40625 0 
z
" id="DejaVuSans-49"/>
       <path d="M 31.78125 66.40625 
Q 24.171875 66.40625 20.328125 58.90625 
Q 16.5 51.421875 16.5 36.375 
Q 16.5 21.390625 20.328125 13.890625 
Q 24.171875 6.390625 31.78125 6.390625 
Q 39.453125 6.390625 43.28125 13.890625 
Q 47.125 21.390625 47.125 36.375 
Q 47.125 51.421875 43.28125 58.90625 
Q 39.453125 66.40625 31.78125 66.40625 
z
M 31.78125 74.21875 
Q 44.046875 74.21875 50.515625 64.515625 
Q 56.984375 54.828125 56.984375 36.375 
Q 56.984375 17.96875 50.515625 8.265625 
Q 44.046875 -1.421875 31.78125 -1.421875 
Q 19.53125 -1.421875 13.0625 8.265625 
Q 6.59375 17.96875 6.59375 36.375 
Q 6.59375 54.828125 13.0625 64.515625 
Q 19.53125 74.21875 31.78125 74.21875 
z
" id="DejaVuSans-48"/>
       <path d="M 10.6875 12.40625 
L 21 12.40625 
L 21 0 
L 10.6875 0 
z
" id="DejaVuSans-46"/>
      </defs>
      <use xlink:href="#DejaVuSans-8722"/>
      <use x="83.789062" xlink:href="#DejaVuSans-49"/>
      <use x="147.412109" xlink:href="#DejaVuSans-48"/>
      <use x="211.035156" xlink:href="#DejaVuSans-46"/>
      <use x="242.822266" xlink:href="#DejaVuSans-48"/>
     </g>
    </g>
   </g>
   <g id="xtick_2">
    <g id="line2d_3">
     <path d="M 119.405392 253.031781 
L 116.586262 254.77054 
" style="fill:none;stroke:#000000;stroke-linecap:square;stroke-width:0.8;"/>
    </g>
    <g id="text_2">
     <!-- −7.5 -->
     <g transform="translate(98.332698 276.170843)scale(0.1 -0.1)">
      <defs>
       <path d="M 8.203125 72.90625 
L 55.078125 72.90625 
L 55.078125 68.703125 
L 28.609375 0 
L 18.3125 0 
L 43.21875 64.59375 
L 8.203125 64.59375 
z
" id="DejaVuSans-55"/>
       <path d="M 10.796875 72.90625 
L 49.515625 72.90625 
L 49.515625 64.59375 
L 19.828125 64.59375 
L 19.828125 46.734375 
Q 21.96875 47.46875 24.109375 47.828125 
Q 26.265625 48.1875 28.421875 48.1875 
Q 40.625 48.1875 47.75 41.5 
Q 54.890625 34.8125 54.890625 23.390625 
Q 54.890625 11.625 47.5625 5.09375 
Q 40.234375 -1.421875 26.90625 -1.421875 
Q 22.3125 -1.421875 17.546875 -0.640625 
Q 12.796875 0.140625 7.71875 1.703125 
L 7.71875 11.625 
Q 12.109375 9.234375 16.796875 8.0625 
Q 21.484375 6.890625 26.703125 6.890625 
Q 35.15625 6.890625 40.078125 11.328125 
Q 45.015625 15.765625 45.015625 23.390625 
Q 45.015625 31 40.078125 35.4375 
Q 35.15625 39.890625 26.703125 39.890625 
Q 22.75 39.890625 18.8125 39.015625 
Q 14.890625 38.140625 10.796875 36.28125 
z
" id="DejaVuSans-53"/>
      </defs>
      <use xlink:href="#DejaVuSans-8722"/>
      <use x="83.789062" xlink:href="#DejaVuSans-55"/>
      <use x="147.412109" xlink:href="#DejaVuSans-46"/>
      <use x="179.199219" xlink:href="#DejaVuSans-53"/>
     </g>
    </g>
   </g>
   <g id="xtick_3">
    <g id="line2d_4">
     <path d="M 139.751277 258.32877 
L 136.959506 260.092037 
" style="fill:none;stroke:#000000;stroke-linecap:square;stroke-width:0.8;"/>
    </g>
    <g id="text_3">
     <!-- −5.0 -->
     <g transform="translate(118.722139 281.605157)scale(0.1 -0.1)">
      <use xlink:href="#DejaVuSans-8722"/>
      <use x="83.789062" xlink:href="#DejaVuSans-53"/>
      <use x="147.412109" xlink:href="#DejaVuSans-46"/>
      <use x="179.199219" xlink:href="#DejaVuSans-48"/>
     </g>
    </g>
   </g>
   <g id="xtick_4">
    <g id="line2d_5">
     <path d="M 160.384634 263.7006 
L 157.621279 265.488899 
" style="fill:none;stroke:#000000;stroke-linecap:square;stroke-width:0.8;"/>
    </g>
    <g id="text_4">
     <!-- −2.5 -->
     <g transform="translate(139.401184 287.116658)scale(0.1 -0.1)">
      <defs>
       <path d="M 19.1875 8.296875 
L 53.609375 8.296875 
L 53.609375 0 
L 7.328125 0 
L 7.328125 8.296875 
Q 12.9375 14.109375 22.625 23.890625 
Q 32.328125 33.6875 34.8125 36.53125 
Q 39.546875 41.84375 41.421875 45.53125 
Q 43.3125 49.21875 43.3125 52.78125 
Q 43.3125 58.59375 39.234375 62.25 
Q 35.15625 65.921875 28.609375 65.921875 
Q 23.96875 65.921875 18.8125 64.3125 
Q 13.671875 62.703125 7.8125 59.421875 
L 7.8125 69.390625 
Q 13.765625 71.78125 18.9375 73 
Q 24.125 74.21875 28.421875 74.21875 
Q 39.75 74.21875 46.484375 68.546875 
Q 53.21875 62.890625 53.21875 53.421875 
Q 53.21875 48.921875 51.53125 44.890625 
Q 49.859375 40.875 45.40625 35.40625 
Q 44.1875 33.984375 37.640625 27.21875 
Q 31.109375 20.453125 19.1875 8.296875 
z
" id="DejaVuSans-50"/>
      </defs>
      <use xlink:href="#DejaVuSans-8722"/>
      <use x="83.789062" xlink:href="#DejaVuSans-50"/>
      <use x="147.412109" xlink:href="#DejaVuSans-46"/>
      <use x="179.199219" xlink:href="#DejaVuSans-53"/>
     </g>
    </g>
   </g>
   <g id="xtick_5">
    <g id="line2d_6">
     <path d="M 181.311597 269.148871 
L 178.577755 270.962737 
" style="fill:none;stroke:#000000;stroke-linecap:square;stroke-width:0.8;"/>
    </g>
    <g id="text_5">
     <!-- 0.0 -->
     <g transform="translate(164.565894 292.707003)scale(0.1 -0.1)">
      <use xlink:href="#DejaVuSans-48"/>
      <use x="63.623047" xlink:href="#DejaVuSans-46"/>
      <use x="95.410156" xlink:href="#DejaVuSans-48"/>
     </g>
    </g>
   </g>
   <g id="xtick_6">
    <g id="line2d_7">
     <path d="M 202.538479 274.675224 
L 199.835284 276.51521 
" style="fill:none;stroke:#000000;stroke-linecap:square;stroke-width:0.8;"/>
    </g>
    <g id="text_6">
     <!-- 2.5 -->
     <g transform="translate(185.842973 298.377895)scale(0.1 -0.1)">
      <use xlink:href="#DejaVuSans-50"/>
      <use x="63.623047" xlink:href="#DejaVuSans-46"/>
      <use x="95.410156" xlink:href="#DejaVuSans-53"/>
     </g>
    </g>
   </g>
   <g id="xtick_7">
    <g id="line2d_8">
     <path d="M 224.071773 280.281351 
L 221.4004 282.148025 
" style="fill:none;stroke:#000000;stroke-linecap:square;stroke-width:0.8;"/>
    </g>
    <g id="text_7">
     <!-- 5.0 -->
     <g transform="translate(207.428843 304.131089)scale(0.1 -0.1)">
      <use xlink:href="#DejaVuSans-53"/>
      <use x="63.623047" xlink:href="#DejaVuSans-46"/>
      <use x="95.410156" xlink:href="#DejaVuSans-48"/>
     </g>
    </g>
   </g>
   <g id="xtick_8">
    <g id="line2d_9">
     <path d="M 245.918163 285.968991 
L 243.279828 287.862939 
" style="fill:none;stroke:#000000;stroke-linecap:square;stroke-width:0.8;"/>
    </g>
    <g id="text_8">
     <!-- 7.5 -->
     <g transform="translate(229.330278 309.968388)scale(0.1 -0.1)">
      <use xlink:href="#DejaVuSans-55"/>
      <use x="63.623047" xlink:href="#DejaVuSans-46"/>
      <use x="95.410156" xlink:href="#DejaVuSans-53"/>
     </g>
    </g>
   </g>
   <g id="xtick_9">
    <g id="line2d_10">
     <path d="M 268.084527 291.739936 
L 265.48049 293.661759 
" style="fill:none;stroke:#000000;stroke-linecap:square;stroke-width:0.8;"/>
    </g>
    <g id="text_9">
     <!-- 10.0 -->
     <g transform="translate(248.372996 315.891651)scale(0.1 -0.1)">
      <use xlink:href="#DejaVuSans-49"/>
      <use x="63.623047" xlink:href="#DejaVuSans-48"/>
      <use x="127.246094" xlink:href="#DejaVuSans-46"/>
      <use x="159.033203" xlink:href="#DejaVuSans-48"/>
     </g>
    </g>
   </g>
  </g>
  <g id="axis3d_2">
   <g id="line2d_11">
    <path d="M 369.20801 220.491004 
L 270.945856 293.351128 
" style="fill:none;stroke:#000000;stroke-linecap:square;stroke-width:0.8;"/>
   </g>
   <g id="Line3DCollection_2">
    <path d="M 92.828894 102.398606 
L 97.443919 246.092001 
L 273.104915 291.750213 
" style="fill:none;stroke:#b0b0b0;stroke-width:0.8;"/>
    <path d="M 107.373112 95.370236 
L 111.468267 237.672708 
L 285.878934 282.278442 
" style="fill:none;stroke:#b0b0b0;stroke-width:0.8;"/>
    <path d="M 121.582989 88.503434 
L 125.180484 229.440799 
L 298.351708 273.030041 
" style="fill:none;stroke:#b0b0b0;stroke-width:0.8;"/>
    <path d="M 135.469925 81.79269 
L 138.590873 221.390086 
L 310.533768 263.9972 
" style="fill:none;stroke:#b0b0b0;stroke-width:0.8;"/>
    <path d="M 149.044803 75.232746 
L 151.709293 213.514653 
L 322.435161 255.172471 
" style="fill:none;stroke:#b0b0b0;stroke-width:0.8;"/>
    <path d="M 162.318026 68.818573 
L 164.545175 205.808837 
L 334.065476 246.548742 
" style="fill:none;stroke:#b0b0b0;stroke-width:0.8;"/>
    <path d="M 175.299538 62.545368 
L 177.107551 198.267216 
L 345.43387 238.119224 
" style="fill:none;stroke:#b0b0b0;stroke-width:0.8;"/>
    <path d="M 187.998852 56.408533 
L 189.40507 190.884598 
L 356.549093 229.877429 
" style="fill:none;stroke:#b0b0b0;stroke-width:0.8;"/>
    <path d="M 200.425069 50.403669 
L 201.44602 183.656006 
L 367.419508 221.817156 
" style="fill:none;stroke:#b0b0b0;stroke-width:0.8;"/>
   </g>
   <g id="xtick_10">
    <g id="line2d_12">
     <path d="M 271.614592 291.362845 
L 276.089929 292.526085 
" style="fill:none;stroke:#000000;stroke-linecap:square;stroke-width:0.8;"/>
    </g>
    <g id="text_10">
     <!-- −10.0 -->
     <g transform="translate(270.774713 312.995181)scale(0.1 -0.1)">
      <use xlink:href="#DejaVuSans-8722"/>
      <use x="83.789062" xlink:href="#DejaVuSans-49"/>
      <use x="147.412109" xlink:href="#DejaVuSans-48"/>
      <use x="211.035156" xlink:href="#DejaVuSans-46"/>
      <use x="242.822266" xlink:href="#DejaVuSans-48"/>
     </g>
    </g>
   </g>
   <g id="xtick_11">
    <g id="line2d_13">
     <path d="M 284.400227 281.900261 
L 288.840633 283.0359 
" style="fill:none;stroke:#000000;stroke-linecap:square;stroke-width:0.8;"/>
    </g>
    <g id="text_11">
     <!-- −7.5 -->
     <g transform="translate(286.598156 303.342866)scale(0.1 -0.1)">
      <use xlink:href="#DejaVuSans-8722"/>
      <use x="83.789062" xlink:href="#DejaVuSans-55"/>
      <use x="147.412109" xlink:href="#DejaVuSans-46"/>
      <use x="179.199219" xlink:href="#DejaVuSans-53"/>
     </g>
    </g>
   </g>
   <g id="xtick_12">
    <g id="line2d_14">
     <path d="M 296.884485 272.660723 
L 301.290355 273.769733 
" style="fill:none;stroke:#000000;stroke-linecap:square;stroke-width:0.8;"/>
    </g>
    <g id="text_12">
     <!-- −5.0 -->
     <g transform="translate(298.941671 293.918592)scale(0.1 -0.1)">
      <use xlink:href="#DejaVuSans-8722"/>
      <use x="83.789062" xlink:href="#DejaVuSans-53"/>
      <use x="147.412109" xlink:href="#DejaVuSans-46"/>
      <use x="179.199219" xlink:href="#DejaVuSans-48"/>
     </g>
    </g>
   </g>
   <g id="xtick_13">
    <g id="line2d_15">
     <path d="M 309.077899 263.636439 
L 313.449625 264.719744 
" style="fill:none;stroke:#000000;stroke-linecap:square;stroke-width:0.8;"/>
    </g>
    <g id="text_13">
     <!-- −2.5 -->
     <g transform="translate(310.996967 284.714372)scale(0.1 -0.1)">
      <use xlink:href="#DejaVuSans-8722"/>
      <use x="83.789062" xlink:href="#DejaVuSans-50"/>
      <use x="147.412109" xlink:href="#DejaVuSans-46"/>
      <use x="179.199219" xlink:href="#DejaVuSans-53"/>
     </g>
    </g>
   </g>
   <g id="xtick_14">
    <g id="line2d_16">
     <path d="M 320.990515 254.819971 
L 325.328493 255.878456 
" style="fill:none;stroke:#000000;stroke-linecap:square;stroke-width:0.8;"/>
    </g>
    <g id="text_14">
     <!-- 0.0 -->
     <g transform="translate(326.963868 275.722588)scale(0.1 -0.1)">
      <use xlink:href="#DejaVuSans-48"/>
      <use x="63.623047" xlink:href="#DejaVuSans-46"/>
      <use x="95.410156" xlink:href="#DejaVuSans-48"/>
     </g>
    </g>
   </g>
   <g id="xtick_15">
    <g id="line2d_17">
     <path d="M 332.631922 246.204223 
L 336.936547 247.238731 
" style="fill:none;stroke:#000000;stroke-linecap:square;stroke-width:0.8;"/>
    </g>
    <g id="text_15">
     <!-- 2.5 -->
     <g transform="translate(338.472209 266.935969)scale(0.1 -0.1)">
      <use xlink:href="#DejaVuSans-50"/>
      <use x="63.623047" xlink:href="#DejaVuSans-46"/>
      <use x="95.410156" xlink:href="#DejaVuSans-53"/>
     </g>
    </g>
   </g>
   <g id="xtick_16">
    <g id="line2d_18">
     <path d="M 344.011278 237.782419 
L 348.282942 238.793754 
" style="fill:none;stroke:#000000;stroke-linecap:square;stroke-width:0.8;"/>
    </g>
    <g id="text_16">
     <!-- 5.0 -->
     <g transform="translate(349.720926 258.347572)scale(0.1 -0.1)">
      <use xlink:href="#DejaVuSans-53"/>
      <use x="63.623047" xlink:href="#DejaVuSans-46"/>
      <use x="95.410156" xlink:href="#DejaVuSans-48"/>
     </g>
    </g>
   </g>
   <g id="xtick_17">
    <g id="line2d_19">
     <path d="M 355.137333 229.548081 
L 359.376429 230.537015 
" style="fill:none;stroke:#000000;stroke-linecap:square;stroke-width:0.8;"/>
    </g>
    <g id="text_17">
     <!-- 7.5 -->
     <g transform="translate(360.718707 249.950765)scale(0.1 -0.1)">
      <use xlink:href="#DejaVuSans-55"/>
      <use x="63.623047" xlink:href="#DejaVuSans-46"/>
      <use x="95.410156" xlink:href="#DejaVuSans-53"/>
     </g>
    </g>
   </g>
   <g id="xtick_18">
    <g id="line2d_20">
     <path d="M 366.018451 221.49502 
L 370.22537 222.462288 
" style="fill:none;stroke:#000000;stroke-linecap:square;stroke-width:0.8;"/>
    </g>
    <g id="text_18">
     <!-- 10.0 -->
     <g transform="translate(368.292607 241.739208)scale(0.1 -0.1)">
      <use xlink:href="#DejaVuSans-49"/>
      <use x="63.623047" xlink:href="#DejaVuSans-48"/>
      <use x="127.246094" xlink:href="#DejaVuSans-46"/>
      <use x="159.033203" xlink:href="#DejaVuSans-48"/>
     </g>
    </g>
   </g>
  </g>
  <g id="axis3d_3">
   <g id="line2d_21">
    <path d="M 369.20801 220.491004 
L 373.573568 81.043554 
" style="fill:none;stroke:#000000;stroke-linecap:square;stroke-width:0.8;"/>
   </g>
   <g id="Line3DCollection_3">
    <path d="M 369.292631 217.788002 
L 203.409857 179.882554 
L 94.984361 244.727357 
" style="fill:none;stroke:#b0b0b0;stroke-width:0.8;"/>
    <path d="M 370.169719 189.771502 
L 203.217076 153.116584 
L 94.040167 215.837398 
" style="fill:none;stroke:#b0b0b0;stroke-width:0.8;"/>
    <path d="M 371.058309 161.387577 
L 203.021901 126.018303 
L 93.08312 186.554187 
" style="fill:none;stroke:#b0b0b0;stroke-width:0.8;"/>
    <path d="M 371.95863 132.628953 
L 202.824289 98.581485 
L 92.112957 156.869641 
" style="fill:none;stroke:#b0b0b0;stroke-width:0.8;"/>
    <path d="M 372.870914 103.48816 
L 202.624191 70.799745 
L 91.129406 126.775451 
" style="fill:none;stroke:#b0b0b0;stroke-width:0.8;"/>
   </g>
   <g id="xtick_19">
    <g id="line2d_22">
     <path d="M 367.892427 217.468045 
L 372.096777 218.42877 
" style="fill:none;stroke:#000000;stroke-linecap:square;stroke-width:0.8;"/>
    </g>
    <g id="text_19">
     <!-- 0.0 -->
     <g transform="translate(379.824047 223.571257)scale(0.1 -0.1)">
      <use xlink:href="#DejaVuSans-48"/>
      <use x="63.623047" xlink:href="#DejaVuSans-46"/>
      <use x="95.410156" xlink:href="#DejaVuSans-48"/>
     </g>
    </g>
   </g>
   <g id="xtick_20">
    <g id="line2d_23">
     <path d="M 368.760005 189.461995 
L 372.992935 190.391347 
" style="fill:none;stroke:#000000;stroke-linecap:square;stroke-width:0.8;"/>
    </g>
    <g id="text_20">
     <!-- 0.2 -->
     <g transform="translate(380.819012 195.614068)scale(0.1 -0.1)">
      <use xlink:href="#DejaVuSans-48"/>
      <use x="63.623047" xlink:href="#DejaVuSans-46"/>
      <use x="95.410156" xlink:href="#DejaVuSans-50"/>
     </g>
    </g>
   </g>
   <g id="xtick_21">
    <g id="line2d_24">
     <path d="M 369.638955 161.088824 
L 373.900856 161.985893 
" style="fill:none;stroke:#000000;stroke-linecap:square;stroke-width:0.8;"/>
    </g>
    <g id="text_21">
     <!-- 0.4 -->
     <g transform="translate(381.826991 167.291169)scale(0.1 -0.1)">
      <defs>
       <path d="M 37.796875 64.3125 
L 12.890625 25.390625 
L 37.796875 25.390625 
z
M 35.203125 72.90625 
L 47.609375 72.90625 
L 47.609375 25.390625 
L 58.015625 25.390625 
L 58.015625 17.1875 
L 47.609375 17.1875 
L 47.609375 0 
L 37.796875 0 
L 37.796875 17.1875 
L 4.890625 17.1875 
L 4.890625 26.703125 
z
" id="DejaVuSans-52"/>
      </defs>
      <use xlink:href="#DejaVuSans-48"/>
      <use x="63.623047" xlink:href="#DejaVuSans-46"/>
      <use x="95.410156" xlink:href="#DejaVuSans-52"/>
     </g>
    </g>
   </g>
   <g id="xtick_22">
    <g id="line2d_25">
     <path d="M 370.529504 132.341264 
L 374.820774 133.205115 
" style="fill:none;stroke:#000000;stroke-linecap:square;stroke-width:0.8;"/>
    </g>
    <g id="text_22">
     <!-- 0.6 -->
     <g transform="translate(382.848243 138.595337)scale(0.1 -0.1)">
      <defs>
       <path d="M 33.015625 40.375 
Q 26.375 40.375 22.484375 35.828125 
Q 18.609375 31.296875 18.609375 23.390625 
Q 18.609375 15.53125 22.484375 10.953125 
Q 26.375 6.390625 33.015625 6.390625 
Q 39.65625 6.390625 43.53125 10.953125 
Q 47.40625 15.53125 47.40625 23.390625 
Q 47.40625 31.296875 43.53125 35.828125 
Q 39.65625 40.375 33.015625 40.375 
z
M 52.59375 71.296875 
L 52.59375 62.3125 
Q 48.875 64.0625 45.09375 64.984375 
Q 41.3125 65.921875 37.59375 65.921875 
Q 27.828125 65.921875 22.671875 59.328125 
Q 17.53125 52.734375 16.796875 39.40625 
Q 19.671875 43.65625 24.015625 45.921875 
Q 28.375 48.1875 33.59375 48.1875 
Q 44.578125 48.1875 50.953125 41.515625 
Q 57.328125 34.859375 57.328125 23.390625 
Q 57.328125 12.15625 50.6875 5.359375 
Q 44.046875 -1.421875 33.015625 -1.421875 
Q 20.359375 -1.421875 13.671875 8.265625 
Q 6.984375 17.96875 6.984375 36.375 
Q 6.984375 53.65625 15.1875 63.9375 
Q 23.390625 74.21875 37.203125 74.21875 
Q 40.921875 74.21875 44.703125 73.484375 
Q 48.484375 72.75 52.59375 71.296875 
z
" id="DejaVuSans-54"/>
      </defs>
      <use xlink:href="#DejaVuSans-48"/>
      <use x="63.623047" xlink:href="#DejaVuSans-46"/>
      <use x="95.410156" xlink:href="#DejaVuSans-54"/>
     </g>
    </g>
   </g>
   <g id="xtick_23">
    <g id="line2d_26">
     <path d="M 371.431881 103.211857 
L 375.752927 104.041524 
" style="fill:none;stroke:#000000;stroke-linecap:square;stroke-width:0.8;"/>
    </g>
    <g id="text_23">
     <!-- 0.8 -->
     <g transform="translate(383.883032 109.519158)scale(0.1 -0.1)">
      <defs>
       <path d="M 31.78125 34.625 
Q 24.75 34.625 20.71875 30.859375 
Q 16.703125 27.09375 16.703125 20.515625 
Q 16.703125 13.921875 20.71875 10.15625 
Q 24.75 6.390625 31.78125 6.390625 
Q 38.8125 6.390625 42.859375 10.171875 
Q 46.921875 13.96875 46.921875 20.515625 
Q 46.921875 27.09375 42.890625 30.859375 
Q 38.875 34.625 31.78125 34.625 
z
M 21.921875 38.8125 
Q 15.578125 40.375 12.03125 44.71875 
Q 8.5 49.078125 8.5 55.328125 
Q 8.5 64.0625 14.71875 69.140625 
Q 20.953125 74.21875 31.78125 74.21875 
Q 42.671875 74.21875 48.875 69.140625 
Q 55.078125 64.0625 55.078125 55.328125 
Q 55.078125 49.078125 51.53125 44.71875 
Q 48 40.375 41.703125 38.8125 
Q 48.828125 37.15625 52.796875 32.3125 
Q 56.78125 27.484375 56.78125 20.515625 
Q 56.78125 9.90625 50.3125 4.234375 
Q 43.84375 -1.421875 31.78125 -1.421875 
Q 19.734375 -1.421875 13.25 4.234375 
Q 6.78125 9.90625 6.78125 20.515625 
Q 6.78125 27.484375 10.78125 32.3125 
Q 14.796875 37.15625 21.921875 38.8125 
z
M 18.3125 54.390625 
Q 18.3125 48.734375 21.84375 45.5625 
Q 25.390625 42.390625 31.78125 42.390625 
Q 38.140625 42.390625 41.71875 45.5625 
Q 45.3125 48.734375 45.3125 54.390625 
Q 45.3125 60.0625 41.71875 63.234375 
Q 38.140625 66.40625 31.78125 66.40625 
Q 25.390625 66.40625 21.84375 63.234375 
Q 18.3125 60.0625 18.3125 54.390625 
z
" id="DejaVuSans-56"/>
      </defs>
      <use xlink:href="#DejaVuSans-48"/>
      <use x="63.623047" xlink:href="#DejaVuSans-46"/>
      <use x="95.410156" xlink:href="#DejaVuSans-56"/>
     </g>
    </g>
   </g>
  </g>
  <g id="axes_1">
   <g id="Poly3DCollection_1">
    <defs>
     <path d="M 190.111678 -155.126148 
L 191.653106 -154.766848 
L 193.196135 -154.407176 
L 194.740766 -154.04713 
L 196.287002 -153.68671 
L 197.834846 -153.325915 
L 199.3843 -152.964745 
L 200.935367 -152.603199 
L 202.48805 -152.241276 
L 204.04235 -151.878977 
L 205.598271 -151.516299 
L 207.155814 -151.153244 
L 208.714983 -150.789809 
L 210.27578 -150.425995 
L 211.838208 -150.061801 
L 213.402268 -149.697226 
L 214.967964 -149.33227 
L 216.535299 -148.966932 
L 218.104274 -148.601211 
L 219.674893 -148.235108 
L 221.247157 -147.868621 
L 222.821071 -147.501749 
L 224.396635 -147.134493 
L 225.973853 -146.766851 
L 227.552727 -146.398823 
L 229.133261 -146.030409 
L 230.715456 -145.661607 
L 232.299315 -145.292417 
L 233.884841 -144.922839 
L 235.472036 -144.552872 
L 237.060904 -144.182514 
L 238.651446 -143.811767 
L 240.243665 -143.440628 
L 241.837565 -143.069098 
L 243.433147 -142.697176 
L 245.030415 -142.32486 
L 246.629371 -141.952152 
L 248.230017 -141.579049 
L 249.832357 -141.205551 
L 251.436393 -140.831658 
L 253.042128 -140.45737 
L 254.649564 -140.082684 
L 256.258704 -139.707601 
L 257.869552 -139.332121 
L 259.482109 -138.956242 
L 261.096378 -138.579963 
L 262.712362 -138.203285 
L 264.330064 -137.826207 
L 265.949487 -137.448728 
L 267.570633 -137.070846 
L 269.193505 -136.692563 
L 270.818106 -136.313877 
L 272.444438 -135.934786 
L 274.072505 -135.555292 
L 275.702308 -135.175393 
L 277.333852 -134.795088 
L 278.967139 -134.414377 
L 280.60217 -134.033259 
L 282.238951 -133.651734 
L 283.877482 -133.2698 
L 285.517767 -132.887458 
L 287.159809 -132.504706 
L 288.80361 -132.121544 
L 290.449174 -131.737971 
L 292.096503 -131.353987 
L 293.745599 -130.96959 
L 295.396467 -130.584781 
L 297.049109 -130.199559 
L 298.703527 -129.813922 
L 300.359725 -129.42787 
L 302.017704 -129.041403 
L 303.67747 -128.65452 
L 305.339023 -128.26722 
L 307.002367 -127.879503 
L 308.667505 -127.491368 
L 310.33444 -127.102813 
L 312.003175 -126.713839 
L 313.673712 -126.324445 
L 315.346055 -125.934631 
L 317.020206 -125.544394 
L 318.696169 -125.153735 
L 320.373946 -124.762654 
L 322.05354 -124.371149 
L 323.734955 -123.979219 
L 325.418193 -123.586865 
L 327.103257 -123.194085 
L 328.79015 -122.800878 
L 330.478875 -122.407245 
L 332.169435 -122.013183 
L 333.861834 -121.618694 
L 335.556074 -121.223775 
L 337.252157 -120.828426 
L 338.950088 -120.432647 
L 340.649869 -120.036436 
L 342.351503 -119.639793 
L 344.054994 -119.242718 
L 345.760343 -118.84521 
L 347.467555 -118.447267 
L 349.176632 -118.048889 
L 350.887578 -117.650076 
L 190.111607 -155.133139 
L 191.653061 -154.771404 
L 193.196121 -154.408607 
L 194.740765 -154.047197 
L 196.286955 -153.692016 
L 197.834635 -153.350751 
L 199.383738 -153.03367 
L 200.934206 -152.752194 
L 202.486007 -152.515954 
L 204.039169 -152.328395 
L 205.5938 -152.181602 
L 207.150099 -152.05185 
L 208.708333 -151.898134 
L 210.268785 -151.666337 
L 211.831665 -151.301227 
L 213.397008 -150.766916 
L 214.964587 -150.073609 
L 216.533882 -149.304927 
L 218.104138 -148.636691 
L 219.674542 -148.336305 
L 221.244474 -148.733135 
L 222.8138 -150.155394 
L 224.383088 -152.837867 
L 225.953651 -156.815842 
L 227.527341 -161.831564 
L 229.10607 -167.286977 
L 230.691159 -172.276708 
L 232.282694 -175.724108 
L 233.879167 -176.618235 
L 235.477649 -174.313674 
L 237.074618 -168.818553 
L 238.667327 -160.976626 
L 240.255341 -152.462079 
L 241.841696 -145.552166 
L 243.433164 -142.705178 
L 245.039307 -146.023864 
L 246.67032 -156.710783 
L 248.333976 -174.625656 
L 250.032309 -198.050025 
L 251.75895 -223.757721 
L 253.498226 -247.464683 
L 255.227014 -264.657022 
L 256.919637 -271.658593 
L 258.554866 -266.644662 
L 260.122826 -250.24232 
L 261.629209 -225.469026 
L 263.095109 -197.01781 
L 264.552559 -170.148938 
L 266.037313 -149.546178 
L 267.580951 -138.421929 
L 269.204035 -138.006541 
L 270.911468 -147.43955 
L 272.69083 -164.03024 
L 274.514236 -183.839971 
L 276.343826 -202.507851 
L 278.14009 -216.173909 
L 279.87107 -222.283118 
L 281.519736 -220.045572 
L 283.087198 -210.424136 
L 284.590941 -195.687744 
L 286.059099 -178.715158 
L 287.52297 -162.284752 
L 289.01006 -148.535538 
L 290.539222 -138.685525 
L 292.118511 -133.003164 
L 293.745646 -130.972967 
L 295.410448 -131.575309 
L 297.098417 -133.600199 
L 298.79451 -135.926172 
L 300.486288 -137.715361 
L 302.165844 -138.502096 
L 303.83032 -138.180465 
L 305.481199 -136.918818 
L 307.122821 -135.040107 
L 308.760678 -132.905072 
L 310.399931 -130.823961 
L 312.044441 -129.007727 
L 313.696362 -127.556785 
L 315.35624 -126.477253 
L 317.023411 -125.711653 
L 318.696531 -125.172257 
L 320.374069 -124.768796 
L 322.054666 -124.426487 
L 323.737335 -124.094014 
L 325.421502 -123.743523 
L 327.106951 -123.365765 
L 328.793711 -122.963381 
L 330.481939 -122.544591 
L 332.171827 -122.118514 
L 333.863538 -121.692458 
L 335.557181 -121.270907 
L 337.252808 -120.855673 
L 338.950428 -120.446626 
L 340.65002 -120.042553 
L 342.351556 -119.641878 
L 344.055004 -119.243139 
L 345.760343 -118.845215 
L 347.467558 -118.447368 
L 349.176641 -118.049195 
L 350.88759 -117.650521 
z
" id="m5269794d04" style="stroke:#2ca02c;stroke-opacity:0.6;"/>
    </defs>
    <g clip-path="url(#pb032e22c6a)">
     <use style="fill:#2ca02c;fill-opacity:0.6;stroke:#2ca02c;stroke-opacity:0.6;" x="0" xlink:href="#m5269794d04" y="345.6"/>
    </g>
   </g>
   <g id="Poly3DCollection_2">
    <defs>
     <path d="M 154.889814 -133.980855 
L 156.4595 -133.599274 
L 158.030865 -133.217284 
L 159.603913 -132.834885 
L 161.178645 -132.452077 
L 162.755065 -132.068859 
L 164.333175 -131.685229 
L 165.912978 -131.301189 
L 167.494477 -130.916735 
L 169.077674 -130.53187 
L 170.662572 -130.14659 
L 172.249174 -129.760896 
L 173.837483 -129.374788 
L 175.427501 -128.988264 
L 177.019232 -128.601323 
L 178.612677 -128.213966 
L 180.20784 -127.826191 
L 181.804724 -127.437998 
L 183.40333 -127.049386 
L 185.003663 -126.660355 
L 186.605725 -126.270903 
L 188.209518 -125.88103 
L 189.815046 -125.490736 
L 191.422311 -125.100019 
L 193.031317 -124.708879 
L 194.642065 -124.317316 
L 196.254559 -123.925328 
L 197.868801 -123.532915 
L 199.484795 -123.140076 
L 201.102544 -122.746811 
L 202.722049 -122.353119 
L 204.343315 -121.958999 
L 205.966343 -121.56445 
L 207.591137 -121.169472 
L 209.2177 -120.774064 
L 210.846035 -120.378226 
L 212.476143 -119.981956 
L 214.10803 -119.585254 
L 215.741696 -119.188119 
L 217.377146 -118.790551 
L 219.014381 -118.392549 
L 220.653406 -117.994111 
L 222.294223 -117.595238 
L 223.936834 -117.195929 
L 225.581244 -116.796183 
L 227.227454 -116.395999 
L 228.875468 -115.995376 
L 230.525289 -115.594315 
L 232.176919 -115.192813 
L 233.830362 -114.790871 
L 235.485621 -114.388487 
L 237.142698 -113.985661 
L 238.801597 -113.582392 
L 240.462321 -113.17868 
L 242.124872 -112.774524 
L 243.789254 -112.369922 
L 245.45547 -111.964875 
L 247.123522 -111.559381 
L 248.793414 -111.15344 
L 250.465149 -110.747051 
L 252.13873 -110.340214 
L 253.81416 -109.932926 
L 255.491442 -109.525189 
L 257.170579 -109.117001 
L 258.851574 -108.708361 
L 260.53443 -108.299268 
L 262.219151 -107.889722 
L 263.905739 -107.479723 
L 265.594198 -107.069268 
L 267.28453 -106.658358 
L 268.976739 -106.246992 
L 270.670828 -105.835169 
L 272.3668 -105.422888 
L 274.064658 -105.010149 
L 275.764406 -104.59695 
L 277.466046 -104.183292 
L 279.169582 -103.769172 
L 280.875016 -103.354591 
L 282.582352 -102.939547 
L 284.291594 -102.524041 
L 286.002744 -102.10807 
L 287.715805 -101.691635 
L 289.430782 -101.274734 
L 291.147676 -100.857367 
L 292.866492 -100.439533 
L 294.587231 -100.021232 
L 296.309899 -99.602461 
L 298.034497 -99.183222 
L 299.76103 -98.763512 
L 301.4895 -98.343331 
L 303.219911 -97.922678 
L 304.952265 -97.501553 
L 306.686567 -97.079954 
L 308.422819 -96.657881 
L 310.161025 -96.235334 
L 311.901189 -95.81231 
L 313.643312 -95.38881 
L 315.3874 -94.964833 
L 317.133454 -94.540377 
L 318.881479 -94.115443 
L 154.889402 -134.003129 
L 156.458884 -133.633208 
L 158.029972 -133.267487 
L 159.602655 -132.907052 
L 161.176924 -132.552891 
L 162.75278 -132.205681 
L 164.33023 -131.865506 
L 165.909299 -131.531506 
L 167.490032 -131.201522 
L 169.072494 -130.87177 
L 170.65677 -130.536688 
L 172.242964 -130.189062 
L 173.83118 -129.820617 
L 175.421512 -129.423252 
L 177.014009 -128.991058 
L 178.608647 -128.523232 
L 180.205287 -128.027865 
L 181.803637 -127.526414 
L 183.403222 -127.058499 
L 185.003363 -126.6864 
L 186.603182 -126.498461 
L 188.201637 -126.61043 
L 189.797592 -127.163752 
L 191.38992 -128.319893 
L 192.977643 -130.25011 
L 194.560088 -133.120473 
L 196.137051 -137.072582 
L 197.708947 -142.201131 
L 199.276913 -148.530201 
L 200.842852 -155.990894 
L 202.409391 -164.403489 
L 203.979741 -173.467622 
L 205.557457 -182.763921 
L 207.146112 -191.769898 
L 208.748915 -199.891581 
L 210.368308 -206.510337 
L 212.005618 -211.041688 
L 213.660805 -213.000142 
L 215.332373 -212.061709 
L 217.01747 -208.114602 
L 218.712183 -201.289322 
L 220.411988 -191.961898 
L 222.112293 -180.728244 
L 223.808991 -168.35227 
L 225.498937 -155.69457 
L 227.180274 -143.631094 
L 228.852579 -132.971934 
L 230.516813 -124.389301 
L 232.175086 -118.361638 
L 233.830295 -115.138236 
L 235.485686 -114.726318 
L 237.144388 -116.900511 
L 238.808993 -121.232941 
L 240.48123 -127.1407 
L 242.161761 -133.945999 
L 243.850142 -140.943024 
L 245.54493 -147.464504 
L 247.243926 -152.940787 
L 248.944512 -156.944917 
L 250.644024 -159.219084 
L 252.340106 -159.680511 
L 254.030987 -158.407893 
L 255.715658 -155.612213 
L 257.393928 -151.597592 
L 259.066361 -146.718441 
L 260.734135 -141.338705 
L 262.398838 -135.797625 
L 264.062254 -130.384671 
L 265.726154 -125.324578 
L 267.392133 -120.771905 
L 269.061486 -116.813561 
L 270.735151 -113.477158 
L 272.413692 -110.742923 
L 274.097333 -108.557076 
L 275.786009 -106.844923 
L 277.479449 -105.522428 
L 279.177245 -104.50548 
L 280.878928 -103.716557 
L 282.584026 -103.08884 
L 284.292105 -102.5681 
L 286.002801 -102.11284 
L 287.715825 -101.693214 
L 289.430967 -101.289221 
L 291.148089 -100.888622 
L 292.867109 -100.484866 
L 294.587989 -100.075266 
L 296.310722 -99.659504 
L 298.035318 -99.238521 
L 299.761796 -98.813745 
L 301.490177 -98.386621 
L 303.220483 -97.958356 
L 304.952731 -97.529828 
L 306.686932 -97.101584 
L 308.423096 -96.673895 
L 310.161229 -96.24683 
L 311.901334 -95.820322 
L 313.643413 -95.394235 
L 315.387467 -94.968402 
L 317.133498 -94.542659 
L 318.881507 -94.11686 
z
" id="me13bb355ed" style="stroke:#ff7f0e;stroke-opacity:0.6;"/>
    </defs>
    <g clip-path="url(#pb032e22c6a)">
     <use style="fill:#ff7f0e;fill-opacity:0.6;stroke:#ff7f0e;stroke-opacity:0.6;" x="0" xlink:href="#me13bb355ed" y="345.6"/>
    </g>
   </g>
   <g id="Poly3DCollection_3">
    <defs>
     <path d="M 117.449331 -111.503624 
L 119.047832 -111.097622 
L 120.648098 -110.691171 
L 122.25013 -110.284272 
L 123.853933 -109.876923 
L 125.459508 -109.469124 
L 127.06686 -109.060873 
L 128.67599 -108.652171 
L 130.286902 -108.243016 
L 131.899599 -107.833408 
L 133.514083 -107.423346 
L 135.130358 -107.012829 
L 136.748427 -106.601857 
L 138.368293 -106.190428 
L 139.989958 -105.778542 
L 141.613426 -105.366198 
L 143.2387 -104.953395 
L 144.865782 -104.540134 
L 146.494676 -104.126412 
L 148.125385 -103.712229 
L 149.757912 -103.297584 
L 151.392259 -102.882477 
L 153.02843 -102.466907 
L 154.666428 -102.050872 
L 156.306257 -101.634373 
L 157.947918 -101.217409 
L 159.591415 -100.799977 
L 161.236752 -100.382079 
L 162.88393 -99.963713 
L 164.532955 -99.544878 
L 166.183827 -99.125574 
L 167.836552 -98.705799 
L 169.491131 -98.285554 
L 171.147568 -97.864836 
L 172.805865 -97.443646 
L 174.466027 -97.021982 
L 176.128057 -96.599844 
L 177.791956 -96.177231 
L 179.45773 -95.754142 
L 181.12538 -95.330577 
L 182.794909 -94.906534 
L 184.466322 -94.482012 
L 186.139622 -94.057012 
L 187.81481 -93.631531 
L 189.491892 -93.20557 
L 191.170869 -92.779128 
L 192.851745 -92.352203 
L 194.534524 -91.924795 
L 196.219208 -91.496903 
L 197.905801 -91.068526 
L 199.594307 -90.639663 
L 201.284727 -90.210314 
L 202.977066 -89.780478 
L 204.671327 -89.350153 
L 206.367513 -88.91934 
L 208.065627 -88.488037 
L 209.765673 -88.056243 
L 211.467654 -87.623957 
L 213.171573 -87.19118 
L 214.877434 -86.757909 
L 216.585239 -86.324144 
L 218.294993 -85.889885 
L 220.006699 -85.45513 
L 221.720359 -85.019878 
L 223.435978 -84.584129 
L 225.153558 -84.147881 
L 226.873103 -83.711135 
L 228.594617 -83.273889 
L 230.318103 -82.836141 
L 232.043563 -82.397892 
L 233.771002 -81.959141 
L 235.500423 -81.519886 
L 237.23183 -81.080127 
L 238.965225 -80.639863 
L 240.700612 -80.199093 
L 242.437995 -79.757816 
L 244.177377 -79.316031 
L 245.918762 -78.873738 
L 247.662152 -78.430935 
L 249.407553 -77.987621 
L 251.154966 -77.543797 
L 252.904395 -77.09946 
L 254.655844 -76.65461 
L 256.409317 -76.209247 
L 258.164817 -75.763368 
L 259.922347 -75.316974 
L 261.681911 -74.870063 
L 263.443513 -74.422635 
L 265.207155 -73.974688 
L 266.972843 -73.526222 
L 268.740578 -73.077236 
L 270.510365 -72.627729 
L 272.282208 -72.177699 
L 274.056109 -71.727147 
L 275.832073 -71.276071 
L 277.610102 -70.82447 
L 279.390202 -70.372343 
L 281.172374 -69.91969 
L 282.956624 -69.466509 
L 284.742954 -69.0128 
L 117.449088 -111.512527 
L 119.047436 -111.112308 
L 120.647466 -110.7149 
L 122.249143 -110.321878 
L 123.852419 -109.935446 
L 125.457226 -109.558634 
L 127.063476 -109.19553 
L 128.671055 -108.851542 
L 130.279815 -108.533688 
L 131.889577 -108.250891 
L 133.500119 -108.014271 
L 135.111183 -107.837381 
L 136.722471 -107.736369 
L 138.333648 -107.729998 
L 139.944358 -107.83949 
L 141.554228 -108.088109 
L 143.162896 -108.500465 
L 144.770028 -109.101451 
L 146.375355 -109.914833 
L 147.978701 -110.96145 
L 149.580024 -112.257099 
L 151.17945 -113.810154 
L 152.77731 -115.619064 
L 154.374163 -117.669908 
L 155.970814 -119.934214 
L 157.568319 -122.367317 
L 159.167961 -124.907513 
L 160.771222 -127.47628 
L 162.379719 -129.97979 
L 163.995126 -132.311859 
L 165.619084 -134.358386 
L 167.253089 -136.003165 
L 168.89838 -137.134832 
L 170.555842 -137.65451 
L 172.225909 -137.48359 
L 173.908502 -136.570968 
L 175.603006 -134.899047 
L 177.308272 -132.487792 
L 179.022674 -129.396341 
L 180.744201 -125.721782 
L 182.470579 -121.595042 
L 184.199419 -117.174069 
L 185.928374 -112.634783 
L 187.65529 -108.160472 
L 189.378342 -103.930478 
L 191.096141 -100.109067 
L 192.807802 -96.835349 
L 194.512977 -94.215011 
L 196.211839 -92.314456 
L 197.905033 -91.157733 
L 199.593593 -90.726423 
L 201.278839 -90.9624 
L 202.962256 -91.773183 
L 204.645371 -93.039401 
L 206.329645 -94.623737 
L 208.016374 -96.380626 
L 209.706611 -98.165941 
L 211.401127 -99.845923 
L 213.100388 -101.304716 
L 214.804563 -102.450021 
L 216.51356 -103.216562 
L 218.227073 -103.567304 
L 219.944639 -103.492531 
L 221.665705 -103.00711 
L 223.389686 -102.146376 
L 225.11602 -100.96114 
L 226.844205 -99.512349 
L 228.57383 -97.865864 
L 230.304589 -96.087749 
L 232.036288 -94.240345 
L 233.76883 -92.379288 
L 235.502212 -90.551527 
L 237.236498 -88.794292 
L 238.971802 -87.134904 
L 240.708274 -85.591257 
L 242.446073 -84.172803 
L 244.18536 -82.881855 
L 245.926287 -81.71504 
L 247.668986 -80.664767 
L 249.413566 -79.720604 
L 251.160115 -78.870494 
L 252.908698 -78.101752 
L 254.659361 -77.401853 
L 256.412131 -76.758993 
L 258.167025 -76.162461 
L 259.924047 -75.602839 
L 261.683196 -75.072075 
L 263.444467 -74.563454 
L 265.207852 -74.071501 
L 266.973342 -73.591853 
L 268.74093 -73.121096 
L 270.510609 -72.656614 
L 272.282374 -72.19644 
L 274.05622 -71.73912 
L 275.832146 -71.283599 
L 277.610149 -70.829126 
L 279.390232 -70.375173 
L 281.172393 -69.921379 
L 282.956635 -69.467498 
L 284.742961 -69.013367 
z
" id="m15651f694d" style="stroke:#1f77b4;stroke-opacity:0.6;"/>
    </defs>
    <g clip-path="url(#pb032e22c6a)">
     <use style="fill:#1f77b4;fill-opacity:0.6;stroke:#1f77b4;stroke-opacity:0.6;" x="0" xlink:href="#m15651f694d" y="345.6"/>
    </g>
   </g>
   <g id="line2d_27">
    <path clip-path="url(#pb032e22c6a)" d="M 190.111607 190.466861 
L 191.653061 190.828596 
L 193.196121 191.191393 
L 194.740765 191.552803 
L 196.286955 191.907984 
L 197.834635 192.249249 
L 199.383738 192.56633 
L 200.934206 192.847806 
L 202.486007 193.084046 
L 204.039169 193.271605 
L 205.5938 193.418398 
L 207.150099 193.54815 
L 208.708333 193.701866 
L 210.268785 193.933663 
L 211.831665 194.298773 
L 213.397008 194.833084 
L 214.964587 195.526391 
L 216.533882 196.295073 
L 218.104138 196.963309 
L 219.674542 197.263695 
L 221.244474 196.866865 
L 222.8138 195.444606 
L 224.383088 192.762133 
L 225.953651 188.784158 
L 227.527341 183.768436 
L 229.10607 178.313023 
L 230.691159 173.323292 
L 232.282694 169.875892 
L 233.879167 168.981765 
L 235.477649 171.286326 
L 237.074618 176.781447 
L 238.667327 184.623374 
L 240.255341 193.137921 
L 241.841696 200.047834 
L 243.433164 202.894822 
L 245.039307 199.576136 
L 246.67032 188.889217 
L 248.333976 170.974344 
L 250.032309 147.549975 
L 251.75895 121.842279 
L 253.498226 98.135317 
L 255.227014 80.942978 
L 256.919637 73.941407 
L 258.554866 78.955338 
L 260.122826 95.35768 
L 261.629209 120.130974 
L 263.095109 148.58219 
L 264.552559 175.451062 
L 266.037313 196.053822 
L 267.580951 207.178071 
L 269.204035 207.593459 
L 270.911468 198.16045 
L 272.69083 181.56976 
L 274.514236 161.760029 
L 276.343826 143.092149 
L 278.14009 129.426091 
L 279.87107 123.316882 
L 281.519736 125.554428 
L 283.087198 135.175864 
L 284.590941 149.912256 
L 286.059099 166.884842 
L 287.52297 183.315248 
L 289.01006 197.064462 
L 290.539222 206.914475 
L 292.118511 212.596836 
L 293.745646 214.627033 
L 295.410448 214.024691 
L 297.098417 211.999801 
L 298.79451 209.673828 
L 300.486288 207.884639 
L 302.165844 207.097904 
L 303.83032 207.419535 
L 305.481199 208.681182 
L 307.122821 210.559893 
L 308.760678 212.694928 
L 310.399931 214.776039 
L 312.044441 216.592273 
L 313.696362 218.043215 
L 315.35624 219.122747 
L 317.023411 219.888347 
L 318.696531 220.427743 
L 320.374069 220.831204 
L 322.054666 221.173513 
L 323.737335 221.505986 
L 325.421502 221.856477 
L 327.106951 222.234235 
L 328.793711 222.636619 
L 330.481939 223.055409 
L 332.171827 223.481486 
L 333.863538 223.907542 
L 335.557181 224.329093 
L 337.252808 224.744327 
L 338.950428 225.153374 
L 340.65002 225.557447 
L 342.351556 225.958122 
L 344.055004 226.356861 
L 345.760343 226.754785 
L 347.467558 227.152632 
L 349.176641 227.550805 
L 350.88759 227.949479 
" style="fill:none;stroke:#2ca02c;stroke-linecap:square;stroke-width:2;"/>
   </g>
   <g id="line2d_28">
    <path clip-path="url(#pb032e22c6a)" d="M 154.889402 211.596871 
L 156.458884 211.966792 
L 158.029972 212.332513 
L 159.602655 212.692948 
L 161.176924 213.047109 
L 162.75278 213.394319 
L 164.33023 213.734494 
L 165.909299 214.068494 
L 167.490032 214.398478 
L 169.072494 214.72823 
L 170.65677 215.063312 
L 172.242964 215.410938 
L 173.83118 215.779383 
L 175.421512 216.176748 
L 177.014009 216.608942 
L 178.608647 217.076768 
L 180.205287 217.572135 
L 181.803637 218.073586 
L 183.403222 218.541501 
L 185.003363 218.9136 
L 186.603182 219.101539 
L 188.201637 218.98957 
L 189.797592 218.436248 
L 191.38992 217.280107 
L 192.977643 215.34989 
L 194.560088 212.479527 
L 196.137051 208.527418 
L 197.708947 203.398869 
L 199.276913 197.069799 
L 200.842852 189.609106 
L 202.409391 181.196511 
L 203.979741 172.132378 
L 205.557457 162.836079 
L 207.146112 153.830102 
L 208.748915 145.708419 
L 210.368308 139.089663 
L 212.005618 134.558312 
L 213.660805 132.599858 
L 215.332373 133.538291 
L 217.01747 137.485398 
L 218.712183 144.310678 
L 220.411988 153.638102 
L 222.112293 164.871756 
L 223.808991 177.24773 
L 225.498937 189.90543 
L 227.180274 201.968906 
L 228.852579 212.628066 
L 230.516813 221.210699 
L 232.175086 227.238362 
L 233.830295 230.461764 
L 235.485686 230.873682 
L 237.144388 228.699489 
L 238.808993 224.367059 
L 240.48123 218.4593 
L 242.161761 211.654001 
L 243.850142 204.656976 
L 245.54493 198.135496 
L 247.243926 192.659213 
L 248.944512 188.655083 
L 250.644024 186.380916 
L 252.340106 185.919489 
L 254.030987 187.192107 
L 255.715658 189.987787 
L 257.393928 194.002408 
L 259.066361 198.881559 
L 260.734135 204.261295 
L 262.398838 209.802375 
L 264.062254 215.215329 
L 265.726154 220.275422 
L 267.392133 224.828095 
L 269.061486 228.786439 
L 270.735151 232.122842 
L 272.413692 234.857077 
L 274.097333 237.042924 
L 275.786009 238.755077 
L 277.479449 240.077572 
L 279.177245 241.09452 
L 280.878928 241.883443 
L 282.584026 242.51116 
L 284.292105 243.0319 
L 286.002801 243.48716 
L 287.715825 243.906786 
L 289.430967 244.310779 
L 291.148089 244.711378 
L 292.867109 245.115134 
L 294.587989 245.524734 
L 296.310722 245.940496 
L 298.035318 246.361479 
L 299.761796 246.786255 
L 301.490177 247.213379 
L 303.220483 247.641644 
L 304.952731 248.070172 
L 306.686932 248.498416 
L 308.423096 248.926105 
L 310.161229 249.35317 
L 311.901334 249.779678 
L 313.643413 250.205765 
L 315.387467 250.631598 
L 317.133498 251.057341 
L 318.881507 251.48314 
" style="fill:none;stroke:#ff7f0e;stroke-linecap:square;stroke-width:2;"/>
   </g>
   <g id="line2d_29">
    <path clip-path="url(#pb032e22c6a)" d="M 117.449088 234.087473 
L 119.047436 234.487692 
L 120.647466 234.8851 
L 122.249143 235.278122 
L 123.852419 235.664554 
L 125.457226 236.041366 
L 127.063476 236.40447 
L 128.671055 236.748458 
L 130.279815 237.066312 
L 131.889577 237.349109 
L 133.500119 237.585729 
L 135.111183 237.762619 
L 136.722471 237.863631 
L 138.333648 237.870002 
L 139.944358 237.76051 
L 141.554228 237.511891 
L 143.162896 237.099535 
L 144.770028 236.498549 
L 146.375355 235.685167 
L 147.978701 234.63855 
L 149.580024 233.342901 
L 151.17945 231.789846 
L 152.77731 229.980936 
L 154.374163 227.930092 
L 155.970814 225.665786 
L 157.568319 223.232683 
L 159.167961 220.692487 
L 160.771222 218.12372 
L 162.379719 215.62021 
L 163.995126 213.288141 
L 165.619084 211.241614 
L 167.253089 209.596835 
L 168.89838 208.465168 
L 170.555842 207.94549 
L 172.225909 208.11641 
L 173.908502 209.029032 
L 175.603006 210.700953 
L 177.308272 213.112208 
L 179.022674 216.203659 
L 180.744201 219.878218 
L 182.470579 224.004958 
L 184.199419 228.425931 
L 185.928374 232.965217 
L 187.65529 237.439528 
L 189.378342 241.669522 
L 191.096141 245.490933 
L 192.807802 248.764651 
L 194.512977 251.384989 
L 196.211839 253.285544 
L 197.905033 254.442267 
L 199.593593 254.873577 
L 201.278839 254.6376 
L 202.962256 253.826817 
L 204.645371 252.560599 
L 206.329645 250.976263 
L 208.016374 249.219374 
L 209.706611 247.434059 
L 211.401127 245.754077 
L 213.100388 244.295284 
L 214.804563 243.149979 
L 216.51356 242.383438 
L 218.227073 242.032696 
L 219.944639 242.107469 
L 221.665705 242.59289 
L 223.389686 243.453624 
L 225.11602 244.63886 
L 226.844205 246.087651 
L 228.57383 247.734136 
L 230.304589 249.512251 
L 232.036288 251.359655 
L 233.76883 253.220712 
L 235.502212 255.048473 
L 237.236498 256.805708 
L 238.971802 258.465096 
L 240.708274 260.008743 
L 242.446073 261.427197 
L 244.18536 262.718145 
L 245.926287 263.88496 
L 247.668986 264.935233 
L 249.413566 265.879396 
L 251.160115 266.729506 
L 252.908698 267.498248 
L 254.659361 268.198147 
L 256.412131 268.841007 
L 258.167025 269.437539 
L 259.924047 269.997161 
L 261.683196 270.527925 
L 263.444467 271.036546 
L 265.207852 271.528499 
L 266.973342 272.008147 
L 268.74093 272.478904 
L 270.510609 272.943386 
L 272.282374 273.40356 
L 274.05622 273.86088 
L 275.832146 274.316401 
L 277.610149 274.770874 
L 279.390232 275.224827 
L 281.172393 275.678621 
L 282.956635 276.132502 
L 284.742961 276.586633 
" style="fill:none;stroke:#1f77b4;stroke-linecap:square;stroke-width:2;"/>
   </g>
  </g>
 </g>
 <defs>
  <clipPath id="pb032e22c6a">
   <rect height="315.074553" width="315.074553" x="72.862723" y="10.8"/>
  </clipPath>
 </defs>
</svg>
