<?xml version="1.0" encoding="utf-8" standalone="no"?>
<!DOCTYPE svg PUBLIC "-//W3C//DTD SVG 1.1//EN"
  "http://www.w3.org/Graphics/SVG/1.1/DTD/svg11.dtd">
<!-- Created with matplotlib (https://matplotlib.org/) -->
<svg height="342.72pt" version="1.1" viewBox="0 0 460.8 342.72" width="460.8pt" xmlns="http://www.w3.org/2000/svg" xmlns:xlink="http://www.w3.org/1999/xlink">
 <defs>
  <style type="text/css">
*{stroke-linecap:butt;stroke-linejoin:round;}
  </style>
 </defs>
 <g id="figure_1">
  <g id="patch_1">
   <path d="M 0 342.72 
L 460.8 342.72 
L 460.8 0 
L 0 0 
z
" style="fill:#ffffff;"/>
  </g>
  <g id="patch_2">
   <path d="M 57.6 305.0208 
L 414.72 305.0208 
L 414.72 41.1264 
L 57.6 41.1264 
z
" style="fill:#ffffff;"/>
  </g>
  <g id="pane3d_1">
   <g id="patch_3">
    <path d="M 104.941774 246.709438 
L 207.151387 182.00851 
L 205.449705 58.375657 
L 97.541237 116.50811 
" style="fill:#f2f2f2;opacity:0.5;stroke:#f2f2f2;stroke-linejoin:miter;"/>
   </g>
  </g>
  <g id="pane3d_2">
   <g id="patch_4">
    <path d="M 207.151387 182.00851 
L 372.72135 218.180504 
L 379.648599 90.819553 
L 205.449705 58.375657 
" style="fill:#e6e6e6;opacity:0.5;stroke:#e6e6e6;stroke-linejoin:miter;"/>
   </g>
  </g>
  <g id="pane3d_3">
   <g id="patch_5">
    <path d="M 104.941774 246.709438 
L 279.143747 288.837618 
L 372.72135 218.180504 
L 207.151387 182.00851 
" style="fill:#ececec;opacity:0.5;stroke:#ececec;stroke-linejoin:miter;"/>
   </g>
  </g>
  <g id="axis3d_1">
   <g id="line2d_1">
    <path d="M 104.941774 246.709438 
L 279.143747 288.837618 
" style="fill:none;stroke:#000000;stroke-linecap:square;stroke-width:0.8;"/>
   </g>
   <g id="Line3DCollection_1">
    <path d="M 115.562252 249.277844 
L 217.277438 184.220744 
L 216.081723 60.355831 
" style="fill:none;stroke:#b0b0b0;stroke-width:0.8;"/>
    <path d="M 133.910384 253.715069 
L 234.761622 188.040506 
L 234.446201 63.776147 
" style="fill:none;stroke:#b0b0b0;stroke-width:0.8;"/>
    <path d="M 152.43966 258.196102 
L 252.405875 191.895238 
L 252.987369 67.22937 
" style="fill:none;stroke:#b0b0b0;stroke-width:0.8;"/>
    <path d="M 171.152775 262.721593 
L 270.212405 195.785422 
L 271.707787 70.715978 
" style="fill:none;stroke:#b0b0b0;stroke-width:0.8;"/>
    <path d="M 190.052479 267.292208 
L 288.183461 199.71155 
L 290.610069 74.236458 
" style="fill:none;stroke:#b0b0b0;stroke-width:0.8;"/>
    <path d="M 209.141577 271.908625 
L 306.321335 203.674123 
L 309.696877 77.791305 
" style="fill:none;stroke:#b0b0b0;stroke-width:0.8;"/>
    <path d="M 228.42293 276.571536 
L 324.628359 207.67365 
L 328.970927 81.381025 
" style="fill:none;stroke:#b0b0b0;stroke-width:0.8;"/>
    <path d="M 247.899457 281.281647 
L 343.106911 211.710651 
L 348.434987 85.006134 
" style="fill:none;stroke:#b0b0b0;stroke-width:0.8;"/>
    <path d="M 267.574137 286.039678 
L 361.759413 215.785655 
L 368.091882 88.667157 
" style="fill:none;stroke:#b0b0b0;stroke-width:0.8;"/>
   </g>
   <g id="xtick_1">
    <g id="line2d_2">
     <path d="M 116.438581 248.717343 
L 113.806326 250.400935 
" style="fill:none;stroke:#000000;stroke-linecap:square;stroke-width:0.8;"/>
    </g>
    <g id="text_1">
     <!-- −2.0 -->
     <defs>
      <path d="M 10.59375 35.5 
L 73.1875 35.5 
L 73.1875 27.203125 
L 10.59375 27.203125 
z
" id="DejaVuSans-8722"/>
      <path d="M 19.1875 8.296875 
L 53.609375 8.296875 
L 53.609375 0 
L 7.328125 0 
L 7.328125 8.296875 
Q 12.9375 14.109375 22.625 23.890625 
Q 32.328125 33.6875 34.8125 36.53125 
Q 39.546875 41.84375 41.421875 45.53125 
Q 43.3125 49.21875 43.3125 52.78125 
Q 43.3125 58.59375 39.234375 62.25 
Q 35.15625 65.921875 28.609375 65.921875 
Q 23.96875 65.921875 18.8125 64.3125 
Q 13.671875 62.703125 7.8125 59.421875 
L 7.8125 69.390625 
Q 13.765625 71.78125 18.9375 73 
Q 24.125 74.21875 28.421875 74.21875 
Q 39.75 74.21875 46.484375 68.546875 
Q 53.21875 62.890625 53.21875 53.421875 
Q 53.21875 48.921875 51.53125 44.890625 
Q 49.859375 40.875 45.40625 35.40625 
Q 44.1875 33.984375 37.640625 27.21875 
Q 31.109375 20.453125 19.1875 8.296875 
z
" id="DejaVuSans-50"/>
      <path d="M 10.6875 12.40625 
L 21 12.40625 
L 21 0 
L 10.6875 0 
z
" id="DejaVuSans-46"/>
      <path d="M 31.78125 66.40625 
Q 24.171875 66.40625 20.328125 58.90625 
Q 16.5 51.421875 16.5 36.375 
Q 16.5 21.390625 20.328125 13.890625 
Q 24.171875 6.390625 31.78125 6.390625 
Q 39.453125 6.390625 43.28125 13.890625 
Q 47.125 21.390625 47.125 36.375 
Q 47.125 51.421875 43.28125 58.90625 
Q 39.453125 66.40625 31.78125 66.40625 
z
M 31.78125 74.21875 
Q 44.046875 74.21875 50.515625 64.515625 
Q 56.984375 54.828125 56.984375 36.375 
Q 56.984375 17.96875 50.515625 8.265625 
Q 44.046875 -1.421875 31.78125 -1.421875 
Q 19.53125 -1.421875 13.0625 8.265625 
Q 6.59375 17.96875 6.59375 36.375 
Q 6.59375 54.828125 13.0625 64.515625 
Q 19.53125 74.21875 31.78125 74.21875 
z
" id="DejaVuSans-48"/>
     </defs>
     <g transform="translate(96.074535 270.683355)scale(0.1 -0.1)">
      <use xlink:href="#DejaVuSans-8722"/>
      <use x="83.789062" xlink:href="#DejaVuSans-50"/>
      <use x="147.412109" xlink:href="#DejaVuSans-46"/>
      <use x="179.199219" xlink:href="#DejaVuSans-48"/>
     </g>
    </g>
   </g>
   <g id="xtick_2">
    <g id="line2d_3">
     <path d="M 134.779574 253.149051 
L 132.168746 254.849228 
" style="fill:none;stroke:#000000;stroke-linecap:square;stroke-width:0.8;"/>
    </g>
    <g id="text_2">
     <!-- −1.5 -->
     <defs>
      <path d="M 12.40625 8.296875 
L 28.515625 8.296875 
L 28.515625 63.921875 
L 10.984375 60.40625 
L 10.984375 69.390625 
L 28.421875 72.90625 
L 38.28125 72.90625 
L 38.28125 8.296875 
L 54.390625 8.296875 
L 54.390625 0 
L 12.40625 0 
z
" id="DejaVuSans-49"/>
      <path d="M 10.796875 72.90625 
L 49.515625 72.90625 
L 49.515625 64.59375 
L 19.828125 64.59375 
L 19.828125 46.734375 
Q 21.96875 47.46875 24.109375 47.828125 
Q 26.265625 48.1875 28.421875 48.1875 
Q 40.625 48.1875 47.75 41.5 
Q 54.890625 34.8125 54.890625 23.390625 
Q 54.890625 11.625 47.5625 5.09375 
Q 40.234375 -1.421875 26.90625 -1.421875 
Q 22.3125 -1.421875 17.546875 -0.640625 
Q 12.796875 0.140625 7.71875 1.703125 
L 7.71875 11.625 
Q 12.109375 9.234375 16.796875 8.0625 
Q 21.484375 6.890625 26.703125 6.890625 
Q 35.15625 6.890625 40.078125 11.328125 
Q 45.015625 15.765625 45.015625 23.390625 
Q 45.015625 31 40.078125 35.4375 
Q 35.15625 39.890625 26.703125 39.890625 
Q 22.75 39.890625 18.8125 39.015625 
Q 14.890625 38.140625 10.796875 36.28125 
z
" id="DejaVuSans-53"/>
     </defs>
     <g transform="translate(114.420496 275.196745)scale(0.1 -0.1)">
      <use xlink:href="#DejaVuSans-8722"/>
      <use x="83.789062" xlink:href="#DejaVuSans-49"/>
      <use x="147.412109" xlink:href="#DejaVuSans-46"/>
      <use x="179.199219" xlink:href="#DejaVuSans-53"/>
     </g>
    </g>
   </g>
   <g id="xtick_3">
    <g id="line2d_4">
     <path d="M 153.301527 257.624483 
L 150.712679 259.341492 
" style="fill:none;stroke:#000000;stroke-linecap:square;stroke-width:0.8;"/>
    </g>
    <g id="text_3">
     <!-- −1.0 -->
     <g transform="translate(132.947916 279.754777)scale(0.1 -0.1)">
      <use xlink:href="#DejaVuSans-8722"/>
      <use x="83.789062" xlink:href="#DejaVuSans-49"/>
      <use x="147.412109" xlink:href="#DejaVuSans-46"/>
      <use x="179.199219" xlink:href="#DejaVuSans-48"/>
     </g>
    </g>
   </g>
   <g id="xtick_4">
    <g id="line2d_5">
     <path d="M 172.007132 262.14429 
L 169.440828 263.878383 
" style="fill:none;stroke:#000000;stroke-linecap:square;stroke-width:0.8;"/>
    </g>
    <g id="text_4">
     <!-- −0.5 -->
     <g transform="translate(151.659501 284.358116)scale(0.1 -0.1)">
      <use xlink:href="#DejaVuSans-8722"/>
      <use x="83.789062" xlink:href="#DejaVuSans-48"/>
      <use x="147.412109" xlink:href="#DejaVuSans-46"/>
      <use x="179.199219" xlink:href="#DejaVuSans-53"/>
     </g>
    </g>
   </g>
   <g id="xtick_5">
    <g id="line2d_6">
     <path d="M 190.899132 266.709137 
L 188.355953 268.460568 
" style="fill:none;stroke:#000000;stroke-linecap:square;stroke-width:0.8;"/>
    </g>
    <g id="text_5">
     <!-- 0.0 -->
     <g transform="translate(174.747855 289.007441)scale(0.1 -0.1)">
      <use xlink:href="#DejaVuSans-48"/>
      <use x="63.623047" xlink:href="#DejaVuSans-46"/>
      <use x="95.410156" xlink:href="#DejaVuSans-48"/>
     </g>
    </g>
   </g>
   <g id="xtick_6">
    <g id="line2d_7">
     <path d="M 209.980329 271.319698 
L 207.460868 273.08873 
" style="fill:none;stroke:#000000;stroke-linecap:square;stroke-width:0.8;"/>
    </g>
    <g id="text_6">
     <!-- 0.5 -->
     <g transform="translate(193.836104 293.703445)scale(0.1 -0.1)">
      <use xlink:href="#DejaVuSans-48"/>
      <use x="63.623047" xlink:href="#DejaVuSans-46"/>
      <use x="95.410156" xlink:href="#DejaVuSans-53"/>
     </g>
    </g>
   </g>
   <g id="xtick_7">
    <g id="line2d_8">
     <path d="M 229.253578 275.976665 
L 226.758444 277.763564 
" style="fill:none;stroke:#000000;stroke-linecap:square;stroke-width:0.8;"/>
    </g>
    <g id="text_7">
     <!-- 1.0 -->
     <g transform="translate(213.116964 298.446835)scale(0.1 -0.1)">
      <use xlink:href="#DejaVuSans-49"/>
      <use x="63.623047" xlink:href="#DejaVuSans-46"/>
      <use x="95.410156" xlink:href="#DejaVuSans-48"/>
     </g>
    </g>
   </g>
   <g id="xtick_8">
    <g id="line2d_9">
     <path d="M 248.721793 280.680741 
L 246.251609 282.48578 
" style="fill:none;stroke:#000000;stroke-linecap:square;stroke-width:0.8;"/>
    </g>
    <g id="text_8">
     <!-- 1.5 -->
     <g transform="translate(232.593366 303.238331)scale(0.1 -0.1)">
      <use xlink:href="#DejaVuSans-49"/>
      <use x="63.623047" xlink:href="#DejaVuSans-46"/>
      <use x="95.410156" xlink:href="#DejaVuSans-53"/>
     </g>
    </g>
   </g>
   <g id="xtick_9">
    <g id="line2d_10">
     <path d="M 268.387949 285.432645 
L 265.943353 287.256101 
" style="fill:none;stroke:#000000;stroke-linecap:square;stroke-width:0.8;"/>
    </g>
    <g id="text_9">
     <!-- 2.0 -->
     <g transform="translate(252.2683 308.078668)scale(0.1 -0.1)">
      <use xlink:href="#DejaVuSans-50"/>
      <use x="63.623047" xlink:href="#DejaVuSans-46"/>
      <use x="95.410156" xlink:href="#DejaVuSans-48"/>
     </g>
    </g>
   </g>
  </g>
  <g id="axis3d_2">
   <g id="line2d_11">
    <path d="M 372.72135 218.180504 
L 279.143747 288.837618 
" style="fill:none;stroke:#000000;stroke-linecap:square;stroke-width:0.8;"/>
   </g>
   <g id="Line3DCollection_2">
    <path d="M 114.940117 107.134985 
L 121.367952 236.311307 
L 294.225048 277.450265 
" style="fill:none;stroke:#b0b0b0;stroke-width:0.8;"/>
    <path d="M 134.543533 96.574232 
L 139.900151 224.580018 
L 311.220414 264.61767 
" style="fill:none;stroke:#b0b0b0;stroke-width:0.8;"/>
    <path d="M 153.610437 86.302509 
L 157.95035 213.153847 
L 327.753882 252.133837 
" style="fill:none;stroke:#b0b0b0;stroke-width:0.8;"/>
    <path d="M 172.162559 76.308109 
L 175.53711 202.021041 
L 343.844028 239.984741 
" style="fill:none;stroke:#b0b0b0;stroke-width:0.8;"/>
    <path d="M 190.220469 66.579952 
L 192.678054 191.170448 
L 359.508449 228.157095 
" style="fill:none;stroke:#b0b0b0;stroke-width:0.8;"/>
   </g>
   <g id="xtick_10">
    <g id="line2d_12">
     <path d="M 292.778832 277.106075 
L 297.12069 278.139411 
" style="fill:none;stroke:#000000;stroke-linecap:square;stroke-width:0.8;"/>
    </g>
    <g id="text_10">
     <!-- −0.04 -->
     <defs>
      <path d="M 37.796875 64.3125 
L 12.890625 25.390625 
L 37.796875 25.390625 
z
M 35.203125 72.90625 
L 47.609375 72.90625 
L 47.609375 25.390625 
L 58.015625 25.390625 
L 58.015625 17.1875 
L 47.609375 17.1875 
L 47.609375 0 
L 37.796875 0 
L 37.796875 17.1875 
L 4.890625 17.1875 
L 4.890625 26.703125 
z
" id="DejaVuSans-52"/>
     </defs>
     <g transform="translate(291.553689 297.067055)scale(0.1 -0.1)">
      <use xlink:href="#DejaVuSans-8722"/>
      <use x="83.789062" xlink:href="#DejaVuSans-48"/>
      <use x="147.412109" xlink:href="#DejaVuSans-46"/>
      <use x="179.199219" xlink:href="#DejaVuSans-48"/>
      <use x="242.822266" xlink:href="#DejaVuSans-52"/>
     </g>
    </g>
   </g>
   <g id="xtick_11">
    <g id="line2d_13">
     <path d="M 309.78792 264.282895 
L 314.088537 265.287952 
" style="fill:none;stroke:#000000;stroke-linecap:square;stroke-width:0.8;"/>
    </g>
    <g id="text_11">
     <!-- −0.02 -->
     <g transform="translate(308.366341 284.075405)scale(0.1 -0.1)">
      <use xlink:href="#DejaVuSans-8722"/>
      <use x="83.789062" xlink:href="#DejaVuSans-48"/>
      <use x="147.412109" xlink:href="#DejaVuSans-46"/>
      <use x="179.199219" xlink:href="#DejaVuSans-48"/>
      <use x="242.822266" xlink:href="#DejaVuSans-50"/>
     </g>
    </g>
   </g>
   <g id="xtick_12">
    <g id="line2d_14">
     <path d="M 326.334904 251.808098 
L 330.5949 252.78602 
" style="fill:none;stroke:#000000;stroke-linecap:square;stroke-width:0.8;"/>
    </g>
    <g id="text_12">
     <!-- 0.00 -->
     <g transform="translate(328.91213 271.436666)scale(0.1 -0.1)">
      <use xlink:href="#DejaVuSans-48"/>
      <use x="63.623047" xlink:href="#DejaVuSans-46"/>
      <use x="95.410156" xlink:href="#DejaVuSans-48"/>
      <use x="159.033203" xlink:href="#DejaVuSans-48"/>
     </g>
    </g>
   </g>
   <g id="xtick_13">
    <g id="line2d_15">
     <path d="M 342.438362 239.667675 
L 346.658356 240.619547 
" style="fill:none;stroke:#000000;stroke-linecap:square;stroke-width:0.8;"/>
    </g>
    <g id="text_13">
     <!-- 0.02 -->
     <g transform="translate(344.829729 259.136652)scale(0.1 -0.1)">
      <use xlink:href="#DejaVuSans-48"/>
      <use x="63.623047" xlink:href="#DejaVuSans-46"/>
      <use x="95.410156" xlink:href="#DejaVuSans-48"/>
      <use x="159.033203" xlink:href="#DejaVuSans-50"/>
     </g>
    </g>
   </g>
   <g id="xtick_14">
    <g id="line2d_16">
     <path d="M 358.11589 227.848361 
L 362.296494 228.77521 
" style="fill:none;stroke:#000000;stroke-linecap:square;stroke-width:0.8;"/>
    </g>
    <g id="text_14">
     <!-- 0.04 -->
     <g transform="translate(360.326369 247.161924)scale(0.1 -0.1)">
      <use xlink:href="#DejaVuSans-48"/>
      <use x="63.623047" xlink:href="#DejaVuSans-46"/>
      <use x="95.410156" xlink:href="#DejaVuSans-48"/>
      <use x="159.033203" xlink:href="#DejaVuSans-52"/>
     </g>
    </g>
   </g>
  </g>
  <g id="axis3d_3">
   <g id="line2d_17">
    <path d="M 372.72135 218.180504 
L 379.648599 90.819553 
" style="fill:none;stroke:#000000;stroke-linecap:square;stroke-width:0.8;"/>
   </g>
   <g id="Line3DCollection_3">
    <path d="M 374.121542 192.437269 
L 206.806831 156.975368 
L 103.447971 220.42821 
" style="fill:none;stroke:#b0b0b0;stroke-width:0.8;"/>
    <path d="M 375.427344 168.429433 
L 206.485776 133.649626 
L 102.053931 195.90217 
" style="fill:none;stroke:#b0b0b0;stroke-width:0.8;"/>
    <path d="M 376.759015 143.945991 
L 206.158632 109.881517 
L 100.631342 170.873864 
" style="fill:none;stroke:#b0b0b0;stroke-width:0.8;"/>
    <path d="M 378.117331 118.97267 
L 205.825224 85.658335 
L 99.179319 145.327702 
" style="fill:none;stroke:#b0b0b0;stroke-width:0.8;"/>
   </g>
   <g id="xtick_15">
    <g id="line2d_18">
     <path d="M 372.724987 192.141273 
L 376.917585 193.029882 
" style="fill:none;stroke:#000000;stroke-linecap:square;stroke-width:0.8;"/>
    </g>
    <g id="text_15">
     <!-- 0.2 -->
     <g transform="translate(384.759039 198.113371)scale(0.1 -0.1)">
      <use xlink:href="#DejaVuSans-48"/>
      <use x="63.623047" xlink:href="#DejaVuSans-46"/>
      <use x="95.410156" xlink:href="#DejaVuSans-50"/>
     </g>
    </g>
   </g>
   <g id="xtick_16">
    <g id="line2d_19">
     <path d="M 374.016636 168.139012 
L 378.251754 169.010891 
" style="fill:none;stroke:#000000;stroke-linecap:square;stroke-width:0.8;"/>
    </g>
    <g id="text_16">
     <!-- 0.4 -->
     <g transform="translate(386.243752 174.141778)scale(0.1 -0.1)">
      <use xlink:href="#DejaVuSans-48"/>
      <use x="63.623047" xlink:href="#DejaVuSans-46"/>
      <use x="95.410156" xlink:href="#DejaVuSans-52"/>
     </g>
    </g>
   </g>
   <g id="xtick_17">
    <g id="line2d_20">
     <path d="M 375.333863 143.661425 
L 379.612372 144.515732 
" style="fill:none;stroke:#000000;stroke-linecap:square;stroke-width:0.8;"/>
    </g>
    <g id="text_17">
     <!-- 0.6 -->
     <defs>
      <path d="M 33.015625 40.375 
Q 26.375 40.375 22.484375 35.828125 
Q 18.609375 31.296875 18.609375 23.390625 
Q 18.609375 15.53125 22.484375 10.953125 
Q 26.375 6.390625 33.015625 6.390625 
Q 39.65625 6.390625 43.53125 10.953125 
Q 47.40625 15.53125 47.40625 23.390625 
Q 47.40625 31.296875 43.53125 35.828125 
Q 39.65625 40.375 33.015625 40.375 
z
M 52.59375 71.296875 
L 52.59375 62.3125 
Q 48.875 64.0625 45.09375 64.984375 
Q 41.3125 65.921875 37.59375 65.921875 
Q 27.828125 65.921875 22.671875 59.328125 
Q 17.53125 52.734375 16.796875 39.40625 
Q 19.671875 43.65625 24.015625 45.921875 
Q 28.375 48.1875 33.59375 48.1875 
Q 44.578125 48.1875 50.953125 41.515625 
Q 57.328125 34.859375 57.328125 23.390625 
Q 57.328125 12.15625 50.6875 5.359375 
Q 44.046875 -1.421875 33.015625 -1.421875 
Q 20.359375 -1.421875 13.671875 8.265625 
Q 6.984375 17.96875 6.984375 36.375 
Q 6.984375 53.65625 15.1875 63.9375 
Q 23.390625 74.21875 37.203125 74.21875 
Q 40.921875 74.21875 44.703125 73.484375 
Q 48.484375 72.75 52.59375 71.296875 
z
" id="DejaVuSans-54"/>
     </defs>
     <g transform="translate(387.75781 149.696397)scale(0.1 -0.1)">
      <use xlink:href="#DejaVuSans-48"/>
      <use x="63.623047" xlink:href="#DejaVuSans-46"/>
      <use x="95.410156" xlink:href="#DejaVuSans-54"/>
     </g>
    </g>
   </g>
   <g id="xtick_18">
    <g id="line2d_21">
     <path d="M 376.677438 118.694252 
L 381.000234 119.530107 
" style="fill:none;stroke:#000000;stroke-linecap:square;stroke-width:0.8;"/>
    </g>
    <g id="text_18">
     <!-- 0.8 -->
     <defs>
      <path d="M 31.78125 34.625 
Q 24.75 34.625 20.71875 30.859375 
Q 16.703125 27.09375 16.703125 20.515625 
Q 16.703125 13.921875 20.71875 10.15625 
Q 24.75 6.390625 31.78125 6.390625 
Q 38.8125 6.390625 42.859375 10.171875 
Q 46.921875 13.96875 46.921875 20.515625 
Q 46.921875 27.09375 42.890625 30.859375 
Q 38.875 34.625 31.78125 34.625 
z
M 21.921875 38.8125 
Q 15.578125 40.375 12.03125 44.71875 
Q 8.5 49.078125 8.5 55.328125 
Q 8.5 64.0625 14.71875 69.140625 
Q 20.953125 74.21875 31.78125 74.21875 
Q 42.671875 74.21875 48.875 69.140625 
Q 55.078125 64.0625 55.078125 55.328125 
Q 55.078125 49.078125 51.53125 44.71875 
Q 48 40.375 41.703125 38.8125 
Q 48.828125 37.15625 52.796875 32.3125 
Q 56.78125 27.484375 56.78125 20.515625 
Q 56.78125 9.90625 50.3125 4.234375 
Q 43.84375 -1.421875 31.78125 -1.421875 
Q 19.734375 -1.421875 13.25 4.234375 
Q 6.78125 9.90625 6.78125 20.515625 
Q 6.78125 27.484375 10.78125 32.3125 
Q 14.796875 37.15625 21.921875 38.8125 
z
M 18.3125 54.390625 
Q 18.3125 48.734375 21.84375 45.5625 
Q 25.390625 42.390625 31.78125 42.390625 
Q 38.140625 42.390625 41.71875 45.5625 
Q 45.3125 48.734375 45.3125 54.390625 
Q 45.3125 60.0625 41.71875 63.234375 
Q 38.140625 66.40625 31.78125 66.40625 
Q 25.390625 66.40625 21.84375 63.234375 
Q 18.3125 60.0625 18.3125 54.390625 
z
" id="DejaVuSans-56"/>
     </defs>
     <g transform="translate(389.30209 124.763041)scale(0.1 -0.1)">
      <use xlink:href="#DejaVuSans-48"/>
      <use x="63.623047" xlink:href="#DejaVuSans-46"/>
      <use x="95.410156" xlink:href="#DejaVuSans-56"/>
     </g>
    </g>
   </g>
  </g>
  <g id="axes_1">
   <g id="line2d_22">
    <path clip-path="url(#p7a23d4eb30)" d="M 168.247148 213.116538 
L 169.688017 213.396858 
L 171.129756 213.667431 
L 172.572334 213.926505 
L 174.015719 214.172081 
L 175.459875 214.40188 
L 176.904764 214.613321 
L 178.350344 214.803498 
L 179.796575 214.969148 
L 181.243411 215.106633 
L 182.690809 215.211915 
L 184.138723 215.28054 
L 185.587109 215.307617 
L 187.035926 215.287812 
L 188.485135 215.21534 
L 189.934701 215.083968 
L 191.384597 214.887023 
L 192.834802 214.617408 
L 194.285307 214.267636 
L 195.736111 213.829863 
L 197.18723 213.295945 
L 198.638696 212.657497 
L 200.090556 211.905976 
L 201.542879 211.03277 
L 202.995756 210.029303 
L 204.4493 208.887161 
L 205.903652 207.598221 
L 207.358976 206.154801 
L 208.815466 204.549821 
L 210.273341 202.77697 
L 211.73285 200.830891 
L 213.194265 198.707363 
L 214.657888 196.403491 
L 216.124041 193.9179 
L 217.593066 191.250919 
L 219.065324 188.404765 
L 220.541188 185.383711 
L 222.021035 182.194244 
L 223.505249 178.845194 
L 224.994204 175.347847 
L 226.488265 171.716021 
L 227.987774 167.966112 
L 229.493049 164.117091 
L 231.004369 160.19047 
L 232.521969 156.210211 
L 234.046033 152.202582 
L 235.576682 148.195968 
L 237.113974 144.220624 
L 238.657888 140.308372 
L 240.20833 136.492254 
L 241.765119 132.806126 
L 243.327992 129.284222 
L 244.896597 125.960673 
L 246.470502 122.869004 
L 248.04919 120.041611 
L 249.632069 117.509234 
L 251.218479 115.300442 
L 252.807698 113.441128 
L 254.398956 111.954048 
L 255.991446 110.858398 
L 257.584334 110.169457 
L 259.176779 109.898293 
L 260.767945 110.051548 
L 262.357015 110.631311 
L 263.943208 111.635076 
L 265.52579 113.055789 
L 267.10409 114.881989 
L 268.67751 117.098023 
L 270.245535 119.684349 
L 271.807742 122.617902 
L 273.363804 125.872514 
L 274.913494 129.419389 
L 276.456689 133.227599 
L 277.993366 137.26461 
L 279.5236 141.496806 
L 281.047562 145.890011 
L 282.565509 150.409992 
L 284.077777 155.022934 
L 285.584774 159.695879 
L 287.086969 164.397125 
L 288.584879 169.096566 
L 290.079062 173.765998 
L 291.570106 178.379352 
L 293.058614 182.912887 
L 294.545199 187.345324 
L 296.03047 191.65793 
L 297.515027 195.834557 
L 298.99945 199.86163 
L 300.484293 203.728106 
L 301.970078 207.425387 
L 303.457289 210.947211 
L 304.946371 214.289515 
L 306.437724 217.450278 
L 307.931702 220.429351 
L 309.428612 223.228273 
L 310.928715 225.85008 
L 312.432226 228.299121 
L 313.939316 230.58086 
L 315.450113 232.701698 
L 316.964704 234.668785 
" style="fill:none;stroke:#1f77b4;stroke-linecap:square;stroke-width:4;"/>
   </g>
   <g id="line2d_23">
    <path clip-path="url(#p7a23d4eb30)" d="M 168.221929 212.275042 
L 169.659315 212.419912 
L 171.097229 212.537576 
L 172.535632 212.624862 
L 173.974486 212.678387 
L 175.413757 212.694572 
L 176.853414 212.669651 
L 178.293432 212.599702 
L 179.73379 212.480676 
L 181.174477 212.308427 
L 182.61549 212.078762 
L 184.056835 211.787489 
L 185.498532 211.430474 
L 186.940612 211.003707 
L 188.383121 210.503371 
L 189.826119 209.92592 
L 191.269683 209.268164 
L 192.713907 208.527353 
L 194.1589 207.701268 
L 195.604792 206.788314 
L 197.051726 205.787611 
L 198.499865 204.699085 
L 199.949386 203.523555 
L 201.400479 202.262815 
L 202.853348 200.919708 
L 204.308207 199.498185 
L 205.765278 198.003362 
L 207.224785 196.441552 
L 208.686957 194.820285 
L 210.152016 193.148307 
L 211.62018 191.435561 
L 213.091656 189.693143 
L 214.566635 187.933237 
L 216.045288 186.169025 
L 217.527764 184.414573 
L 219.014183 182.684695 
L 220.504635 180.994794 
L 221.999173 179.360683 
L 223.497815 177.798387 
L 225.000537 176.323934 
L 226.507277 174.953127 
L 228.017928 173.701321 
L 229.532345 172.583182 
L 231.05034 171.612469 
L 232.571689 170.801801 
L 234.096129 170.162456 
L 235.623369 169.704179 
L 237.153088 169.435014 
L 238.684944 169.361162 
L 240.218578 169.486877 
L 241.753619 169.814384 
L 243.289694 170.343845 
L 244.826429 171.07335 
L 246.363462 171.998958 
L 247.900442 173.114761 
L 249.43704 174.412991 
L 250.972954 175.884156 
L 252.507911 177.517202 
L 254.04167 179.2997 
L 255.574032 181.218053 
L 257.104835 183.257717 
L 258.633958 185.403426 
L 260.161324 187.639426 
L 261.686894 189.949708 
L 263.210673 192.318228 
L 264.732701 194.729125 
L 266.253057 197.166918 
L 267.771851 199.616688 
L 269.289223 202.064244 
L 270.805337 204.496257 
L 272.320381 206.900384 
L 273.834556 209.265356 
L 275.34808 211.58105 
L 276.861175 213.838535 
L 278.37407 216.030095 
L 279.886993 218.149234 
L 281.400171 220.190657 
L 282.913822 222.150239 
L 284.428155 224.024974 
L 285.943369 225.812916 
L 287.459648 227.513105 
L 288.977161 229.125486 
L 290.496061 230.650825 
L 292.016484 232.090616 
L 293.538547 233.446994 
L 295.062353 234.722634 
L 296.587985 235.920668 
L 298.11551 237.044596 
L 299.64498 238.098199 
L 301.176432 239.085466 
L 302.70989 240.010517 
L 304.245364 240.877542 
L 305.782857 241.690737 
L 307.322358 242.454259 
L 308.86385 243.172176 
L 310.40731 243.848433 
L 311.952708 244.48682 
L 313.500011 245.090948 
L 315.049181 245.664231 
L 316.600179 246.209874 
" style="fill:none;stroke:#ff7f0e;stroke-linecap:square;stroke-width:4;"/>
   </g>
   <g id="Poly3DCollection_1">
    <defs>
     <path d="M 168.247148 -129.603462 
L 169.688017 -129.323142 
L 169.659315 -130.300088 
L 168.221929 -130.444958 
z
" id="mbea24e191f"/>
    </defs>
    <g clip-path="url(#p7a23d4eb30)">
     <use style="fill:#4682b4;fill-opacity:0.6;" x="0" xlink:href="#mbea24e191f" y="342.72"/>
    </g>
   </g>
   <g id="Poly3DCollection_2">
    <defs>
     <path d="M 169.688017 -129.323142 
L 171.129756 -129.052569 
L 171.097229 -130.182424 
L 169.659315 -130.300088 
z
" id="m9e8e752912"/>
    </defs>
    <g clip-path="url(#p7a23d4eb30)">
     <use style="fill:#4682b4;fill-opacity:0.6;" x="0" xlink:href="#m9e8e752912" y="342.72"/>
    </g>
   </g>
   <g id="Poly3DCollection_3">
    <defs>
     <path d="M 171.129756 -129.052569 
L 172.572334 -128.793495 
L 172.535632 -130.095138 
L 171.097229 -130.182424 
z
" id="mcb32d56ce9"/>
    </defs>
    <g clip-path="url(#p7a23d4eb30)">
     <use style="fill:#4682b4;fill-opacity:0.6;" x="0" xlink:href="#mcb32d56ce9" y="342.72"/>
    </g>
   </g>
   <g id="Poly3DCollection_4">
    <defs>
     <path d="M 172.572334 -128.793495 
L 174.015719 -128.547919 
L 173.974486 -130.041613 
L 172.535632 -130.095138 
z
" id="m90635251d6"/>
    </defs>
    <g clip-path="url(#p7a23d4eb30)">
     <use style="fill:#4682b4;fill-opacity:0.6;" x="0" xlink:href="#m90635251d6" y="342.72"/>
    </g>
   </g>
   <g id="Poly3DCollection_5">
    <defs>
     <path d="M 174.015719 -128.547919 
L 175.459875 -128.31812 
L 175.413757 -130.025428 
L 173.974486 -130.041613 
z
" id="m0245ef2c63"/>
    </defs>
    <g clip-path="url(#p7a23d4eb30)">
     <use style="fill:#4682b4;fill-opacity:0.6;" x="0" xlink:href="#m0245ef2c63" y="342.72"/>
    </g>
   </g>
   <g id="Poly3DCollection_6">
    <defs>
     <path d="M 175.459875 -128.31812 
L 176.904764 -128.106679 
L 176.853414 -130.050349 
L 175.413757 -130.025428 
z
" id="mfe3ae978b4"/>
    </defs>
    <g clip-path="url(#p7a23d4eb30)">
     <use style="fill:#4682b4;fill-opacity:0.6;" x="0" xlink:href="#mfe3ae978b4" y="342.72"/>
    </g>
   </g>
   <g id="Poly3DCollection_7">
    <defs>
     <path d="M 176.904764 -128.106679 
L 178.350344 -127.916502 
L 178.293432 -130.120298 
L 176.853414 -130.050349 
z
" id="m82ba07ee49"/>
    </defs>
    <g clip-path="url(#p7a23d4eb30)">
     <use style="fill:#4682b4;fill-opacity:0.6;" x="0" xlink:href="#m82ba07ee49" y="342.72"/>
    </g>
   </g>
   <g id="Poly3DCollection_8">
    <defs>
     <path d="M 178.350344 -127.916502 
L 179.796575 -127.750852 
L 179.73379 -130.239324 
L 178.293432 -130.120298 
z
" id="m9dc6d195ce"/>
    </defs>
    <g clip-path="url(#p7a23d4eb30)">
     <use style="fill:#4682b4;fill-opacity:0.6;" x="0" xlink:href="#m9dc6d195ce" y="342.72"/>
    </g>
   </g>
   <g id="Poly3DCollection_9">
    <defs>
     <path d="M 179.796575 -127.750852 
L 181.243411 -127.613367 
L 181.174477 -130.411573 
L 179.73379 -130.239324 
z
" id="m5489fa41a9"/>
    </defs>
    <g clip-path="url(#p7a23d4eb30)">
     <use style="fill:#4682b4;fill-opacity:0.6;" x="0" xlink:href="#m5489fa41a9" y="342.72"/>
    </g>
   </g>
   <g id="Poly3DCollection_10">
    <defs>
     <path d="M 181.243411 -127.613367 
L 182.690809 -127.508085 
L 182.61549 -130.641238 
L 181.174477 -130.411573 
z
" id="m00e0e3a931"/>
    </defs>
    <g clip-path="url(#p7a23d4eb30)">
     <use style="fill:#4682b4;fill-opacity:0.6;" x="0" xlink:href="#m00e0e3a931" y="342.72"/>
    </g>
   </g>
   <g id="Poly3DCollection_11">
    <defs>
     <path d="M 182.690809 -127.508085 
L 184.138723 -127.43946 
L 184.056835 -130.932511 
L 182.61549 -130.641238 
z
" id="m57c3195988"/>
    </defs>
    <g clip-path="url(#p7a23d4eb30)">
     <use style="fill:#4682b4;fill-opacity:0.6;" x="0" xlink:href="#m57c3195988" y="342.72"/>
    </g>
   </g>
   <g id="Poly3DCollection_12">
    <defs>
     <path d="M 184.138723 -127.43946 
L 185.587109 -127.412383 
L 185.498532 -131.289526 
L 184.056835 -130.932511 
z
" id="m230c135206"/>
    </defs>
    <g clip-path="url(#p7a23d4eb30)">
     <use style="fill:#4682b4;fill-opacity:0.6;" x="0" xlink:href="#m230c135206" y="342.72"/>
    </g>
   </g>
   <g id="Poly3DCollection_13">
    <defs>
     <path d="M 185.587109 -127.412383 
L 187.035926 -127.432188 
L 186.940612 -131.716293 
L 185.498532 -131.289526 
z
" id="m65390da128"/>
    </defs>
    <g clip-path="url(#p7a23d4eb30)">
     <use style="fill:#4682b4;fill-opacity:0.6;" x="0" xlink:href="#m65390da128" y="342.72"/>
    </g>
   </g>
   <g id="Poly3DCollection_14">
    <defs>
     <path d="M 187.035926 -127.432188 
L 188.485135 -127.50466 
L 188.383121 -132.216629 
L 186.940612 -131.716293 
z
" id="mdd973695a0"/>
    </defs>
    <g clip-path="url(#p7a23d4eb30)">
     <use style="fill:#4682b4;fill-opacity:0.6;" x="0" xlink:href="#mdd973695a0" y="342.72"/>
    </g>
   </g>
   <g id="Poly3DCollection_15">
    <defs>
     <path d="M 188.485135 -127.50466 
L 189.934701 -127.636032 
L 189.826119 -132.79408 
L 188.383121 -132.216629 
z
" id="m49886f109d"/>
    </defs>
    <g clip-path="url(#p7a23d4eb30)">
     <use style="fill:#4682b4;fill-opacity:0.6;" x="0" xlink:href="#m49886f109d" y="342.72"/>
    </g>
   </g>
   <g id="Poly3DCollection_16">
    <defs>
     <path d="M 189.934701 -127.636032 
L 191.384597 -127.832977 
L 191.269683 -133.451836 
L 189.826119 -132.79408 
z
" id="maf49afc118"/>
    </defs>
    <g clip-path="url(#p7a23d4eb30)">
     <use style="fill:#4682b4;fill-opacity:0.6;" x="0" xlink:href="#maf49afc118" y="342.72"/>
    </g>
   </g>
   <g id="Poly3DCollection_17">
    <defs>
     <path d="M 191.384597 -127.832977 
L 192.834802 -128.102592 
L 192.713907 -134.192647 
L 191.269683 -133.451836 
z
" id="m6b49baecec"/>
    </defs>
    <g clip-path="url(#p7a23d4eb30)">
     <use style="fill:#4682b4;fill-opacity:0.6;" x="0" xlink:href="#m6b49baecec" y="342.72"/>
    </g>
   </g>
   <g id="Poly3DCollection_18">
    <defs>
     <path d="M 192.834802 -128.102592 
L 194.285307 -128.452364 
L 194.1589 -135.018732 
L 192.713907 -134.192647 
z
" id="m1f23a9f44c"/>
    </defs>
    <g clip-path="url(#p7a23d4eb30)">
     <use style="fill:#4682b4;fill-opacity:0.6;" x="0" xlink:href="#m1f23a9f44c" y="342.72"/>
    </g>
   </g>
   <g id="Poly3DCollection_19">
    <defs>
     <path d="M 194.285307 -128.452364 
L 195.736111 -128.890137 
L 195.604792 -135.931686 
L 194.1589 -135.018732 
z
" id="mfe7d1198ea"/>
    </defs>
    <g clip-path="url(#p7a23d4eb30)">
     <use style="fill:#4682b4;fill-opacity:0.6;" x="0" xlink:href="#mfe7d1198ea" y="342.72"/>
    </g>
   </g>
   <g id="Poly3DCollection_20">
    <defs>
     <path d="M 195.736111 -128.890137 
L 197.18723 -129.424055 
L 197.051726 -136.932389 
L 195.604792 -135.931686 
z
" id="m7aba00480c"/>
    </defs>
    <g clip-path="url(#p7a23d4eb30)">
     <use style="fill:#4682b4;fill-opacity:0.6;" x="0" xlink:href="#m7aba00480c" y="342.72"/>
    </g>
   </g>
   <g id="Poly3DCollection_21">
    <defs>
     <path d="M 197.18723 -129.424055 
L 198.638696 -130.062503 
L 198.499865 -138.020915 
L 197.051726 -136.932389 
z
" id="m68bc71bed7"/>
    </defs>
    <g clip-path="url(#p7a23d4eb30)">
     <use style="fill:#4682b4;fill-opacity:0.6;" x="0" xlink:href="#m68bc71bed7" y="342.72"/>
    </g>
   </g>
   <g id="Poly3DCollection_22">
    <defs>
     <path d="M 198.638696 -130.062503 
L 200.090556 -130.814024 
L 199.949386 -139.196445 
L 198.499865 -138.020915 
z
" id="m303790f748"/>
    </defs>
    <g clip-path="url(#p7a23d4eb30)">
     <use style="fill:#4682b4;fill-opacity:0.6;" x="0" xlink:href="#m303790f748" y="342.72"/>
    </g>
   </g>
   <g id="Poly3DCollection_23">
    <defs>
     <path d="M 200.090556 -130.814024 
L 201.542879 -131.68723 
L 201.400479 -140.457185 
L 199.949386 -139.196445 
z
" id="m76383825d7"/>
    </defs>
    <g clip-path="url(#p7a23d4eb30)">
     <use style="fill:#4682b4;fill-opacity:0.6;" x="0" xlink:href="#m76383825d7" y="342.72"/>
    </g>
   </g>
   <g id="Poly3DCollection_24">
    <defs>
     <path d="M 201.542879 -131.68723 
L 202.995756 -132.690697 
L 202.853348 -141.800292 
L 201.400479 -140.457185 
z
" id="m71cc545d1c"/>
    </defs>
    <g clip-path="url(#p7a23d4eb30)">
     <use style="fill:#4682b4;fill-opacity:0.6;" x="0" xlink:href="#m71cc545d1c" y="342.72"/>
    </g>
   </g>
   <g id="Poly3DCollection_25">
    <defs>
     <path d="M 202.995756 -132.690697 
L 204.4493 -133.832839 
L 204.308207 -143.221815 
L 202.853348 -141.800292 
z
" id="m461c0e1620"/>
    </defs>
    <g clip-path="url(#p7a23d4eb30)">
     <use style="fill:#4682b4;fill-opacity:0.6;" x="0" xlink:href="#m461c0e1620" y="342.72"/>
    </g>
   </g>
   <g id="Poly3DCollection_26">
    <defs>
     <path d="M 204.4493 -133.832839 
L 205.903652 -135.121779 
L 205.765278 -144.716638 
L 204.308207 -143.221815 
z
" id="maf972de93e"/>
    </defs>
    <g clip-path="url(#p7a23d4eb30)">
     <use style="fill:#4682b4;fill-opacity:0.6;" x="0" xlink:href="#maf972de93e" y="342.72"/>
    </g>
   </g>
   <g id="Poly3DCollection_27">
    <defs>
     <path d="M 205.903652 -135.121779 
L 207.358976 -136.565199 
L 207.224785 -146.278448 
L 205.765278 -144.716638 
z
" id="mefdf8c307b"/>
    </defs>
    <g clip-path="url(#p7a23d4eb30)">
     <use style="fill:#4682b4;fill-opacity:0.6;" x="0" xlink:href="#mefdf8c307b" y="342.72"/>
    </g>
   </g>
   <g id="Poly3DCollection_28">
    <defs>
     <path d="M 207.358976 -136.565199 
L 208.815466 -138.170179 
L 208.686957 -147.899715 
L 207.224785 -146.278448 
z
" id="m40fdaac337"/>
    </defs>
    <g clip-path="url(#p7a23d4eb30)">
     <use style="fill:#4682b4;fill-opacity:0.6;" x="0" xlink:href="#m40fdaac337" y="342.72"/>
    </g>
   </g>
   <g id="Poly3DCollection_29">
    <defs>
     <path d="M 208.815466 -138.170179 
L 210.273341 -139.94303 
L 210.152016 -149.571693 
L 208.686957 -147.899715 
z
" id="mbb2037ab0e"/>
    </defs>
    <g clip-path="url(#p7a23d4eb30)">
     <use style="fill:#4682b4;fill-opacity:0.6;" x="0" xlink:href="#mbb2037ab0e" y="342.72"/>
    </g>
   </g>
   <g id="Poly3DCollection_30">
    <defs>
     <path d="M 210.273341 -139.94303 
L 211.73285 -141.889109 
L 211.62018 -151.284439 
L 210.152016 -149.571693 
z
" id="m30b1a237c6"/>
    </defs>
    <g clip-path="url(#p7a23d4eb30)">
     <use style="fill:#4682b4;fill-opacity:0.6;" x="0" xlink:href="#m30b1a237c6" y="342.72"/>
    </g>
   </g>
   <g id="Poly3DCollection_31">
    <defs>
     <path d="M 211.73285 -141.889109 
L 213.194265 -144.012637 
L 213.091656 -153.026857 
L 211.62018 -151.284439 
z
" id="m5886e024e4"/>
    </defs>
    <g clip-path="url(#p7a23d4eb30)">
     <use style="fill:#4682b4;fill-opacity:0.6;" x="0" xlink:href="#m5886e024e4" y="342.72"/>
    </g>
   </g>
   <g id="Poly3DCollection_32">
    <defs>
     <path d="M 213.194265 -144.012637 
L 214.657888 -146.316509 
L 214.566635 -154.786763 
L 213.091656 -153.026857 
z
" id="m47922ec66e"/>
    </defs>
    <g clip-path="url(#p7a23d4eb30)">
     <use style="fill:#4682b4;fill-opacity:0.6;" x="0" xlink:href="#m47922ec66e" y="342.72"/>
    </g>
   </g>
   <g id="Poly3DCollection_33">
    <defs>
     <path d="M 214.657888 -146.316509 
L 216.124041 -148.8021 
L 216.045288 -156.550975 
L 214.566635 -154.786763 
z
" id="md4391378be"/>
    </defs>
    <g clip-path="url(#p7a23d4eb30)">
     <use style="fill:#4682b4;fill-opacity:0.6;" x="0" xlink:href="#md4391378be" y="342.72"/>
    </g>
   </g>
   <g id="Poly3DCollection_34">
    <defs>
     <path d="M 216.124041 -148.8021 
L 217.593066 -151.469081 
L 217.527764 -158.305427 
L 216.045288 -156.550975 
z
" id="m8c03d6a0dd"/>
    </defs>
    <g clip-path="url(#p7a23d4eb30)">
     <use style="fill:#4682b4;fill-opacity:0.6;" x="0" xlink:href="#m8c03d6a0dd" y="342.72"/>
    </g>
   </g>
   <g id="Poly3DCollection_35">
    <defs>
     <path d="M 217.593066 -151.469081 
L 219.065324 -154.315235 
L 219.014183 -160.035305 
L 217.527764 -158.305427 
z
" id="m0ab4b7f3db"/>
    </defs>
    <g clip-path="url(#p7a23d4eb30)">
     <use style="fill:#4682b4;fill-opacity:0.6;" x="0" xlink:href="#m0ab4b7f3db" y="342.72"/>
    </g>
   </g>
   <g id="Poly3DCollection_36">
    <defs>
     <path d="M 219.065324 -154.315235 
L 220.541188 -157.336289 
L 220.504635 -161.725206 
L 219.014183 -160.035305 
z
" id="mac062e91cd"/>
    </defs>
    <g clip-path="url(#p7a23d4eb30)">
     <use style="fill:#4682b4;fill-opacity:0.6;" x="0" xlink:href="#mac062e91cd" y="342.72"/>
    </g>
   </g>
   <g id="Poly3DCollection_37">
    <defs>
     <path d="M 220.541188 -157.336289 
L 222.021035 -160.525756 
L 221.999173 -163.359317 
L 220.504635 -161.725206 
z
" id="ma7f60f356f"/>
    </defs>
    <g clip-path="url(#p7a23d4eb30)">
     <use style="fill:#4682b4;fill-opacity:0.6;" x="0" xlink:href="#ma7f60f356f" y="342.72"/>
    </g>
   </g>
   <g id="Poly3DCollection_38">
    <defs>
     <path d="M 222.021035 -160.525756 
L 223.505249 -163.874806 
L 223.497815 -164.921613 
L 221.999173 -163.359317 
z
" id="me4dc1d46bd"/>
    </defs>
    <g clip-path="url(#p7a23d4eb30)">
     <use style="fill:#4682b4;fill-opacity:0.6;" x="0" xlink:href="#me4dc1d46bd" y="342.72"/>
    </g>
   </g>
   <g id="Poly3DCollection_39">
    <defs>
     <path d="M 223.505249 -163.874806 
L 224.994204 -167.372153 
L 225.000537 -166.396066 
L 223.497815 -164.921613 
z
" id="m4c28c79f98"/>
    </defs>
    <g clip-path="url(#p7a23d4eb30)">
     <use style="fill:#4682b4;fill-opacity:0.6;" x="0" xlink:href="#m4c28c79f98" y="342.72"/>
    </g>
   </g>
   <g id="Poly3DCollection_40">
    <defs>
     <path d="M 224.994204 -167.372153 
L 226.488265 -171.003979 
L 226.507277 -167.766873 
L 225.000537 -166.396066 
z
" id="m61136cbfd6"/>
    </defs>
    <g clip-path="url(#p7a23d4eb30)">
     <use style="fill:#4682b4;fill-opacity:0.6;" x="0" xlink:href="#m61136cbfd6" y="342.72"/>
    </g>
   </g>
   <g id="Poly3DCollection_41">
    <defs>
     <path d="M 226.488265 -171.003979 
L 227.987774 -174.753888 
L 228.017928 -169.018679 
L 226.507277 -167.766873 
z
" id="m312e39c4f8"/>
    </defs>
    <g clip-path="url(#p7a23d4eb30)">
     <use style="fill:#4682b4;fill-opacity:0.6;" x="0" xlink:href="#m312e39c4f8" y="342.72"/>
    </g>
   </g>
   <g id="Poly3DCollection_42">
    <defs>
     <path d="M 227.987774 -174.753888 
L 229.493049 -178.602909 
L 229.532345 -170.136818 
L 228.017928 -169.018679 
z
" id="mf374760efe"/>
    </defs>
    <g clip-path="url(#p7a23d4eb30)">
     <use style="fill:#4682b4;fill-opacity:0.6;" x="0" xlink:href="#mf374760efe" y="342.72"/>
    </g>
   </g>
   <g id="Poly3DCollection_43">
    <defs>
     <path d="M 315.450113 -110.018302 
L 316.964704 -108.051215 
L 316.600179 -96.510126 
L 315.049181 -97.055769 
z
" id="m3b2fd3afc8"/>
    </defs>
    <g clip-path="url(#p7a23d4eb30)">
     <use style="fill:#4682b4;fill-opacity:0.6;" x="0" xlink:href="#m3b2fd3afc8" y="342.72"/>
    </g>
   </g>
   <g id="Poly3DCollection_44">
    <defs>
     <path d="M 229.493049 -178.602909 
L 231.004369 -182.52953 
L 231.05034 -171.107531 
L 229.532345 -170.136818 
z
" id="m88c43b04b9"/>
    </defs>
    <g clip-path="url(#p7a23d4eb30)">
     <use style="fill:#4682b4;fill-opacity:0.6;" x="0" xlink:href="#m88c43b04b9" y="342.72"/>
    </g>
   </g>
   <g id="Poly3DCollection_45">
    <defs>
     <path d="M 313.939316 -112.13914 
L 315.450113 -110.018302 
L 315.049181 -97.055769 
L 313.500011 -97.629052 
z
" id="mac4ccf6e48"/>
    </defs>
    <g clip-path="url(#p7a23d4eb30)">
     <use style="fill:#4682b4;fill-opacity:0.6;" x="0" xlink:href="#mac4ccf6e48" y="342.72"/>
    </g>
   </g>
   <g id="Poly3DCollection_46">
    <defs>
     <path d="M 312.432226 -114.420879 
L 313.939316 -112.13914 
L 313.500011 -97.629052 
L 311.952708 -98.23318 
z
" id="m84e5a1075a"/>
    </defs>
    <g clip-path="url(#p7a23d4eb30)">
     <use style="fill:#4682b4;fill-opacity:0.6;" x="0" xlink:href="#m84e5a1075a" y="342.72"/>
    </g>
   </g>
   <g id="Poly3DCollection_47">
    <defs>
     <path d="M 310.928715 -116.86992 
L 312.432226 -114.420879 
L 311.952708 -98.23318 
L 310.40731 -98.871567 
z
" id="mb1bbb6c5b3"/>
    </defs>
    <g clip-path="url(#p7a23d4eb30)">
     <use style="fill:#4682b4;fill-opacity:0.6;" x="0" xlink:href="#mb1bbb6c5b3" y="342.72"/>
    </g>
   </g>
   <g id="Poly3DCollection_48">
    <defs>
     <path d="M 309.428612 -119.491727 
L 310.928715 -116.86992 
L 310.40731 -98.871567 
L 308.86385 -99.547824 
z
" id="m6f123ce87c"/>
    </defs>
    <g clip-path="url(#p7a23d4eb30)">
     <use style="fill:#4682b4;fill-opacity:0.6;" x="0" xlink:href="#m6f123ce87c" y="342.72"/>
    </g>
   </g>
   <g id="Poly3DCollection_49">
    <defs>
     <path d="M 231.004369 -182.52953 
L 232.521969 -186.509789 
L 232.571689 -171.918199 
L 231.05034 -171.107531 
z
" id="mb4cc48a10f"/>
    </defs>
    <g clip-path="url(#p7a23d4eb30)">
     <use style="fill:#4682b4;fill-opacity:0.6;" x="0" xlink:href="#mb4cc48a10f" y="342.72"/>
    </g>
   </g>
   <g id="Poly3DCollection_50">
    <defs>
     <path d="M 307.931702 -122.290649 
L 309.428612 -119.491727 
L 308.86385 -99.547824 
L 307.322358 -100.265741 
z
" id="m8295550075"/>
    </defs>
    <g clip-path="url(#p7a23d4eb30)">
     <use style="fill:#4682b4;fill-opacity:0.6;" x="0" xlink:href="#m8295550075" y="342.72"/>
    </g>
   </g>
   <g id="Poly3DCollection_51">
    <defs>
     <path d="M 306.437724 -125.269722 
L 307.931702 -122.290649 
L 307.322358 -100.265741 
L 305.782857 -101.029263 
z
" id="m58309259b1"/>
    </defs>
    <g clip-path="url(#p7a23d4eb30)">
     <use style="fill:#4682b4;fill-opacity:0.6;" x="0" xlink:href="#m58309259b1" y="342.72"/>
    </g>
   </g>
   <g id="Poly3DCollection_52">
    <defs>
     <path d="M 304.946371 -128.430485 
L 306.437724 -125.269722 
L 305.782857 -101.029263 
L 304.245364 -101.842458 
z
" id="m7c37eebd75"/>
    </defs>
    <g clip-path="url(#p7a23d4eb30)">
     <use style="fill:#4682b4;fill-opacity:0.6;" x="0" xlink:href="#m7c37eebd75" y="342.72"/>
    </g>
   </g>
   <g id="Poly3DCollection_53">
    <defs>
     <path d="M 232.521969 -186.509789 
L 234.046033 -190.517418 
L 234.096129 -172.557544 
L 232.571689 -171.918199 
z
" id="m47b8cefbba"/>
    </defs>
    <g clip-path="url(#p7a23d4eb30)">
     <use style="fill:#4682b4;fill-opacity:0.6;" x="0" xlink:href="#m47b8cefbba" y="342.72"/>
    </g>
   </g>
   <g id="Poly3DCollection_54">
    <defs>
     <path d="M 303.457289 -131.772789 
L 304.946371 -128.430485 
L 304.245364 -101.842458 
L 302.70989 -102.709483 
z
" id="mc9a7f7eba0"/>
    </defs>
    <g clip-path="url(#p7a23d4eb30)">
     <use style="fill:#4682b4;fill-opacity:0.6;" x="0" xlink:href="#mc9a7f7eba0" y="342.72"/>
    </g>
   </g>
   <g id="Poly3DCollection_55">
    <defs>
     <path d="M 301.970078 -135.294613 
L 303.457289 -131.772789 
L 302.70989 -102.709483 
L 301.176432 -103.634534 
z
" id="m5e0e86d8c9"/>
    </defs>
    <g clip-path="url(#p7a23d4eb30)">
     <use style="fill:#4682b4;fill-opacity:0.6;" x="0" xlink:href="#m5e0e86d8c9" y="342.72"/>
    </g>
   </g>
   <g id="Poly3DCollection_56">
    <defs>
     <path d="M 300.484293 -138.991894 
L 301.970078 -135.294613 
L 301.176432 -103.634534 
L 299.64498 -104.621801 
z
" id="mb4a5144937"/>
    </defs>
    <g clip-path="url(#p7a23d4eb30)">
     <use style="fill:#4682b4;fill-opacity:0.6;" x="0" xlink:href="#mb4a5144937" y="342.72"/>
    </g>
   </g>
   <g id="Poly3DCollection_57">
    <defs>
     <path d="M 234.046033 -190.517418 
L 235.576682 -194.524032 
L 235.623369 -173.015821 
L 234.096129 -172.557544 
z
" id="meaec9dbf9d"/>
    </defs>
    <g clip-path="url(#p7a23d4eb30)">
     <use style="fill:#4682b4;fill-opacity:0.6;" x="0" xlink:href="#meaec9dbf9d" y="342.72"/>
    </g>
   </g>
   <g id="Poly3DCollection_58">
    <defs>
     <path d="M 298.99945 -142.85837 
L 300.484293 -138.991894 
L 299.64498 -104.621801 
L 298.11551 -105.675404 
z
" id="m968a3d4936"/>
    </defs>
    <g clip-path="url(#p7a23d4eb30)">
     <use style="fill:#4682b4;fill-opacity:0.6;" x="0" xlink:href="#m968a3d4936" y="342.72"/>
    </g>
   </g>
   <g id="Poly3DCollection_59">
    <defs>
     <path d="M 297.515027 -146.885443 
L 298.99945 -142.85837 
L 298.11551 -105.675404 
L 296.587985 -106.799332 
z
" id="m7f628cdc15"/>
    </defs>
    <g clip-path="url(#p7a23d4eb30)">
     <use style="fill:#4682b4;fill-opacity:0.6;" x="0" xlink:href="#m7f628cdc15" y="342.72"/>
    </g>
   </g>
   <g id="Poly3DCollection_60">
    <defs>
     <path d="M 235.576682 -194.524032 
L 237.113974 -198.499376 
L 237.153088 -173.284986 
L 235.623369 -173.015821 
z
" id="m1b9090db83"/>
    </defs>
    <g clip-path="url(#p7a23d4eb30)">
     <use style="fill:#4682b4;fill-opacity:0.6;" x="0" xlink:href="#m1b9090db83" y="342.72"/>
    </g>
   </g>
   <g id="Poly3DCollection_61">
    <defs>
     <path d="M 296.03047 -151.06207 
L 297.515027 -146.885443 
L 296.587985 -106.799332 
L 295.062353 -107.997366 
z
" id="m59e6491065"/>
    </defs>
    <g clip-path="url(#p7a23d4eb30)">
     <use style="fill:#4682b4;fill-opacity:0.6;" x="0" xlink:href="#m59e6491065" y="342.72"/>
    </g>
   </g>
   <g id="Poly3DCollection_62">
    <defs>
     <path d="M 237.113974 -198.499376 
L 238.657888 -202.411628 
L 238.684944 -173.358838 
L 237.153088 -173.284986 
z
" id="ma935d84d23"/>
    </defs>
    <g clip-path="url(#p7a23d4eb30)">
     <use style="fill:#4682b4;fill-opacity:0.6;" x="0" xlink:href="#ma935d84d23" y="342.72"/>
    </g>
   </g>
   <g id="Poly3DCollection_63">
    <defs>
     <path d="M 294.545199 -155.374676 
L 296.03047 -151.06207 
L 295.062353 -107.997366 
L 293.538547 -109.273006 
z
" id="md32c597eb3"/>
    </defs>
    <g clip-path="url(#p7a23d4eb30)">
     <use style="fill:#4682b4;fill-opacity:0.6;" x="0" xlink:href="#md32c597eb3" y="342.72"/>
    </g>
   </g>
   <g id="Poly3DCollection_64">
    <defs>
     <path d="M 293.058614 -159.807113 
L 294.545199 -155.374676 
L 293.538547 -109.273006 
L 292.016484 -110.629384 
z
" id="m12b8c31c29"/>
    </defs>
    <g clip-path="url(#p7a23d4eb30)">
     <use style="fill:#4682b4;fill-opacity:0.6;" x="0" xlink:href="#m12b8c31c29" y="342.72"/>
    </g>
   </g>
   <g id="Poly3DCollection_65">
    <defs>
     <path d="M 238.657888 -202.411628 
L 240.20833 -206.227746 
L 240.218578 -173.233123 
L 238.684944 -173.358838 
z
" id="m1e06edfe6e"/>
    </defs>
    <g clip-path="url(#p7a23d4eb30)">
     <use style="fill:#4682b4;fill-opacity:0.6;" x="0" xlink:href="#m1e06edfe6e" y="342.72"/>
    </g>
   </g>
   <g id="Poly3DCollection_66">
    <defs>
     <path d="M 291.570106 -164.340648 
L 293.058614 -159.807113 
L 292.016484 -110.629384 
L 290.496061 -112.069175 
z
" id="m8e5b97e5b4"/>
    </defs>
    <g clip-path="url(#p7a23d4eb30)">
     <use style="fill:#4682b4;fill-opacity:0.6;" x="0" xlink:href="#m8e5b97e5b4" y="342.72"/>
    </g>
   </g>
   <g id="Poly3DCollection_67">
    <defs>
     <path d="M 240.20833 -206.227746 
L 241.765119 -209.913874 
L 241.753619 -172.905616 
L 240.218578 -173.233123 
z
" id="md571562b01"/>
    </defs>
    <g clip-path="url(#p7a23d4eb30)">
     <use style="fill:#4682b4;fill-opacity:0.6;" x="0" xlink:href="#md571562b01" y="342.72"/>
    </g>
   </g>
   <g id="Poly3DCollection_68">
    <defs>
     <path d="M 290.079062 -168.954002 
L 291.570106 -164.340648 
L 290.496061 -112.069175 
L 288.977161 -113.594514 
z
" id="mf9c2dae662"/>
    </defs>
    <g clip-path="url(#p7a23d4eb30)">
     <use style="fill:#4682b4;fill-opacity:0.6;" x="0" xlink:href="#mf9c2dae662" y="342.72"/>
    </g>
   </g>
   <g id="Poly3DCollection_69">
    <defs>
     <path d="M 288.584879 -173.623434 
L 290.079062 -168.954002 
L 288.977161 -113.594514 
L 287.459648 -115.206895 
z
" id="mc05aa01aa8"/>
    </defs>
    <g clip-path="url(#p7a23d4eb30)">
     <use style="fill:#4682b4;fill-opacity:0.6;" x="0" xlink:href="#mc05aa01aa8" y="342.72"/>
    </g>
   </g>
   <g id="Poly3DCollection_70">
    <defs>
     <path d="M 241.765119 -209.913874 
L 243.327992 -213.435778 
L 243.289694 -172.376155 
L 241.753619 -172.905616 
z
" id="me18861c64b"/>
    </defs>
    <g clip-path="url(#p7a23d4eb30)">
     <use style="fill:#4682b4;fill-opacity:0.6;" x="0" xlink:href="#me18861c64b" y="342.72"/>
    </g>
   </g>
   <g id="Poly3DCollection_71">
    <defs>
     <path d="M 287.086969 -178.322875 
L 288.584879 -173.623434 
L 287.459648 -115.206895 
L 285.943369 -116.907084 
z
" id="m9ce571c4c1"/>
    </defs>
    <g clip-path="url(#p7a23d4eb30)">
     <use style="fill:#4682b4;fill-opacity:0.6;" x="0" xlink:href="#m9ce571c4c1" y="342.72"/>
    </g>
   </g>
   <g id="Poly3DCollection_72">
    <defs>
     <path d="M 243.327992 -213.435778 
L 244.896597 -216.759327 
L 244.826429 -171.64665 
L 243.289694 -172.376155 
z
" id="m1a57f457b3"/>
    </defs>
    <g clip-path="url(#p7a23d4eb30)">
     <use style="fill:#4682b4;fill-opacity:0.6;" x="0" xlink:href="#m1a57f457b3" y="342.72"/>
    </g>
   </g>
   <g id="Poly3DCollection_73">
    <defs>
     <path d="M 285.584774 -183.024121 
L 287.086969 -178.322875 
L 285.943369 -116.907084 
L 284.428155 -118.695026 
z
" id="m5456ad1f43"/>
    </defs>
    <g clip-path="url(#p7a23d4eb30)">
     <use style="fill:#4682b4;fill-opacity:0.6;" x="0" xlink:href="#m5456ad1f43" y="342.72"/>
    </g>
   </g>
   <g id="Poly3DCollection_74">
    <defs>
     <path d="M 284.077777 -187.697066 
L 285.584774 -183.024121 
L 284.428155 -118.695026 
L 282.913822 -120.569761 
z
" id="mdab7361cc4"/>
    </defs>
    <g clip-path="url(#p7a23d4eb30)">
     <use style="fill:#4682b4;fill-opacity:0.6;" x="0" xlink:href="#mdab7361cc4" y="342.72"/>
    </g>
   </g>
   <g id="Poly3DCollection_75">
    <defs>
     <path d="M 244.896597 -216.759327 
L 246.470502 -219.850996 
L 246.363462 -170.721042 
L 244.826429 -171.64665 
z
" id="m31db6e6a40"/>
    </defs>
    <g clip-path="url(#p7a23d4eb30)">
     <use style="fill:#4682b4;fill-opacity:0.6;" x="0" xlink:href="#m31db6e6a40" y="342.72"/>
    </g>
   </g>
   <g id="Poly3DCollection_76">
    <defs>
     <path d="M 282.565509 -192.310008 
L 284.077777 -187.697066 
L 282.913822 -120.569761 
L 281.400171 -122.529343 
z
" id="m8e10140b92"/>
    </defs>
    <g clip-path="url(#p7a23d4eb30)">
     <use style="fill:#4682b4;fill-opacity:0.6;" x="0" xlink:href="#m8e10140b92" y="342.72"/>
    </g>
   </g>
   <g id="Poly3DCollection_77">
    <defs>
     <path d="M 246.470502 -219.850996 
L 248.04919 -222.678389 
L 247.900442 -169.605239 
L 246.363462 -170.721042 
z
" id="ma1f8a9dd02"/>
    </defs>
    <g clip-path="url(#p7a23d4eb30)">
     <use style="fill:#4682b4;fill-opacity:0.6;" x="0" xlink:href="#ma1f8a9dd02" y="342.72"/>
    </g>
   </g>
   <g id="Poly3DCollection_78">
    <defs>
     <path d="M 281.047562 -196.829989 
L 282.565509 -192.310008 
L 281.400171 -122.529343 
L 279.886993 -124.570766 
z
" id="mae588c943a"/>
    </defs>
    <g clip-path="url(#p7a23d4eb30)">
     <use style="fill:#4682b4;fill-opacity:0.6;" x="0" xlink:href="#mae588c943a" y="342.72"/>
    </g>
   </g>
   <g id="Poly3DCollection_79">
    <defs>
     <path d="M 248.04919 -222.678389 
L 249.632069 -225.210766 
L 249.43704 -168.307009 
L 247.900442 -169.605239 
z
" id="mf2568467db"/>
    </defs>
    <g clip-path="url(#p7a23d4eb30)">
     <use style="fill:#4682b4;fill-opacity:0.6;" x="0" xlink:href="#mf2568467db" y="342.72"/>
    </g>
   </g>
   <g id="Poly3DCollection_80">
    <defs>
     <path d="M 279.5236 -201.223194 
L 281.047562 -196.829989 
L 279.886993 -124.570766 
L 278.37407 -126.689905 
z
" id="m801aec563d"/>
    </defs>
    <g clip-path="url(#p7a23d4eb30)">
     <use style="fill:#4682b4;fill-opacity:0.6;" x="0" xlink:href="#m801aec563d" y="342.72"/>
    </g>
   </g>
   <g id="Poly3DCollection_81">
    <defs>
     <path d="M 249.632069 -225.210766 
L 251.218479 -227.419558 
L 250.972954 -166.835844 
L 249.43704 -168.307009 
z
" id="m4a27d45e55"/>
    </defs>
    <g clip-path="url(#p7a23d4eb30)">
     <use style="fill:#4682b4;fill-opacity:0.6;" x="0" xlink:href="#m4a27d45e55" y="342.72"/>
    </g>
   </g>
   <g id="Poly3DCollection_82">
    <defs>
     <path d="M 277.993366 -205.45539 
L 279.5236 -201.223194 
L 278.37407 -126.689905 
L 276.861175 -128.881465 
z
" id="m5072857f27"/>
    </defs>
    <g clip-path="url(#p7a23d4eb30)">
     <use style="fill:#4682b4;fill-opacity:0.6;" x="0" xlink:href="#m5072857f27" y="342.72"/>
    </g>
   </g>
   <g id="Poly3DCollection_83">
    <defs>
     <path d="M 251.218479 -227.419558 
L 252.807698 -229.278872 
L 252.507911 -165.202798 
L 250.972954 -166.835844 
z
" id="m541f1c6e46"/>
    </defs>
    <g clip-path="url(#p7a23d4eb30)">
     <use style="fill:#4682b4;fill-opacity:0.6;" x="0" xlink:href="#m541f1c6e46" y="342.72"/>
    </g>
   </g>
   <g id="Poly3DCollection_84">
    <defs>
     <path d="M 276.456689 -209.492401 
L 277.993366 -205.45539 
L 276.861175 -128.881465 
L 275.34808 -131.13895 
z
" id="mc7ba8ece98"/>
    </defs>
    <g clip-path="url(#p7a23d4eb30)">
     <use style="fill:#4682b4;fill-opacity:0.6;" x="0" xlink:href="#mc7ba8ece98" y="342.72"/>
    </g>
   </g>
   <g id="Poly3DCollection_85">
    <defs>
     <path d="M 252.807698 -229.278872 
L 254.398956 -230.765952 
L 254.04167 -163.4203 
L 252.507911 -165.202798 
z
" id="m2de80ef97c"/>
    </defs>
    <g clip-path="url(#p7a23d4eb30)">
     <use style="fill:#4682b4;fill-opacity:0.6;" x="0" xlink:href="#m2de80ef97c" y="342.72"/>
    </g>
   </g>
   <g id="Poly3DCollection_86">
    <defs>
     <path d="M 274.913494 -213.300611 
L 276.456689 -209.492401 
L 275.34808 -131.13895 
L 273.834556 -133.454644 
z
" id="m2c7a68885e"/>
    </defs>
    <g clip-path="url(#p7a23d4eb30)">
     <use style="fill:#4682b4;fill-opacity:0.6;" x="0" xlink:href="#m2c7a68885e" y="342.72"/>
    </g>
   </g>
   <g id="Poly3DCollection_87">
    <defs>
     <path d="M 273.363804 -216.847486 
L 274.913494 -213.300611 
L 273.834556 -133.454644 
L 272.320381 -135.819616 
z
" id="m6e730d0e75"/>
    </defs>
    <g clip-path="url(#p7a23d4eb30)">
     <use style="fill:#4682b4;fill-opacity:0.6;" x="0" xlink:href="#m6e730d0e75" y="342.72"/>
    </g>
   </g>
   <g id="Poly3DCollection_88">
    <defs>
     <path d="M 254.398956 -230.765952 
L 255.991446 -231.861602 
L 255.574032 -161.501947 
L 254.04167 -163.4203 
z
" id="mc9ed5b72a8"/>
    </defs>
    <g clip-path="url(#p7a23d4eb30)">
     <use style="fill:#4682b4;fill-opacity:0.6;" x="0" xlink:href="#mc9ed5b72a8" y="342.72"/>
    </g>
   </g>
   <g id="Poly3DCollection_89">
    <defs>
     <path d="M 271.807742 -220.102098 
L 273.363804 -216.847486 
L 272.320381 -135.819616 
L 270.805337 -138.223743 
z
" id="mcc721edf54"/>
    </defs>
    <g clip-path="url(#p7a23d4eb30)">
     <use style="fill:#4682b4;fill-opacity:0.6;" x="0" xlink:href="#mcc721edf54" y="342.72"/>
    </g>
   </g>
   <g id="Poly3DCollection_90">
    <defs>
     <path d="M 255.991446 -231.861602 
L 257.584334 -232.550543 
L 257.104835 -159.462283 
L 255.574032 -161.501947 
z
" id="mba2cbcd8a6"/>
    </defs>
    <g clip-path="url(#p7a23d4eb30)">
     <use style="fill:#4682b4;fill-opacity:0.6;" x="0" xlink:href="#mba2cbcd8a6" y="342.72"/>
    </g>
   </g>
   <g id="Poly3DCollection_91">
    <defs>
     <path d="M 270.245535 -223.035651 
L 271.807742 -220.102098 
L 270.805337 -138.223743 
L 269.289223 -140.655756 
z
" id="m8fe7d944f7"/>
    </defs>
    <g clip-path="url(#p7a23d4eb30)">
     <use style="fill:#4682b4;fill-opacity:0.6;" x="0" xlink:href="#m8fe7d944f7" y="342.72"/>
    </g>
   </g>
   <g id="Poly3DCollection_92">
    <defs>
     <path d="M 257.584334 -232.550543 
L 259.176779 -232.821707 
L 258.633958 -157.316574 
L 257.104835 -159.462283 
z
" id="mda4b21ca3a"/>
    </defs>
    <g clip-path="url(#p7a23d4eb30)">
     <use style="fill:#4682b4;fill-opacity:0.6;" x="0" xlink:href="#mda4b21ca3a" y="342.72"/>
    </g>
   </g>
   <g id="Poly3DCollection_93">
    <defs>
     <path d="M 268.67751 -225.621977 
L 270.245535 -223.035651 
L 269.289223 -140.655756 
L 267.771851 -143.103312 
z
" id="mf6fe3be26f"/>
    </defs>
    <g clip-path="url(#p7a23d4eb30)">
     <use style="fill:#4682b4;fill-opacity:0.6;" x="0" xlink:href="#mf6fe3be26f" y="342.72"/>
    </g>
   </g>
   <g id="Poly3DCollection_94">
    <defs>
     <path d="M 259.176779 -232.821707 
L 260.767945 -232.668452 
L 260.161324 -155.080574 
L 258.633958 -157.316574 
z
" id="mb4d822c47f"/>
    </defs>
    <g clip-path="url(#p7a23d4eb30)">
     <use style="fill:#4682b4;fill-opacity:0.6;" x="0" xlink:href="#mb4d822c47f" y="342.72"/>
    </g>
   </g>
   <g id="Poly3DCollection_95">
    <defs>
     <path d="M 267.10409 -227.838011 
L 268.67751 -225.621977 
L 267.771851 -143.103312 
L 266.253057 -145.553082 
z
" id="m66c19385db"/>
    </defs>
    <g clip-path="url(#p7a23d4eb30)">
     <use style="fill:#4682b4;fill-opacity:0.6;" x="0" xlink:href="#m66c19385db" y="342.72"/>
    </g>
   </g>
   <g id="Poly3DCollection_96">
    <defs>
     <path d="M 260.767945 -232.668452 
L 262.357015 -232.088689 
L 261.686894 -152.770292 
L 260.161324 -155.080574 
z
" id="mbe9c7c6735"/>
    </defs>
    <g clip-path="url(#p7a23d4eb30)">
     <use style="fill:#4682b4;fill-opacity:0.6;" x="0" xlink:href="#mbe9c7c6735" y="342.72"/>
    </g>
   </g>
   <g id="Poly3DCollection_97">
    <defs>
     <path d="M 265.52579 -229.664211 
L 267.10409 -227.838011 
L 266.253057 -145.553082 
L 264.732701 -147.990875 
z
" id="m0ed2e6ff73"/>
    </defs>
    <g clip-path="url(#p7a23d4eb30)">
     <use style="fill:#4682b4;fill-opacity:0.6;" x="0" xlink:href="#m0ed2e6ff73" y="342.72"/>
    </g>
   </g>
   <g id="Poly3DCollection_98">
    <defs>
     <path d="M 262.357015 -232.088689 
L 263.943208 -231.084924 
L 263.210673 -150.401772 
L 261.686894 -152.770292 
z
" id="m212d4bf015"/>
    </defs>
    <g clip-path="url(#p7a23d4eb30)">
     <use style="fill:#4682b4;fill-opacity:0.6;" x="0" xlink:href="#m212d4bf015" y="342.72"/>
    </g>
   </g>
   <g id="Poly3DCollection_99">
    <defs>
     <path d="M 263.943208 -231.084924 
L 265.52579 -229.664211 
L 264.732701 -147.990875 
L 263.210673 -150.401772 
z
" id="md3674f941b"/>
    </defs>
    <g clip-path="url(#p7a23d4eb30)">
     <use style="fill:#4682b4;fill-opacity:0.6;" x="0" xlink:href="#md3674f941b" y="342.72"/>
    </g>
   </g>
  </g>
 </g>
 <defs>
  <clipPath id="p7a23d4eb30">
   <rect height="263.8944" width="357.12" x="57.6" y="41.1264"/>
  </clipPath>
 </defs>
</svg>
